<?xml version="1.0" standalone="no"?>
<!DOCTYPE svg PUBLIC "-//W3C//DTD SVG 1.1//EN" "http://www.w3.org/Graphics/SVG/1.1/DTD/svg11.dtd" >
<svg>
<metadata>
Created by FontForge 20090914 at Fri Jun 21 13:20:32 2019
 By www-data
Copyright (c) 2005 Dalton Maag Ltd. All rights reserved. This font is for exclusive use by Vodafone only. This font may not be altered in any way without prior consent of Dalton Maag Ltd. DaMa is a trademark of Dalton Maag Ltd
</metadata>
<defs>
<font id="VodafoneRg-Regular" horiz-adv-x="513" >
  <font-face 
    font-family="Vodafone Rg"
    font-weight="400"
    font-stretch="normal"
    units-per-em="1000"
    panose-1="2 11 6 6 8 2 2 2 2 4"
    ascent="800"
    descent="-200"
    x-height="477"
    cap-height="667"
    bbox="-227 -220 1018 899.002"
    underline-thickness="70"
    underline-position="-115"
    unicode-range="U+000D-U+FB02"
  />
<missing-glyph horiz-adv-x="190" 
 />
    <glyph glyph-name=".notdef" horiz-adv-x="190" 
 />
    <glyph glyph-name=".null" horiz-adv-x="0" 
 />
    <glyph glyph-name=".null" horiz-adv-x="0" 
 />
    <glyph glyph-name="nonmarkingreturn" unicode="&#xd;" horiz-adv-x="223" 
 />
    <glyph glyph-name="space" unicode=" " horiz-adv-x="190" 
 />
    <glyph glyph-name="exclam" unicode="!" horiz-adv-x="188" 
d="M94 -11c-14.667 0 -26.834 4.83301 -36.501 14.5s-14.5 22.834 -14.5 39.501s4.83301 30 14.5 40s21.834 15 36.501 15c15.333 0 27.666 -5 36.999 -15s14 -23.333 14 -40s-4.66699 -29.834 -14 -39.501s-21.666 -14.5 -36.999 -14.5zM59 204v463h72v-463h-72z" />
    <glyph glyph-name="quotedbl" unicode="&#x22;" horiz-adv-x="303" 
d="M48 371v296h68v-296h-68zM187 371v296h69v-296h-69z" />
    <glyph glyph-name="numbersign" unicode="#" horiz-adv-x="562" 
d="M160 74v168h-160v68h160v121h-160v67h160v169h64v-169h114v169h65v-169h159v-67h-159v-121h159v-68h-159v-168h-65v168h-114v-168h-64zM224 310h114v121h-114v-121z" />
    <glyph glyph-name="dollar" unicode="$" 
d="M224 -147l0.000976562 135.002c-40 0.666992 -76.5 9.66699 -109.5 27s-58.833 39.666 -77.5 66.999l49 54c15.333 -22.667 34.666 -41.5 57.999 -56.5s50 -23.167 80 -24.5v270c-37.333 16.667 -69 34.5 -95 53.5s-44.167 40.167 -54.5 63.5s-15.5 48 -15.5 74
c0 34 8.83301 64 26.5 90s39.5 44.333 65.5 55s50.333 16.667 73 18v132h61v-132c47.333 -5.33301 84.666 -19 111.999 -41s46 -42.667 56 -62l-48 -43c-14.667 22 -31.167 39.833 -49.5 53.5s-41.833 22.167 -70.5 25.5v-230c48 -24.667 84.167 -46.334 108.5 -65.001
s41.333 -40.167 51 -64.5s14.5 -49.166 14.5 -74.499c0 -28 -4.5 -53.167 -13.5 -75.5s-21.167 -41.5 -36.5 -57.5s-33.666 -28.833 -54.999 -38.5s-44.333 -15.834 -69 -18.501v-135h-61zM285.001 54.002c27.333 2.66699 50.833 14.168 70.5 34.501s29.5 48.5 29.5 84.5
c0 30 -8.5 54.667 -25.5 74s-41.833 37.666 -74.5 54.999v-248zM224.001 403.003l0.000976562 209.999c-26 -2 -48 -10.833 -66 -26.5s-27 -37.5 -27 -65.5c0 -31.333 8.16699 -55.166 24.5 -71.499s39.166 -31.833 68.499 -46.5z" />
    <glyph glyph-name="percent" unicode="%" horiz-adv-x="703" 
d="M71 -7l-46 52l602 626l45 -48zM533 -7c-20 0 -38.833 4.00098 -56.5 12.001s-33 19 -46 33s-23.167 30.167 -30.5 48.5s-11 38.166 -11 59.499c0 29.333 7.83301 57.166 23.5 83.499s34.667 44.5 57 54.5s43.5 15 63.5 15c29.333 0 55.5 -8.16699 78.5 -24.5
s39.833 -36.666 50.5 -60.999s16 -46.833 16 -67.5c0 -32 -8.5 -60.667 -25.5 -86s-36.167 -42.833 -57.5 -52.5s-42 -14.5 -62 -14.5zM532 56.001c28.667 0 49.832 10.333 63.499 31s20.5 40.667 20.5 60c0 12 -2.16699 23.5 -6.5 34.5s-10.333 20.667 -18 29
s-16.667 15 -27 20s-21.166 7.5 -32.499 7.5c-17.333 0 -33 -5.5 -47 -16.5s-23.5 -23.167 -28.5 -36.5s-7.5 -26 -7.5 -38c0 -18.667 5.16699 -36 15.5 -52s21.333 -26.5 33 -31.5s23.167 -7.5 34.5 -7.5zM176.998 367.001c-20 0 -38.833 3.99902 -56.5 11.999
s-33 19 -46 33s-23.333 30.167 -31 48.5s-11.5 38.166 -11.5 59.499c0 30.667 8.16699 58.834 24.5 84.501s35.5 43.5 57.5 53.5s43 15 63 15c29.333 0 55.5 -8.16699 78.5 -24.5s39.833 -36.666 50.5 -60.999s16 -46.833 16 -67.5c0 -32 -8.5 -60.667 -25.5 -86
s-36.167 -42.833 -57.5 -52.5s-42 -14.5 -62 -14.5zM175.998 430c26.667 0 47.167 10.167 61.5 30.5s21.5 40.5 21.5 60.5c0 18 -4.66699 34.167 -14 48.5s-20.333 25 -33 32s-24.667 10.5 -36 10.5c-17.333 0 -33 -5.5 -47 -16.5s-23.5 -23.167 -28.5 -36.5
s-7.5 -26 -7.5 -38c0 -18.667 5.16699 -36 15.5 -52s21.333 -26.5 33 -31.5s23.167 -7.5 34.5 -7.5z" />
    <glyph glyph-name="ampersand" unicode="&#x26;" horiz-adv-x="614" 
d="M224 -11c-36.667 0 -67.4971 5.33008 -92.4971 15.9971s-45.167 24.667 -60.5 42s-26.333 36.833 -33 58.5s-10 43.167 -10 64.5c0 35.333 7.83301 67.333 23.5 96s35.5 52.167 59.5 70.5s46.333 32.833 67 43.5l25 13l-13 15
c-23.333 26.667 -39.166 49.334 -47.499 68.001s-12.5 39.667 -12.5 63c0 27.333 7.83301 52 23.5 74s36.167 37.333 61.5 46s50.666 13 75.999 13c26.667 0 49.667 -3.66699 69 -11s35.666 -16.5 48.999 -27.5s24.166 -23 32.499 -36s15.166 -24.833 20.499 -35.5l-56 -43
c-22 36.667 -42 61.167 -60 73.5s-36.667 18.5 -56 18.5c-28 0 -48.833 -6.66699 -62.5 -20s-20.5 -31 -20.5 -53c0 -17.333 4.33301 -33.166 13 -47.499s20.667 -31.166 36 -50.499l180 -233l105 146l51 -43l-113 -156l109 -154h-83l-70 97
c-22.667 -26 -45.667 -47.333 -69 -64s-46.833 -28.167 -70.5 -34.5s-47.5 -9.5 -71.5 -9.5zM227.003 50.9971c22.667 0 45 5.49902 67 16.499s40.833 24.333 56.5 40s28.5 29.834 38.5 42.501l-147 196l-17 -9c-48 -26 -80.5 -52.667 -97.5 -80s-25.5 -56.333 -25.5 -87
c0 -22.667 5.16699 -43.667 15.5 -63s25.333 -33.5 45 -42.5s41.167 -13.5 64.5 -13.5z" />
    <glyph glyph-name="quotesingle" unicode="'" horiz-adv-x="162" 
d="M48 371v296h66v-296h-66z" />
    <glyph glyph-name="parenleft" unicode="(" horiz-adv-x="273" 
d="M240 -65c-28 19.333 -53.999 42.167 -77.999 68.5s-44.833 56.333 -62.5 90s-31.667 71 -42 112s-15.5 86.167 -15.5 135.5c0 48.667 5 93.5 15 134.5s23.667 78 41 111s37.666 61.667 60.999 86s48 44.5 74 60.5l35 -45c-28 -22 -51.833 -44.333 -71.5 -67
s-35.667 -47.667 -48 -75s-21.333 -57.666 -27 -90.999s-8.5 -71.333 -8.5 -114c0 -44.667 4.33301 -85.167 13 -121.5s20.334 -69 35.001 -98s31.667 -54.833 51 -77.5s39.666 -42.334 60.999 -59.001z" />
    <glyph glyph-name="parenright" unicode=")" horiz-adv-x="274" 
d="M33 -65l-33.002 50.001c36 28 66.5 61.5 91.5 100.5s42.667 80.167 53 123.5s15.5 87.333 15.5 132c0 62 -6.33301 115 -19 159s-31.5 80.833 -56.5 110.5s-51.5 55.5 -79.5 77.5l35 45c42.667 -26.667 78.834 -61.334 108.501 -104.001s50.834 -89.167 63.501 -139.5
s19 -99.833 19 -148.5c0 -70 -11 -134 -33 -192s-48 -103.167 -78 -135.5s-59 -58.5 -87 -78.5z" />
    <glyph glyph-name="asterisk" unicode="*" horiz-adv-x="404" 
d="M174 339v140l-114 -81l-27 53l121 84l-121 87l30 50l111 -80v133h54v-133l113 79l30 -48l-122 -87l121 -87l-27 -52l-115 82v-140h-54z" />
    <glyph glyph-name="plus" unicode="+" 
d="M223 77v220h-191v70h191v219h67v-219h191v-70h-191v-220h-67z" />
    <glyph glyph-name="comma" unicode="," horiz-adv-x="183" 
d="M55 -117l-22.001 31c11.333 10 22.333 21.667 33 35s16.667 26 18 38c-11.333 1.33301 -22.166 6.83301 -32.499 16.5s-15.5 23.167 -15.5 40.5c0 14.667 4.5 28 13.5 40s22.5 18 40.5 18c17.333 0 30.5 -6.66699 39.5 -20s13.5 -29 13.5 -47
c0 -32.667 -10.333 -63 -31 -91s-39.667 -48.333 -57 -61z" />
    <glyph glyph-name="hyphen" unicode="-" horiz-adv-x="277" 
d="M41 225v71h196v-71h-196z" />
    <glyph glyph-name="period" unicode="." horiz-adv-x="188" 
d="M94 -11c-15.333 0 -28 5 -38 15s-15 23.667 -15 41s5 31.166 15 41.499s22.667 15.5 38 15.5c16 0 28.833 -5.16699 38.5 -15.5s14.5 -24.166 14.5 -41.499s-4.83301 -31 -14.5 -41s-22.5 -15 -38.5 -15z" />
    <glyph glyph-name="slash" unicode="/" horiz-adv-x="456" 
d="M58 -23l-58 36l400 745l56 -33z" />
    <glyph glyph-name="zero" unicode="0" 
d="M257 -14c-39.333 0 -73.167 9.99805 -101.5 29.998s-51.833 46.167 -70.5 78.5s-32.5 69 -41.5 110s-13.5 82.833 -13.5 125.5c0 68.667 10.5 130.834 31.5 186.501s48.833 95.667 83.5 120s72 36.5 112 36.5c54.667 0 99.834 -19.833 135.501 -59.5
s59.667 -86.167 72 -139.5s18.5 -101.333 18.5 -144c0 -69.333 -10.667 -131.666 -32 -186.999s-49.333 -95.333 -84 -120s-71.334 -37 -110.001 -37zM256.999 56.998c35.333 0 64.3359 15.667 87.0029 47s38 68.666 46 111.999s12 81.666 12 114.999
c0 53.333 -6.66699 101.5 -20 144.5s-31.333 74.667 -54 95s-46.334 30.5 -71.001 30.5c-26 0 -48.333 -7.83301 -67 -23.5s-33.834 -36.167 -45.501 -61.5s-20.334 -54.166 -26.001 -86.499s-8.5 -65.166 -8.5 -98.499s2.83301 -66.333 8.5 -99s14.5 -62 26.5 -88
s27.167 -47 45.5 -63s40.5 -24 66.5 -24z" />
    <glyph glyph-name="one" unicode="1" 
d="M255 0v569l-143 -96l-37 55l190 132h67v-660h-77z" />
    <glyph glyph-name="two" unicode="2" 
d="M56 0v44c0 39.333 6.16699 70.333 18.5 93s35.166 49.334 68.499 80.001l88 80c58 52.667 93 90.5 105 113.5s18 48.167 18 75.5c0 38 -9.5 66.833 -28.5 86.5s-46.167 29.5 -81.5 29.5c-25.333 0 -50.166 -6 -74.499 -18s-51.833 -33.333 -82.5 -64l-38 57
c19.333 20 40.166 37.667 62.499 53s45.333 26.333 69 33s47.5 10 71.5 10c42.667 0 78.5 -9.66699 107.5 -29s49 -42.333 60 -69s16.5 -53 16.5 -79c0 -42.667 -9.5 -80.334 -28.5 -113.001s-49.833 -67.667 -92.5 -105l-96 -84c-31.333 -26.667 -52.666 -49 -63.999 -67
s-17 -37.667 -17 -59h314v-68h-396z" />
    <glyph glyph-name="three" unicode="3" 
d="M228 -13c-43.333 0 -80.999 6.16895 -112.999 18.502s-58.667 28.5 -80 48.5l33 65c24.667 -21.333 49 -37 73 -47s52.333 -15 85 -15c28 0 53 5.83301 75 17.5s38 28.667 48 51s15 46.5 15 72.5c0 37.333 -8.16699 66.666 -24.5 87.999s-36.666 35.166 -60.999 41.499
s-47.833 9.5 -70.5 9.5c-17.333 0 -40 -1.66699 -68 -5v55c22.667 33.333 53.167 71.333 91.5 114s69.5 72.667 93.5 90h-280v68h367v-78c-28 -17.333 -60 -44.833 -96 -82.5s-66 -72.5 -90 -104.5c2.66699 0.666992 9 1 19 1c43.333 0 80.5 -8.66699 111.5 -26
s53.167 -41 66.5 -71s20 -61.667 20 -95c0 -48.667 -11.833 -90.5 -35.5 -125.5s-52.334 -58.833 -86.001 -71.5s-64.834 -19 -93.501 -19z" />
    <glyph glyph-name="four" unicode="4" 
d="M326 0v168h-289v71l312 420h48v-424h69v-67h-69v-168h-71zM110 235h216v289z" />
    <glyph glyph-name="five" unicode="5" 
d="M232 -13c-31.333 0 -60.668 4.00098 -88.001 12.001s-49.666 17 -66.999 27s-29 18.667 -35 26l31 68c18 -16 40.667 -30.5 68 -43.5s58 -19.5 92 -19.5c30.667 0 57.167 6.5 79.5 19.5s38 30.833 47 53.5s13.5 47 13.5 73c0 48 -14.5 85.833 -43.5 113.5
s-72.833 41.5 -131.5 41.5c-23.333 0 -43 -1.16699 -59 -3.5s-29.667 -4.83301 -41 -7.5v312h327v-68h-256v-172c19.333 2.66699 35.333 4 48 4c72.667 0 129.5 -18.833 170.5 -56.5s61.5 -90.834 61.5 -159.501c0 -54.667 -12.167 -99.667 -36.5 -135s-53 -58.333 -86 -69
s-64.5 -16 -94.5 -16z" />
    <glyph glyph-name="six" unicode="6" 
d="M270 -13c-36 0 -67 7.5 -93 22.5s-47.333 34.833 -64 59.5s-28.834 52.834 -36.501 84.501s-11.5 64.167 -11.5 97.5c0 68 9.16699 128.5 27.5 181.5s43.5 97.5 75.5 133.5s70.333 61.833 115 77.5s91 23.5 139 23.5l15 -60c-62 0 -118.667 -16.167 -170 -48.5
s-86.666 -87.5 -105.999 -165.5c16.667 11.333 34.667 20.333 54 27s40 10 62 10c42.667 0 78.667 -12.333 108 -37s49.833 -54.334 61.5 -89.001s17.5 -67 17.5 -97s-4.5 -58.333 -13.5 -85s-21.833 -50 -38.5 -70s-37 -35.833 -61 -47.5s-51 -17.5 -81 -17.5zM271 54
c26.667 0 49.832 8.66113 69.499 25.9941s32.667 37.833 39 61.5s9.5 44.834 9.5 63.501c0 32.667 -6 61.334 -18 86.001s-28.167 42.5 -48.5 53.5s-40.5 16.5 -60.5 16.5c-22 0 -42.667 -3.66699 -62 -11s-36.666 -17 -51.999 -29c-3.33301 -19.333 -5 -42.666 -5 -69.999
c0 -21.333 2 -43.666 6 -66.999s11 -44.666 21 -63.999s23.167 -35.166 39.5 -47.499s36.833 -18.5 61.5 -18.5z" />
    <glyph glyph-name="seven" unicode="7" 
d="M152 0c5.33301 70.667 20.332 145.167 44.999 223.5s54.334 148.166 89.001 209.499s69 114 103 158h-333v68h414v-68c-71.333 -94 -126.5 -190.667 -165.5 -290s-63.167 -199.666 -72.5 -300.999h-80z" />
    <glyph glyph-name="eight" unicode="8" 
d="M257 -13c-24.667 0 -48.9941 3.99805 -72.9941 11.998s-45.333 20.167 -64 36.5s-33.834 36.666 -45.501 60.999s-17.5 52.5 -17.5 84.5c0 34.667 7.5 66.334 22.5 95.001s37.833 51.334 68.5 68.001c-24.667 17.333 -44.334 39.333 -59.001 66s-22 55 -22 85
c0 42.667 11.667 78.334 35 107.001s49.166 47.667 77.499 57s54.166 14 77.499 14c38 0 72.167 -8.66699 102.5 -26s52.166 -39 65.499 -65s20 -53.333 20 -82c0 -32 -7.16699 -61.167 -21.5 -87.5s-33.5 -48.833 -57.5 -67.5c29.333 -15.333 51.5 -37.833 66.5 -67.5
s22.5 -61.5 22.5 -95.5c0 -48 -12 -87.5 -36 -118.5s-50.833 -51.5 -80.5 -61.5s-56.834 -15 -81.501 -15zM257.006 55.998c25.333 0 48.002 5.83301 68.002 17.5s34.5 27 43.5 46s13.5 39.167 13.5 60.5c0 29.333 -7.5 54.5 -22.5 75.5s-32.333 35.5 -52 43.5
s-36.834 12 -51.501 12c-25.333 0 -48.333 -6.83301 -69 -20.5s-35.334 -30.167 -44.001 -49.5s-13 -39 -13 -59c0 -30 7.66699 -55.167 23 -75.5s32.5 -33.833 51.5 -40.5s36.5 -10 52.5 -10zM256.008 375.998c22.667 0 43.499 6.33398 62.499 19.001s32.5 27.667 40.5 45
s12 35.666 12 54.999c0 26.667 -6.66699 48.667 -20 66s-29 29.166 -47 35.499s-33.667 9.5 -47 9.5c-23.333 0 -44.666 -5.66699 -63.999 -17s-32.833 -25.166 -40.5 -41.499s-11.5 -33.833 -11.5 -52.5c0 -19.333 3.33301 -36.5 10 -51.5s15.5 -27.5 26.5 -37.5
s23.333 -17.5 37 -22.5s27.5 -7.5 41.5 -7.5z" />
    <glyph glyph-name="nine" unicode="9" 
d="M125 -9c-12 0 -19.9951 0.331055 -23.9951 0.998047l9 66c3.33301 0 6.16602 -0.166992 8.49902 -0.5s5.16602 -0.5 8.49902 -0.5c40 0 76.667 8.33301 110 25s60.166 41.834 80.499 75.501s35.166 70.167 44.499 109.5c-16.667 -11.333 -34.667 -20.333 -54 -27
s-40 -10 -62 -10c-30 0 -56.5 6 -79.5 18s-42.5 28.333 -58.5 49s-28.167 44.334 -36.5 71.001s-12.5 55 -12.5 85c0 46.667 10 87.5 30 122.5s44.833 60 74.5 75s59.5 22.5 89.5 22.5c50 0 91.167 -14.833 123.5 -44.5s54 -65.5 65 -107.5s16.5 -79.333 16.5 -112
c0 -68 -8.5 -128.167 -25.5 -180.5s-40.333 -96 -70 -131s-64.834 -61.5 -105.501 -79.5s-84.667 -27 -132 -27zM261.005 298.998c22 0 42.667 3.66699 62 11s36.666 17 51.999 29c3.33301 18.667 5 42 5 70c0 37.333 -4.83301 71.166 -14.5 101.499s-25 53.833 -46 70.5
s-43.5 25 -67.5 25c-29.333 0 -53.5 -9.5 -72.5 -28.5s-31.333 -39.5 -37 -61.5s-8.5 -42.333 -8.5 -61c0 -21.333 2.66699 -41.333 8 -60s13.333 -35.167 24 -49.5s23.834 -25.666 39.501 -33.999s34.167 -12.5 55.5 -12.5z" />
    <glyph glyph-name="colon" unicode=":" horiz-adv-x="188" 
d="M94 364c-15.333 0 -28 5 -38 15s-15 23.667 -15 41s5 31.166 15 41.499s22.667 15.5 38 15.5c16 0 28.833 -5.16699 38.5 -15.5s14.5 -24.166 14.5 -41.499s-4.83301 -31 -14.5 -41s-22.5 -15 -38.5 -15zM94 -11c-15.333 0 -28 5 -38 15s-15 23.667 -15 41
s5 31.166 15 41.499s22.667 15.5 38 15.5c16 0 28.833 -5.16699 38.5 -15.5s14.5 -24.166 14.5 -41.499s-4.83301 -31 -14.5 -41s-22.5 -15 -38.5 -15z" />
    <glyph glyph-name="semicolon" unicode=";" horiz-adv-x="194" 
d="M55 -117l-22.001 31c11.333 10 22.333 21.667 33 35s16.667 26 18 38c-11.333 1.33301 -22.166 6.83301 -32.499 16.5s-15.5 23.167 -15.5 40.5c0 14.667 4.5 28 13.5 40s22.5 18 40.5 18c17.333 0 30.5 -6.66699 39.5 -20s13.5 -29 13.5 -47
c0 -32.667 -10.333 -63 -31 -91s-39.667 -48.333 -57 -61zM105.999 364c-15.333 0 -28 5 -38 15s-15 23.667 -15 41s5 31.166 15 41.499s22.667 15.5 38 15.5c16 0 28.833 -5.16699 38.5 -15.5s14.5 -24.166 14.5 -41.499s-4.83301 -31 -14.5 -41s-22.5 -15 -38.5 -15z" />
    <glyph glyph-name="less" unicode="&#x3c;" 
d="M452 138l-401 166v58l388 156l27 -67l-294 -116l307 -125z" />
    <glyph glyph-name="equal" unicode="=" 
d="M32 148v70h449v-70h-449zM32 373v69h449v-69h-449z" />
    <glyph glyph-name="greater" unicode="&#x3e;" 
d="M77 138l-26 72l307 125l-295 116l28 67l388 -156v-58z" />
    <glyph glyph-name="question" unicode="?" horiz-adv-x="352" 
d="M166 -11c-14.667 0 -26.834 4.83301 -36.501 14.5s-14.5 22.834 -14.5 39.501s4.83301 30 14.5 40s21.834 15 36.501 15c15.333 0 27.666 -5 36.999 -15s14 -23.333 14 -40s-4.66699 -29.834 -14 -39.501s-21.666 -14.5 -36.999 -14.5zM131 184v42
c0 31.333 7.33301 58.333 22 81s30.667 43.667 48 63c22 24 39.167 45.333 51.5 64s18.5 42 18.5 70c0 34 -8.66699 60 -26 78s-42 27 -74 27c-28.667 0 -53.667 -8.83301 -75 -26.5s-40.333 -39.167 -57 -64.5l-50 38c23.333 41.333 51.5 71.166 84.5 89.499
s66.5 27.5 100.5 27.5c56.667 0 99.5 -15.167 128.5 -45.5s43.5 -70.5 43.5 -120.5c0 -34 -6.66699 -62.667 -20 -86s-31 -47 -53 -71c-30 -32.667 -49.5 -57.667 -58.5 -75s-13.5 -35.666 -13.5 -54.999v-36h-70z" />
    <glyph glyph-name="at" unicode="@" horiz-adv-x="737" 
d="M437 -157c-54.667 0 -101.995 6.33008 -141.995 18.9971s-74.333 29.667 -103 51s-52.167 45.666 -70.5 72.999s-32.833 55.333 -43.5 84s-18 57.334 -22 86.001s-6 54.667 -6 78c0 56.667 7.66699 110.334 23 161.001s37.833 94.834 67.5 132.501s66.667 67.5 111 89.5
s95.5 33 153.5 33c68 0 121.167 -13.333 159.5 -40s63 -56.334 74 -89.001s16.5 -61 16.5 -85v-403h-73v29c-13.333 -11.333 -31 -20.833 -53 -28.5s-45 -11.5 -69 -11.5c-26 0 -49.833 5.16699 -71.5 15.5s-40.334 25 -56.001 44s-28 41.667 -37 68s-13.5 55.5 -13.5 87.5
c0 47.333 9.5 87.5 28.5 120.5s42.333 55.833 70 68.5s54.167 19 79.5 19c26.667 0 50 -3.5 70 -10.5s37.333 -15.167 52 -24.5v21c0 48 -14.333 86 -43 114s-73.334 42 -134.001 42c-48.667 0 -90.667 -9.83301 -126 -29.5s-64.333 -45.667 -87 -78
s-39.334 -69.833 -50.001 -112.5s-16 -87 -16 -133c0 -36.667 4.83301 -74.667 14.5 -114s28.167 -75.666 55.5 -108.999s63.166 -58 107.499 -74s92.5 -24.333 144.5 -25c54.667 0 100.667 4.83301 138 14.5s68.666 19.834 93.999 30.501l17 -70
c-31.333 -14 -73 -24.833 -125 -32.5s-97 -11.5 -135 -11.5zM460.005 83.9971c26 0 49 3.33398 69 10.001s37.333 15.667 52 27v231c-38 20.667 -76.667 31 -116 31c-34.667 0 -61.5 -12.667 -80.5 -38s-28.5 -60 -28.5 -104c0 -21.333 2.33301 -41.333 7 -60
s11.5 -35.334 20.5 -50.001s20 -26.167 33 -34.5s27.5 -12.5 43.5 -12.5z" />
    <glyph glyph-name="A" unicode="A" horiz-adv-x="540" 
d="M0 0l237 667h62l241 -667h-83l-75 206h-232l-70 -206h-80zM175 277h182l-92 276z" />
    <glyph glyph-name="B" unicode="B" horiz-adv-x="510" 
d="M77 0v666.999h180c64 0 112 -15.333 144 -46s48 -72 48 -124c0 -42.667 -11.5 -75.5 -34.5 -98.5s-52.5 -37.833 -88.5 -44.5c30.667 -4 58 -13.167 82 -27.5s42.333 -33.833 55 -58.5s19 -52 19 -82c0 -43.333 -9.66699 -79.666 -29 -108.999s-43.5 -49.5 -72.5 -60.5
s-56.833 -16.5 -83.5 -16.5h-220zM153 68.999h141c32 0 57.833 9.83301 77.5 29.5s29.5 49.5 29.5 89.5c0 84.667 -49 127 -147 127h-101v-246zM153 383.999h98c38 0 67.333 10.667 88 32s31 49.333 31 84c0 65.333 -36.667 98 -110 98h-107v-214z" />
    <glyph glyph-name="C" unicode="C" horiz-adv-x="541" 
d="M311 -13c-37.333 0 -71.999 6.50195 -103.999 19.502s-59.833 33.333 -83.5 61s-42.334 63.167 -56.001 106.5s-20.5 95.666 -20.5 156.999c0 86 15 157 45 213s65.167 92.667 105.5 110s76.833 26 109.5 26c46 0 85.333 -9.66699 118 -29s61.334 -50 86.001 -92l-56 -46
c-17.333 24 -32.333 42 -45 54s-28.667 21.667 -48 29s-38.333 11 -57 11c-56 0 -99.667 -24 -131 -72s-47 -116.333 -47 -205c0 -43.333 4.83301 -81.833 14.5 -115.5s22.667 -62 39 -85s35.833 -40.333 58.5 -52s47 -17.5 73 -17.5c38.667 0 70 6 94 18s47 28.667 69 50
l28 -72c-24.667 -24.667 -55.834 -42.334 -93.501 -53.001s-70.5 -16 -98.5 -16z" />
    <glyph glyph-name="D" unicode="D" horiz-adv-x="581" 
d="M77 0l0.000976562 667h163c25.333 0 51.166 -2.16699 77.499 -6.5s50.833 -12.166 73.5 -23.499c34.667 -18 64 -41.833 88 -71.5s41.333 -64.667 52 -105s16 -79.5 16 -117.5c0 -64.667 -9.5 -120.334 -28.5 -167.001s-44.667 -83.667 -77 -111s-64.5 -45 -96.5 -53
s-67 -12 -105 -12h-163zM153.001 69h78.001c40 0 72 4.66699 96 14c28 12.667 53.5 31.5 76.5 56.5s39.167 55.167 48.5 90.5s14 71.666 14 108.999c0 58 -8.33301 104.667 -25 140s-39.667 63 -69 83c-18.667 12.667 -40.334 21.834 -65.001 27.501s-48.667 8.5 -72 8.5
h-82v-529z" />
    <glyph glyph-name="E" unicode="E" horiz-adv-x="488" 
d="M77 0v667h370v-69h-294v-214h210v-69h-211v-246h317v-69h-392z" />
    <glyph glyph-name="F" unicode="F" horiz-adv-x="438" 
d="M77 0v667h359v-69h-283v-225h209v-69h-210v-304h-75z" />
    <glyph glyph-name="G" unicode="G" horiz-adv-x="567" 
d="M317 -13c-37.333 0 -72.334 6.50195 -105.001 19.502s-61.167 33.333 -85.5 61s-43.666 63.167 -57.999 106.5s-21.5 95.666 -21.5 156.999c0 88.667 14.667 160.5 44 215.5s63.5 91 102.5 108s75.167 25.5 108.5 25.5c28.667 0 53.667 -3 75 -9s40.333 -14.333 57 -25
s31.167 -23.334 43.5 -38.001s23.5 -30.667 33.5 -48l-56 -47c-19.333 29.333 -40 52.666 -62 69.999s-50 26 -84 26c-40 0 -74.667 -12.833 -104 -38.5s-49.666 -60 -60.999 -103s-17 -88.833 -17 -137.5c0 -43.333 5.16699 -82 15.5 -116s24.166 -62.667 41.499 -86
s37.5 -41 60.5 -53s47.5 -18 73.5 -18c28.667 0 53.5 1.83301 74.5 5.5s38.167 7.83398 51.5 12.501v174h-105v70h181v-294c-18.667 -8.66699 -46.167 -17.167 -82.5 -25.5s-76.5 -12.5 -120.5 -12.5z" />
    <glyph glyph-name="H" unicode="H" horiz-adv-x="622" 
d="M77 0v667h76v-289h317v289h75v-667h-75v307h-317v-307h-76z" />
    <glyph glyph-name="I" unicode="I" horiz-adv-x="230" 
d="M77 0v667h76v-667h-76z" />
    <glyph glyph-name="J" unicode="J" horiz-adv-x="348" 
d="M120 -11c-32 0 -58.167 3.5 -78.5 10.5s-35.5 13.833 -45.5 20.5l25 68c6 -6.66699 18.333 -13.5 37 -20.5s38 -10.5 58 -10.5c29.333 0 51.833 8 67.5 24s23.5 44.667 23.5 86v500h76v-507c0 -58 -14 -101 -42 -129s-68.333 -42 -121 -42z" />
    <glyph glyph-name="K" unicode="K" horiz-adv-x="541" 
d="M435 0l-85.002 207.001c-16.667 38 -28.667 62.167 -36 72.5s-17 18.166 -29 23.499s-25 8 -39 8h-93v-310h-76v666h76v-291h81c18.667 0 34.834 4.5 48.501 13.5s27.5 29.167 41.5 60.5l95 217h82l-101 -226c-10.667 -23.333 -21.667 -41.833 -33 -55.5
s-23.666 -23.167 -36.999 -28.5c19.333 -5.33301 34.5 -14.333 45.5 -27s21.167 -30.667 30.5 -54l110 -276h-81z" />
    <glyph glyph-name="L" unicode="L" horiz-adv-x="466" 
d="M77 0v667h76v-598h294v-69h-370z" />
    <glyph glyph-name="M" unicode="M" horiz-adv-x="714" 
d="M327 -11l-174 529l-23 -518h-66l29 667h89l174 -545l181 545h88l28 -667h-73l-23 515l-180 -526h-50z" />
    <glyph glyph-name="N" unicode="N" horiz-adv-x="625" 
d="M77 0v667h77l319 -497v497h75v-667h-56l-340 529v-529h-75z" />
    <glyph glyph-name="O" unicode="O" horiz-adv-x="628" 
d="M314 -13c-46.667 0 -86.8291 10 -120.496 30s-61.334 46.167 -83.001 78.5s-37.667 69.333 -48 111s-15.5 84.167 -15.5 127.5c0 69.333 12 132 36 188s56.667 96.333 98 121s85.666 37 132.999 37c66 0 120 -20 162 -60s70 -86.833 84 -140.5s21 -102.167 21 -145.5
s-5.16699 -85.833 -15.5 -127.5s-26.333 -78.667 -48 -111s-49.334 -58.5 -83.001 -78.5s-73.834 -30 -120.501 -30zM314.005 58c45.333 0 83.335 16.3301 114.002 48.9971s50.667 70 60 112s14 80.333 14 115c0 54.667 -8.33301 103.834 -25 147.501
s-39.834 75.834 -69.501 96.501s-60.834 31 -93.501 31c-46.667 0 -85 -16.167 -115 -48.5s-49.667 -69.666 -59 -111.999s-14 -80.5 -14 -114.5c0 -34.667 3.83301 -68.5 11.5 -101.5s19.167 -62.5 34.5 -88.5s34.833 -46.833 58.5 -62.5s51.5 -23.5 83.5 -23.5z" />
    <glyph glyph-name="P" unicode="P" horiz-adv-x="507" 
d="M77 0v667h198c72.667 0 126.5 -17 161.5 -51s52.5 -84.333 52.5 -151c0 -64.667 -18.5 -113.667 -55.5 -147s-90.833 -50 -161.5 -50h-119v-268h-76zM153 338h124c38.667 0 70.167 10 94.5 30s36.5 53 36.5 99s-11.5 79.333 -34.5 100s-55.5 31 -97.5 31h-123v-260z" />
    <glyph glyph-name="Q" unicode="Q" horiz-adv-x="628" 
d="M599 -33c-28 36 -61.6641 70.333 -100.997 103c-21.333 -25.333 -47.333 -45.5 -78 -60.5s-66 -22.5 -106 -22.5c-46.667 0 -86.834 10 -120.501 30s-61.334 46.167 -83.001 78.5s-37.667 69.333 -48 111s-15.5 84.167 -15.5 127.5c0 69.333 12 132 36 188
s56.667 96.333 98 121s85.666 37 132.999 37c66 0 120 -20 162 -60s70 -86.833 84 -140.5s21 -102.167 21 -145.5c0 -36.667 -3.5 -72.5 -10.5 -107.5s-18.167 -67.5 -33.5 -97.5c40.667 -30.667 78.667 -69.667 114 -117zM314.003 58
c25.333 0 47.835 4.83203 67.502 14.499s37.167 23.167 52.5 40.5c-34.667 19.333 -75.334 36.666 -122.001 51.999l22 66c52.667 -16.667 98.334 -36.334 137.001 -59.001c10.667 23.333 18.5 48.833 23.5 76.5s7.5 56.167 7.5 85.5c0 54.667 -8.33301 103.834 -25 147.501
s-39.834 75.834 -69.501 96.501s-60.834 31 -93.501 31c-46.667 0 -85 -16.167 -115 -48.5s-49.667 -69.666 -59 -111.999s-14 -80.5 -14 -114.5c0 -34.667 3.83301 -68.5 11.5 -101.5s19.167 -62.5 34.5 -88.5s34.833 -46.833 58.5 -62.5s51.5 -23.5 83.5 -23.5z" />
    <glyph glyph-name="R" unicode="R" horiz-adv-x="551" 
d="M77 0v666.999h203c70.667 0 122.834 -16.667 156.501 -50s50.5 -77.333 50.5 -132c0 -34.667 -7.16699 -64.667 -21.5 -90s-30 -43.166 -47 -53.499s-30.167 -16.833 -39.5 -19.5c22.667 -8 39.667 -21.5 51 -40.5s21 -43.167 29 -72.5l14 -49.5l16 -56.5l27 -103h-78
l-27 104c-12.667 48 -26.667 90.333 -42 127c-8.66699 18 -16.334 30.667 -23.001 38s-16.5 13 -29.5 17s-26.167 6 -39.5 6h-124v-292h-76zM153 360.999h123.001c88 0 132 41.333 132 124c0 38 -10.833 66.333 -32.5 85s-52.834 28 -93.501 28h-129v-237z" />
    <glyph glyph-name="S" unicode="S" horiz-adv-x="490" 
d="M237 -14c-22 0 -43.167 1.99805 -63.5 5.99805s-39 9.33301 -56 16s-32.167 13.834 -45.5 21.501s-24.666 15.5 -33.999 23.5l33 71c24.667 -20.667 50.667 -37 78 -49s57.666 -18 90.999 -18c28 0 52.667 5 74 15s36.666 24.167 45.999 42.5s14 37.833 14 58.5
c0 32.667 -11.5 58.667 -34.5 78s-61.167 39.333 -114.5 60c-39.333 14 -72.666 30.333 -99.999 49s-46.833 39.834 -58.5 63.501s-17.5 49.5 -17.5 77.5c0 42 11.833 77.5 35.5 106.5s50.834 48.167 81.501 57.5s59.334 14 86.001 14
c41.333 0 79.666 -7.83301 114.999 -23.5s64.666 -37.5 87.999 -65.5l-37 -58c-47.333 50.667 -104 76 -170 76c-37.333 0 -66.333 -8.83301 -87 -26.5s-31 -42.167 -31 -73.5c0 -25.333 7 -46.166 21 -62.499s32.667 -30 56 -41s47.333 -21.167 72 -30.5
c45.333 -18.667 80.333 -36.334 105 -53.001s42.667 -37 54 -61s17 -50.333 17 -79c0 -49.333 -12 -89.5 -36 -120.5s-53 -51 -87 -60s-65.667 -13.833 -95 -14.5z" />
    <glyph glyph-name="T" unicode="T" horiz-adv-x="485" 
d="M205 0v598h-196v69h468v-69h-197v-598h-75z" />
    <glyph glyph-name="U" unicode="U" horiz-adv-x="615" 
d="M305 -13c-50.667 0 -94.667 11.334 -132 34.001s-63.333 52.167 -78 88.5s-22 74.166 -22 113.499v444h76v-429c0 -56.667 13.833 -100.834 41.5 -132.501s66.5 -47.5 116.5 -47.5s89 15.333 117 46s42 75.334 42 134.001v429h76v-444c0 -56 -13.333 -103 -40 -141
s-58.5 -63.167 -95.5 -75.5s-70.833 -18.833 -101.5 -19.5z" />
    <glyph glyph-name="V" unicode="V" horiz-adv-x="527" 
d="M230 0l-230 667h84l182 -550l181 550h80l-227 -667h-70z" />
    <glyph glyph-name="W" unicode="W" horiz-adv-x="713" 
d="M148 0l-148 667h77l108 -521l151 521h56l135 -517l109 517h77l-154 -667h-58l-141 517l-152 -517h-60z" />
    <glyph glyph-name="X" unicode="X" horiz-adv-x="490" 
d="M0 0l197 342l-180 325h92l136 -262l139 262h87l-180 -319l199 -348h-95l-152 286l-156 -286h-87z" />
    <glyph glyph-name="Y" unicode="Y" horiz-adv-x="516" 
d="M216 0v320l-216 347h86l170 -270l177 270h83l-224 -346v-321h-76z" />
    <glyph glyph-name="Z" unicode="Z" horiz-adv-x="508" 
d="M36 0v74l357 524h-341v69h411v-86l-348 -512h362v-69h-441z" />
    <glyph glyph-name="bracketleft" unicode="[" horiz-adv-x="217" 
d="M67 -143v879h140v-63h-72v-752h72v-64h-140z" />
    <glyph glyph-name="backslash" unicode="\" horiz-adv-x="449" 
d="M390 -11l-390 736l62 36l387 -731z" />
    <glyph glyph-name="bracketright" unicode="]" horiz-adv-x="217" 
d="M10 -143v64h72v752h-72v63h140v-879h-140z" />
    <glyph glyph-name="asciicircum" unicode="^" horiz-adv-x="477" 
d="M125 292l-67 26l151 351h55l155 -337l-65 -29l-118 257z" />
    <glyph glyph-name="underscore" unicode="_" horiz-adv-x="500" 
d="M0 -220v70h500v-70h-500z" />
    <glyph glyph-name="grave" unicode="`" horiz-adv-x="420" 
d="M279 544l-173 124l49 52l159 -139z" />
    <glyph glyph-name="a" unicode="a" horiz-adv-x="447" 
d="M191 -11c-20 0 -39.1641 3.16699 -57.4971 9.5s-34.833 15.666 -49.5 27.999s-26.334 27.833 -35.001 46.5s-13 40.334 -13 65.001c0 46.667 17 83.5 51 110.5s72.333 44 115 51s79 10.5 109 10.5v6c0 40 -8.16699 68.667 -24.5 86s-39.5 26 -69.5 26
c-21.333 0 -43 -4.16699 -65 -12.5s-43.333 -20.833 -64 -37.5l-24 56c17.333 13.333 38.666 25.833 63.999 37.5s57 17.5 95 17.5c50.667 0 90.167 -13.667 118.5 -41s42.5 -73 42.5 -137v-311h-67l-3 41c-16 -16.667 -34.333 -29.5 -55 -38.5s-43.334 -13.5 -68.001 -13.5
zM200.003 52c22 0 42.168 4.83301 60.501 14.5s35.166 21.167 50.499 34.5v148c-42.667 -1.33301 -79.5 -5.83301 -110.5 -13.5s-53.833 -20 -68.5 -37s-22 -37.5 -22 -61.5c0 -21.333 6.16699 -39.333 18.5 -54s24.833 -23.5 37.5 -26.5s24 -4.5 34 -4.5z" />
    <glyph glyph-name="b" unicode="b" horiz-adv-x="498" 
d="M228 -11c-34.667 0 -65.665 3.83203 -92.998 11.499s-50.333 15.834 -69 24.501v642h73v-205c19.333 9.33301 38.166 16 56.499 20s36.166 6 53.499 6c43.333 0 81.5 -12 114.5 -36s56.333 -55.5 70 -94.5s20.5 -78.833 20.5 -119.5c0 -57.333 -12.5 -106 -37.5 -146
s-54.667 -67.167 -89 -81.5s-67.5 -21.5 -99.5 -21.5zM218.002 49.999c51.333 0 91.667 17.1631 121 51.4961s44 80.5 44 138.5c0 42.667 -8 78.334 -24 107.001s-35.333 48.834 -58 60.501s-44.334 17.5 -65.001 17.5c-15.333 0 -31.166 -2.16699 -47.499 -6.5
s-32.833 -12.166 -49.5 -23.499v-327c11.333 -5.33301 24 -9.66602 38 -12.999s27.667 -5 41 -5z" />
    <glyph glyph-name="c" unicode="c" horiz-adv-x="450" 
d="M255 -11c-27.333 0 -53.665 5 -78.998 15s-47.666 25.333 -66.999 46s-35 46.5 -47 77.5s-18 67.5 -18 109.5c0 63.333 12.333 115.166 37 155.499s52.667 66.5 84 78.5s59.666 18 84.999 18c33.333 0 62.666 -6.5 87.999 -19.5s43.833 -27.167 55.5 -42.5
s20.167 -27.666 25.5 -36.999l-51 -38c-14.667 22.667 -30.5 40.834 -47.5 54.501s-40.167 20.5 -69.5 20.5c-28 0 -53 -9.5 -75 -28.5s-37.5 -42.833 -46.5 -71.5s-13.5 -58 -13.5 -88s3.83301 -56.667 11.5 -80s18 -43 31 -59s28.167 -28.167 45.5 -36.5
s35.666 -12.5 54.999 -12.5c30.667 0 56.167 4.66699 76.5 14s38.5 21.666 54.5 36.999l21 -63c-17.333 -15.333 -39.833 -27.5 -67.5 -36.5s-57.167 -13.5 -88.5 -13.5z" />
    <glyph glyph-name="d" unicode="d" horiz-adv-x="498" 
d="M245 -11c-32 0 -60.499 6.50098 -85.499 19.501s-46 30.833 -63 53.5s-30 49.5 -39 80.5s-13.5 64.5 -13.5 100.5c0 50 10.667 95 32 135s48.333 68.5 81 85.5s67.334 25.5 104.001 25.5c23.333 0 43.166 -1.83301 59.499 -5.5s30.166 -7.83398 41.499 -12.501v196h73
v-667h-67l-6 39c-16.667 -18 -34.5 -30.833 -53.5 -38.5s-40.167 -11.5 -63.5 -11.5zM257.001 51.001c19.333 0 38 4.16797 56 12.501s34.333 22.166 49 41.499v299c-12 6.66699 -27 12.167 -45 16.5s-32.667 6.5 -44 6.5c-37.333 0 -69 -11 -95 -33
s-42.833 -47.5 -50.5 -76.5s-11.5 -55.167 -11.5 -78.5c0 -42 6.83301 -78.333 20.5 -109s31.167 -51.5 52.5 -62.5s44 -16.5 68 -16.5z" />
    <glyph glyph-name="e" unicode="e" horiz-adv-x="483" 
d="M266 -11c-68 0 -121.998 21.5 -161.998 64.5s-60 105.5 -60 187.5c0 54.667 10.167 102 30.5 142s46.166 67.667 77.499 83s62.666 23 93.999 23c47.333 0 86.666 -12.333 117.999 -37s52.833 -56.667 64.5 -96s17.5 -77 17.5 -113h-330c0 -60 13 -107 39 -141
s63.667 -51 113 -51c29.333 0 55.333 5 78 15s43 22.667 61 38l19 -63c-14.667 -14.667 -37.167 -27 -67.5 -37s-61.166 -15 -92.499 -15zM123.002 304h240c-1.33301 27.333 -8.5 51 -21.5 71s-28.833 33.833 -47.5 41.5s-34.667 11.5 -48 11.5c-30 0 -56 -9.5 -78 -28.5
s-37 -50.833 -45 -95.5z" />
    <glyph glyph-name="f" unicode="f" horiz-adv-x="278" 
d="M86 0v413.998h-67v63h67v35c0 42.667 7.16699 77.334 21.5 104.001s32.333 44 54 52s42.5 12 62.5 12c28 0 54.667 -4.66699 80 -14l-7 -64c-9.33301 4.66699 -20 8.16699 -32 10.5s-23.667 3.5 -35 3.5c-31.333 0 -51 -9.66699 -59 -29s-12 -44.666 -12 -75.999v-34h108
v-63h-107v-414h-74z" />
    <glyph glyph-name="g" unicode="g" horiz-adv-x="498" 
d="M226 -198c-27.333 0 -57.665 3.99902 -90.998 11.999s-56.333 16 -69 24l17 67c18 -10.667 38.667 -19.834 62 -27.501s50 -11.5 80 -11.5c48 0 82.833 11.833 104.5 35.5s32.5 55.834 32.5 96.501v47c-16.667 -18 -34.5 -30.833 -53.5 -38.5s-40.167 -11.5 -63.5 -11.5
c-32 0 -60.5 6.16699 -85.5 18.5s-46 29.5 -63 51.5s-30 48.167 -39 78.5s-13.5 63.5 -13.5 99.5c0 30.667 4.66699 60.834 14 90.501s23.5 56 42.5 79s42.833 41.5 71.5 55.5s62.667 21 102 21c25.333 0 52.166 -2.5 80.499 -7.5s55.166 -12.5 80.499 -22.5v-461
c0 -44.667 -9.83301 -82 -29.5 -112s-46 -51.5 -79 -64.5s-66.5 -19.5 -100.5 -19.5zM257.001 56.999c19.333 0 38.001 4.16797 56.001 12.501s34.333 22.166 49 41.499v301c-26 10 -55.667 15 -89 15c-37.333 0 -69 -11 -95 -33s-42.833 -47.5 -50.5 -76.5
s-11.5 -55.167 -11.5 -78.5c0 -40.667 6.66699 -76 20 -106s30.666 -50.167 51.999 -60.5s44.333 -15.5 69 -15.5z" />
    <glyph glyph-name="h" unicode="h" horiz-adv-x="512" 
d="M66 0v667.002h73v-228c18.667 14 39.5 25.833 62.5 35.5s49.167 14.5 78.5 14.5c61.333 0 104.833 -16.333 130.5 -49s38.5 -80.334 38.5 -143.001v-297h-74v298c0 44 -8.5 76.5 -25.5 97.5s-44.5 31.5 -82.5 31.5c-24 0 -47.167 -5.83301 -69.5 -17.5
s-41.833 -23.834 -58.5 -36.501v-373h-73z" />
    <glyph glyph-name="i" unicode="i" horiz-adv-x="205" 
d="M66 0v477h74v-477h-74zM103 561c-13.333 0 -24.833 4.16699 -34.5 12.5s-14.5 20.5 -14.5 36.5c0 15.333 4.83301 27.333 14.5 36s21.167 13 34.5 13s24.666 -4.33301 33.999 -13s14 -20.667 14 -36c0 -16 -4.66699 -28.167 -14 -36.5s-20.666 -12.5 -33.999 -12.5z" />
    <glyph glyph-name="j" unicode="j" horiz-adv-x="205" 
d="M31 -197l-29 60.001c30.667 22 49 41.5 55 58.5s9 37.5 9 61.5v494h74v-492c0 -46.667 -9.16699 -83.834 -27.5 -111.501s-45.5 -51.167 -81.5 -70.5zM103 561.001c-13.333 0 -24.833 4.16699 -34.5 12.5s-14.5 20.5 -14.5 36.5c0 15.333 4.83301 27.333 14.5 36
s21.167 13 34.5 13s24.666 -4.33301 33.999 -13s14 -20.667 14 -36c0 -16 -4.66699 -28.167 -14 -36.5s-20.666 -12.5 -33.999 -12.5z" />
    <glyph glyph-name="k" unicode="k" horiz-adv-x="450" 
d="M66 0l-0.000976562 666.997h73v-367h49c18.667 0 35.334 4.83301 50.001 14.5s29 30.167 43 61.5l44 101h79l-50 -110c-10.667 -23.333 -21.667 -42.666 -33 -57.999s-23.666 -25.666 -36.999 -30.999c18.667 -5.33301 33.667 -13.5 45 -24.5
s21.666 -28.167 30.999 -51.5l80 -202h-81l-54 133c-15.333 34.667 -26.666 57.834 -33.999 69.501s-17.333 20.167 -30 25.5s-26.334 8 -41.001 8h-61v-236h-73z" />
    <glyph glyph-name="l" unicode="l" horiz-adv-x="248" 
d="M163 -9c-39.333 0 -66.334 11.001 -81.001 33.001s-22 56 -22 102v541h73v-553c0 -22 3.33301 -37.833 10 -47.5s17 -14.5 31 -14.5c12.667 0 28.334 4.66699 47.001 14l17 -57c-8.66699 -4.66699 -19.5 -8.83398 -32.5 -12.501s-27.167 -5.5 -42.5 -5.5z" />
    <glyph glyph-name="m" unicode="m" horiz-adv-x="787" 
d="M66 0l0.00195312 477h67l5 -38c15.333 11.333 35 22.5 59 33.5s50.333 16.5 79 16.5c24 0 47.167 -4.33301 69.5 -13s41.166 -24.667 56.499 -48c19.333 16.667 42.5 31 69.5 43s56.833 18 89.5 18c46.667 0 82 -9.66699 106 -29s39.5 -44.833 46.5 -76.5
s10.5 -63.5 10.5 -95.5v-288h-74v298c0 40 -7.33301 71.167 -22 93.5s-41.334 33.5 -80.001 33.5c-24 0 -48 -6 -72 -18s-42.333 -23.667 -55 -35c6 -20.667 9 -48.667 9 -84v-288h-73v298c0 27.333 -3.66699 51 -11 71s-18.666 34.333 -33.999 43s-32 13 -50 13
c-22 0 -43.833 -5.83301 -65.5 -17.5s-40.834 -23.5 -57.501 -35.5v-372h-73z" />
    <glyph glyph-name="n" unicode="n" horiz-adv-x="514" 
d="M66 0l0.000976562 477h67l5 -38c18.667 14.667 40.334 26.667 65.001 36s50.667 14 78 14c62.667 0 106.667 -16 132 -48s38 -80 38 -144v-297h-73v299c0 40 -8.5 71.333 -25.5 94s-44.833 34 -83.5 34c-24.667 0 -48.334 -5.5 -71.001 -16.5
s-42.334 -23.167 -59.001 -36.5v-374h-73z" />
    <glyph glyph-name="o" unicode="o" horiz-adv-x="509" 
d="M255 -11c-35.333 0 -66.1641 7.16699 -92.4971 21.5s-48.166 33.333 -65.499 57s-30.5 50.667 -39.5 81s-13.5 61.166 -13.5 92.499c0 47.333 9.66699 91.666 29 132.999s45.666 70.833 78.999 88.5s67.666 26.5 102.999 26.5c49.333 0 90.666 -14.167 123.999 -42.5
s56.166 -62.166 68.499 -101.499s18.5 -74.666 18.5 -105.999c0 -49.333 -10.5 -95 -31.5 -137s-47.5 -71.333 -79.5 -88s-65.333 -25 -100 -25zM255.002 51c31.333 0 58.3359 10.668 81.0029 32.001s38 47 46 77s12 56.667 12 80c0 36.667 -6.83301 70.5 -20.5 101.5
s-31.167 53.167 -52.5 66.5s-43.333 20 -66 20c-34 0 -62.333 -11.333 -85 -34s-37.334 -48 -44.001 -76s-10 -53.667 -10 -77c0 -38 6.66699 -72.833 20 -104.5s30.666 -53.834 51.999 -66.501s43.666 -19 66.999 -19z" />
    <glyph glyph-name="p" unicode="p" horiz-adv-x="498" 
d="M66 -189v666h66l6 -35c19.333 16.667 39.833 28.667 61.5 36s44.834 11 69.501 11c48 0 86.5 -14 115.5 -42s47.833 -60.833 56.5 -98.5s13 -72.5 13 -104.5c0 -57.333 -12.167 -106.666 -36.5 -147.999s-53.833 -69.333 -88.5 -84s-68.334 -22.334 -101.001 -23.001
c-36 0 -65.667 5.33301 -89 16v-194h-73zM214 51c36 0 67.333 9.16406 94 27.4971s45.5 42.5 56.5 72.5s16.5 60 16.5 90c0 36.667 -5.5 69.834 -16.5 99.501s-26.667 51.5 -47 65.5s-42.833 21 -67.5 21c-20.667 0 -40.5 -4.66699 -59.5 -14s-36.167 -21.666 -51.5 -36.999
v-304c7.33301 -5.33301 17.5 -10.166 30.5 -14.499s27.833 -6.5 44.5 -6.5z" />
    <glyph glyph-name="q" unicode="q" horiz-adv-x="501" 
d="M362 -189v203.999c-14.667 -8 -31.167 -14.5 -49.5 -19.5s-38.166 -7.5 -59.499 -7.5c-29.333 0 -56.666 5.83301 -81.999 17.5s-47.5 28.334 -66.5 50.001s-33.833 48 -44.5 79s-16 65.833 -16 104.5c0 55.333 12.667 103.333 38 144s56.166 68.5 92.499 83.5
s72.166 22.5 107.499 22.5c46 0 97 -4.33301 153 -13v-665h-73zM269 51.999c17.333 0 34.333 3 51 9s30.667 12.667 42 20v339c-22 4.66699 -48.333 7 -79 7c-32.667 0 -62.667 -9.33301 -90 -28s-46.833 -42.5 -58.5 -71.5s-17.5 -59.167 -17.5 -90.5
c0 -27.333 4 -52.333 12 -75s19 -42.167 33 -58.5s30.167 -29 48.5 -38s37.833 -13.5 58.5 -13.5z" />
    <glyph glyph-name="r" unicode="r" horiz-adv-x="295" 
d="M66 0l-0.00292969 476.998h66l7 -48c18 16.667 36.833 30.834 56.5 42.501s40.834 17.5 63.501 17.5c12 0 25.667 -1.66699 41 -5l-9 -71c-12.667 2.66699 -24.667 4 -36 4c-21.333 0 -42.166 -6.16699 -62.499 -18.5s-38.166 -26.166 -53.499 -41.499v-357h-73z" />
    <glyph glyph-name="s" unicode="s" horiz-adv-x="391" 
d="M200 -11c-28 0 -53 3.33691 -75 10.0039s-40.333 14.334 -55 23.001s-24.667 15.667 -30 21l26 62c14.667 -12.667 33.167 -24.834 55.5 -36.501s48.5 -17.5 78.5 -17.5c30.667 0 53.834 6 69.501 18s23.5 31 23.5 57c0 33.333 -39.333 65.333 -118 96
c-45.333 16.667 -77.333 35.167 -96 55.5s-28 47.166 -28 80.499c0 38.667 13.5 70.167 40.5 94.5s62.833 36.5 107.5 36.5c35.333 0 65.666 -5.5 90.999 -16.5s46 -24.167 62 -39.5l-31 -55c-16 15.333 -34 27.333 -54 36s-42.333 13 -67 13
c-28 0 -48.167 -6.66699 -60.5 -20s-18.5 -28 -18.5 -44c0 -30.667 36.667 -59.334 110 -86.001c42 -15.333 74.167 -33.833 96.5 -55.5s33.5 -51.834 33.5 -90.501c0 -34 -8.5 -61.833 -25.5 -83.5s-38 -36.834 -63 -45.501s-49.167 -13 -72.5 -13z" />
    <glyph glyph-name="t" unicode="t" horiz-adv-x="312" 
d="M202 -11c-34 0 -60.1689 9.16699 -78.502 27.5s-27.5 46.5 -27.5 84.5v313h-78v63h78v130h73v-130h119v-63h-120v-305c0 -23.333 4.33301 -38.833 13 -46.5s19.667 -11.5 33 -11.5c21.333 0 43.333 8.66699 66 26l20 -58c-11.333 -8 -25.166 -15 -41.499 -21
s-35.166 -9 -56.499 -9z" />
    <glyph glyph-name="u" unicode="u" horiz-adv-x="511" 
d="M233 -11c-60 0 -103.333 15.333 -130 46s-40 77.334 -40 140.001v302h73v-306c0 -42 9.16699 -72.5 27.5 -91.5s45.5 -28.5 81.5 -28.5c23.333 0 46.5 5.16699 69.5 15.5s41.833 22.833 56.5 37.5v373h75v-477h-68l-5 37c-18.667 -14.667 -38.667 -26.334 -60 -35.001
s-48 -13 -80 -13z" />
    <glyph glyph-name="v" unicode="v" horiz-adv-x="424" 
d="M165 0l-165 477h79l130 -395l141 395h74l-175 -477h-84z" />
    <glyph glyph-name="w" unicode="w" horiz-adv-x="628" 
d="M140 0l-140 477h79l99 -371l115 371h45l113 -370l99 370h78l-140 -477h-67l-107 346l-108 -346h-66z" />
    <glyph glyph-name="x" unicode="x" horiz-adv-x="383" 
d="M0 0l152 244l-145 233h81l103 -173l103 173h79l-143 -230l153 -247h-81l-111 183l-109 -183h-82z" />
    <glyph glyph-name="y" unicode="y" horiz-adv-x="453" 
d="M4 -193l-7.99707 68.0029c48 0 84.167 6 108.5 18s44.166 28.667 59.499 50c9.33301 15.333 16.666 28.666 21.999 39.999l-178 494h82l143 -415c26 58 50.5 122.5 73.5 193.5s44.167 144.833 63.5 221.5h78c-31.333 -118.667 -61.333 -215.834 -90 -291.501
s-54 -135.834 -76 -180.501c-12.667 -25.333 -25.834 -49.833 -39.501 -73.5s-30.5 -44.667 -50.5 -63s-45 -33 -75 -44s-67.667 -16.833 -113 -17.5z" />
    <glyph glyph-name="z" unicode="z" horiz-adv-x="429" 
d="M38 0v75l270 339h-260v63h335v-79l-271 -335h278v-63h-352z" />
    <glyph glyph-name="braceleft" unicode="{" horiz-adv-x="238" 
d="M222 -62c-41.333 0.666992 -72.333 9.83301 -93 27.5s-31 49.167 -31 94.5v149c0 32.667 -7.5 57.334 -22.5 74.001s-34.167 26.667 -57.5 30v43c23.333 3.33301 42.5 13.333 57.5 30s22.5 41.334 22.5 74.001v149c0 45.333 10.333 76.666 31 93.999
s51.667 26.666 93 27.999l6 -51c-29.333 -1.33301 -47.833 -8.5 -55.5 -21.5s-11.5 -34.5 -11.5 -64.5v-134c0 -36 -6 -63.5 -18 -82.5s-32.333 -33.5 -61 -43.5c28.667 -9.33301 49 -23.5 61 -42.5s18 -46.5 18 -82.5v-135c0 -40 5.5 -64 16.5 -72s27.833 -12.667 50.5 -14
z" />
    <glyph glyph-name="bar" unicode="|" horiz-adv-x="201" 
d="M67 -74v812h68v-812h-68z" />
    <glyph glyph-name="braceright" unicode="}" horiz-adv-x="238" 
d="M16 -62l-6 50.0029c28.667 1.33301 47.167 9.16602 55.5 23.499s12.5 35.166 12.5 62.499v135c0 36 5.66699 63.5 17 82.5s31.333 33.167 60 42.5c-28.667 10 -48.667 24.5 -60 43.5s-17 46.5 -17 82.5v134c0 28 -4.16699 49 -12.5 63s-26.833 21.667 -55.5 23l6 51
c41.333 -1.33301 72.333 -10.666 93 -27.999s31 -48.666 31 -93.999v-149c0 -32.667 7.33301 -57.334 22 -74.001s34 -26.667 58 -30v-43c-24 -3.33301 -43.333 -13.333 -58 -30s-22 -41.334 -22 -74.001v-149c0 -45.333 -10.333 -76.833 -31 -94.5
s-51.667 -26.834 -93 -27.501z" />
    <glyph glyph-name="asciitilde" unicode="~" horiz-adv-x="423" 
d="M297 502c-19.333 0 -35.168 2.99902 -47.501 8.99902s-24.166 13.333 -35.499 22l-41 33c-12.667 10.667 -25.667 16 -39 16c-26.667 0 -45.167 -7.16699 -55.5 -21.5s-16.833 -32.166 -19.5 -53.499h-61c5.33301 44.667 19 79.667 41 105s53 38 93 38
c21.333 0 38.5 -3 51.5 -9s25.833 -13.667 38.5 -23c9.33301 -6 21.666 -15.667 36.999 -29c14 -11.333 25.333 -17 34 -17c26 0 43.5 7.66699 52.5 23s14.833 34.333 17.5 57h62c-2 -35.333 -11.167 -65.5 -27.5 -90.5s-33.666 -41.167 -51.999 -48.5s-34.5 -11 -48.5 -11z
" />
    <glyph glyph-name="uni00A0" unicode="&#xa0;" horiz-adv-x="281" 
 />
    <glyph glyph-name="exclamdown" unicode="&#xa1;" horiz-adv-x="188" 
d="M57 -189v463h72v-463h-72zM94 380c-15.333 0 -27.666 5 -36.999 15s-14 23.333 -14 40s4.66699 29.834 14 39.501s21.666 14.5 36.999 14.5c14.667 0 26.834 -4.83301 36.501 -14.5s14.5 -22.834 14.5 -39.501s-4.83301 -30 -14.5 -40s-21.834 -15 -36.501 -15z" />
    <glyph glyph-name="cent" unicode="&#xa2;" 
d="M244 -4l-0.00195312 145.001c-50 7.33301 -88.833 28.666 -116.5 63.999s-41.5 79.333 -41.5 132c0 39.333 8.5 73.833 25.5 103.5s37.667 50.834 62 63.501s47.833 20.667 70.5 24v139h52v-139c25.333 -0.666992 47.5 -5.83398 66.5 -15.501s34.167 -19.5 45.5 -29.5
l-30 -53c-12.667 11.333 -25.667 20 -39 26s-27.666 9 -42.999 9v-260c13.333 0.666992 26.666 3.16699 39.999 7.5s25 9.5 35 15.5l23 -58c-11.333 -8 -26.166 -15 -44.499 -21s-36.166 -9.33301 -53.499 -10v-143h-52zM243.998 208.001v255.999
c-25.333 -3.33301 -45.833 -15.833 -61.5 -37.5s-23.5 -51.5 -23.5 -89.5c0 -36 7.33301 -64.167 22 -84.5s35.667 -35.166 63 -44.499z" />
    <glyph glyph-name="sterling" unicode="&#xa3;" 
d="M109 0v250.999h-65v68h65v150c0 66.667 15.5 117.334 46.5 152.001s75.167 52 132.5 52c42.667 0 77.5 -9.83301 104.5 -29.5s49.167 -46.167 66.5 -79.5l-59 -46c-20 34 -39.167 56.167 -57.5 66.5s-36.833 15.5 -55.5 15.5c-34.667 0 -60.5 -10.5 -77.5 -31.5
s-25.5 -55.5 -25.5 -103.5v-146h207v-68h-207v-183h278v-68h-353z" />
    <glyph glyph-name="currency" unicode="&#xa4;" horiz-adv-x="586" 
d="M78 93l-46 46l69 69c-14.667 19.333 -26.167 40.5 -34.5 63.5s-12.5 47.5 -12.5 73.5s4.16699 50.5 12.5 73.5s19.833 44.167 34.5 63.5l-69 69l46 46l70 -69c19.333 13.333 40.5 23.833 63.5 31.5s47.167 11.5 72.5 11.5s49.5 -3.83301 72.5 -11.5
s44.167 -18.5 63.5 -32.5l70 70l46 -46l-69 -69c31.333 -39.333 47 -85 47 -137s-15.667 -97.667 -47 -137l69 -69l-46 -46l-69 70c-19.333 -14 -40.5 -24.833 -63.5 -32.5s-47.5 -11.5 -73.5 -11.5c-25.333 0 -49.5 3.83301 -72.5 11.5s-44.167 18.5 -63.5 32.5zM284 177
c33.333 0 63.667 9.33105 91 27.998s46.333 40.834 57 66.501s16 50.167 16 73.5c0 34.667 -9.33301 65.834 -28 93.501s-40.5 47 -65.5 58s-48.5 16.5 -70.5 16.5c-34.667 0 -65 -9.16699 -91 -27.5s-44.667 -40.5 -56 -66.5s-17 -50.667 -17 -74
c0 -34 9.16699 -65.167 27.5 -93.5s40 -47.833 65 -58.5s48.833 -16 71.5 -16z" />
    <glyph glyph-name="yen" unicode="&#xa5;" 
d="M215 0v217h-136v68h136v27l-31 53h-105v68h66l-130 226h87l154 -270l161 270h83l-137 -226h64v-68h-105l-31 -52v-28h132v-68h-132v-217h-76z" />
    <glyph glyph-name="brokenbar" unicode="&#xa6;" horiz-adv-x="182" 
d="M57 -74v275h68v-275h-68zM57 462v276h68v-276h-68z" />
    <glyph glyph-name="section" unicode="&#xa7;" horiz-adv-x="400" 
d="M190 -144c-32 0 -59.1631 5.16309 -81.4961 15.4961s-40.833 22.5 -55.5 36.5l28 56c13.333 -14.667 29 -26.5 47 -35.5s37.333 -13.5 58 -13.5c26.667 0 47.667 6.33301 63 19s23 30 23 52c0 26.667 -11.5 50.5 -34.5 71.5s-50.167 42.833 -81.5 65.5
c-33.333 22.667 -59.5 45.834 -78.5 69.501s-28.5 53.167 -28.5 88.5c0 26 6.5 49.167 19.5 69.5s28.667 35.5 47 45.5s35.166 17 50.499 21c-40.667 34.667 -64.834 60.167 -72.501 76.5s-11.5 38.833 -11.5 67.5c0 36.667 12.833 65.667 38.5 87s58.5 32 98.5 32
c32 0 58.667 -6.5 80 -19.5s38.666 -26.833 51.999 -41.5l-37 -48c-12.667 16 -27.5 28.5 -44.5 37.5s-34.167 13.5 -51.5 13.5c-22.667 0 -40.334 -5 -53.001 -15s-19 -25.333 -19 -46c0 -20 8.66699 -39.667 26 -59s42.333 -43.666 75 -72.999
c36 -33.333 61 -57.666 75 -72.999s23.667 -31.333 29 -48s8 -33.334 8 -50.001c0 -31.333 -8.83301 -57.666 -26.5 -78.999s-42.167 -39.333 -73.5 -54c24 -18 43.5 -36.667 58.5 -56s22.5 -44.333 22.5 -75c0 -29.333 -8.16699 -55.166 -24.5 -77.499s-36.5 -38 -60.5 -47
s-45.667 -13.5 -65 -13.5zM214.004 157.996c24 9.33301 43.167 22.5 57.5 39.5s21.5 36.167 21.5 57.5c0 30.667 -29 71.667 -87 123c-26 -4.66699 -47.333 -14.834 -64 -30.501s-25 -37.5 -25 -65.5c0 -25.333 8.5 -46.666 25.5 -63.999s40.833 -37.333 71.5 -60z" />
    <glyph glyph-name="dieresis" unicode="&#xa8;" horiz-adv-x="420" 
d="M125 590c-13.333 0 -24.833 4.16699 -34.5 12.5s-14.5 20.5 -14.5 36.5c0 15.333 4.83301 27.333 14.5 36s21.167 13 34.5 13s24.666 -4.33301 33.999 -13s14 -20.667 14 -36c0 -16 -4.66699 -28.167 -14 -36.5s-20.666 -12.5 -33.999 -12.5zM296 590
c-13.333 0 -24.833 4.16699 -34.5 12.5s-14.5 20.5 -14.5 36.5c0 15.333 4.83301 27.333 14.5 36s21.167 13 34.5 13s24.666 -4.33301 33.999 -13s14 -20.667 14 -36c0 -16 -4.66699 -28.167 -14 -36.5s-20.666 -12.5 -33.999 -12.5z" />
    <glyph glyph-name="copyright" unicode="&#xa9;" horiz-adv-x="776" 
d="M388 -77c-57.333 0 -107.331 10.6689 -149.998 32.002s-78.334 49.5 -107.001 84.5s-50.167 74.833 -64.5 119.5s-21.5 90.667 -21.5 138c0 74.667 16.833 142.167 50.5 202.5s76.667 103.666 129 129.999s107.166 39.5 164.499 39.5c79.333 0 146.5 -21.5 201.5 -64.5
s92.167 -93.333 111.5 -151s29 -109.834 29 -156.501c0 -74 -16.333 -141.5 -49 -202.5s-75.667 -104.833 -129 -131.5s-108.333 -40 -165 -40zM389.002 -18.998c64 0 118.832 18.001 164.499 54.001s76.334 78.833 92.001 128.5s23.5 94.167 23.5 133.5
c0 63.333 -13.833 120.5 -41.5 171.5s-62.834 87.667 -105.501 110s-87 33.5 -133 33.5c-46.667 0 -87.667 -9 -123 -27s-64.666 -41.833 -87.999 -71.5s-41 -63.334 -53 -101.001s-18 -76.167 -18 -115.5s6 -78 18 -116s29.833 -71.833 53.5 -101.5s53 -53.5 88 -71.5
s75.833 -27 122.5 -27zM391.001 69.0029c-26 0 -50.3359 4.33203 -73.0029 12.999s-42.167 22.167 -58.5 40.5s-29.333 41.666 -39 69.999s-14.5 62.5 -14.5 102.5c0 56.667 10.167 103.334 30.5 140.001s44.833 61 73.5 73s56 18 82 18c37.333 0 67.333 -8.5 90 -25.5
s40.334 -36.833 53.001 -59.5l-47 -30c-10 18.667 -22.5 33.5 -37.5 44.5s-35.167 16.5 -60.5 16.5c-36 0 -65.167 -14.833 -87.5 -44.5s-33.5 -73.834 -33.5 -132.501c0 -56.667 11.833 -99.667 35.5 -129s52.834 -44 87.501 -44c22 0 40.833 5.83301 56.5 17.5
s29.834 26.834 42.501 45.501l46 -32c-15.333 -25.333 -34.5 -45.666 -57.5 -60.999s-52.5 -23 -88.5 -23z" />
    <glyph glyph-name="ordfeminine" unicode="&#xaa;" horiz-adv-x="325" 
d="M149 364c-14.667 0 -28.835 2.33008 -42.502 6.99707s-26 11.834 -37 21.501s-19.833 21.5 -26.5 35.5s-10 30.333 -10 49c0 35.333 12 63 36 83s51.333 32.667 82 38s57.334 8 80.001 8c0 28 -5.5 47.833 -16.5 59.5s-26.833 17.5 -47.5 17.5
c-15.333 0 -30.666 -3.16699 -45.999 -9.5s-30.333 -16.166 -45 -29.499l-24 46c13.333 11.333 29.833 21.833 49.5 31.5s43.167 14.5 70.5 14.5c38 0 67.5 -10.167 88.5 -30.5s31.5 -54.5 31.5 -102.5v-230h-56l-2 24c-9.33301 -7.33301 -21.5 -14.666 -36.5 -21.999
s-31.167 -11 -48.5 -11zM154.999 418.997c15.333 0 29.499 3.16699 42.499 9.5s24.167 13.5 33.5 21.5v103c-28 0 -52.667 -3.16699 -74 -9.5s-37.166 -15.5 -47.499 -27.5s-15.5 -25.333 -15.5 -40c0 -20 6.66699 -34.5 20 -43.5s27 -13.5 41 -13.5z" />
    <glyph glyph-name="guillemotleft" unicode="&#xab;" horiz-adv-x="467" 
d="M216 54l-202 196l185 204l49 -39l-138 -160l151 -157zM400 54l-207 196l190 204l48 -37l-137 -162l150 -158z" />
    <glyph glyph-name="logicalnot" unicode="&#xac;" 
d="M407 146v297h-380v70h448v-367h-68z" />
    <glyph glyph-name="uni00AD" unicode="&#xad;" horiz-adv-x="277" 
d="M41 225v71h196v-71h-196z" />
    <glyph glyph-name="registered" unicode="&#xae;" horiz-adv-x="776" 
d="M388 -77c-57.333 0 -107.331 10.6689 -149.998 32.002s-78.334 49.5 -107.001 84.5s-50.167 74.833 -64.5 119.5s-21.5 90.667 -21.5 138c0 74.667 16.833 142.167 50.5 202.5s76.667 103.666 129 129.999s107.166 39.5 164.499 39.5c79.333 0 146.5 -21.5 201.5 -64.5
s92.167 -93.333 111.5 -151s29 -109.834 29 -156.501c0 -74 -16.333 -141.5 -49 -202.5s-75.667 -104.833 -129 -131.5s-108.333 -40 -165 -40zM389.002 -18.998c64 0 118.832 18.001 164.499 54.001s76.334 78.833 92.001 128.5s23.5 94.167 23.5 133.5
c0 63.333 -13.833 120.5 -41.5 171.5s-62.834 87.667 -105.501 110s-87 33.5 -133 33.5c-46.667 0 -87.667 -9 -123 -27s-64.666 -41.833 -87.999 -71.5s-41 -63.334 -53 -101.001s-18 -76.167 -18 -115.5s6 -78 18 -116s29.833 -71.833 53.5 -101.5s53 -53.5 88 -71.5
s75.833 -27 122.5 -27zM249.001 80.0029v441h143c50 0 86.833 -11.167 110.5 -33.5s35.5 -51.833 35.5 -88.5c0 -38 -10 -66.833 -30 -86.5s-45 -32.5 -75 -38.5l119 -194h-69l-117 189h-57v-189h-60zM309.001 323.003h80c57.333 0 86 25.333 86 76c0 46 -27.333 69 -82 69
h-84v-145z" />
    <glyph glyph-name="macron" unicode="&#xaf;" horiz-adv-x="420" 
d="M70 607v62h280v-62h-280z" />
    <glyph glyph-name="degree" unicode="&#xb0;" horiz-adv-x="345" 
d="M173 379c-18.667 0 -36.167 3.83203 -52.5 11.499s-30.666 18 -42.999 31s-22 28.167 -29 45.5s-10.5 36 -10.5 56c0 18.667 3.5 36.834 10.5 54.501s16.667 33 29 46s26.666 23.5 42.999 31.5s33.833 12 52.5 12c28 0 52.5 -8 73.5 -24s36.333 -35.333 46 -58
s14.5 -43.334 14.5 -62.001c0 -28.667 -7.5 -55.167 -22.5 -79.5s-32.667 -41.166 -53 -50.499s-39.833 -14 -58.5 -14zM173 438.999c23.333 0 42.167 8.49805 56.5 25.498s21.5 36.5 21.5 58.5s-7.16699 41.5 -21.5 58.5s-33.166 25.5 -56.499 25.5
c-22.667 0 -41.334 -8.16699 -56.001 -24.5s-22 -36.166 -22 -59.499c0 -15.333 4.33301 -30.666 13 -45.999s19 -25.5 31 -30.5s23.333 -7.5 34 -7.5z" />
    <glyph glyph-name="plusminus" unicode="&#xb1;" 
d="M29 0v67h455v-67h-455zM225 155v220h-191v70h191v219h67v-219h191v-70h-191v-220h-67z" />
    <glyph glyph-name="twosuperior" unicode="&#xb2;" horiz-adv-x="285" 
d="M39 336l-0.00292969 29c0 17.333 2.5 32.833 7.5 46.5s15.5 27.167 31.5 40.5l46 40c39.333 34.667 59 63.334 59 86.001c0 14 -4.33301 24.833 -13 32.5s-20 11.5 -34 11.5c-11.333 0 -23.666 -2.83301 -36.999 -8.5s-27.666 -16.167 -42.999 -31.5l-25 43
c12 11.333 27 22.166 45 32.499s40.333 15.5 67 15.5c32.667 0 58 -8.33301 76 -25s27 -38 27 -64c0 -21.333 -4.66699 -40.333 -14 -57s-24.666 -33.667 -45.999 -51l-51 -42c-20 -16.667 -30 -32 -30 -46h147v-52h-213z" />
    <glyph glyph-name="threesuperior" unicode="&#xb3;" horiz-adv-x="285" 
d="M139 332c-21.333 0 -41.501 3.50195 -60.501 10.502s-33.833 15.5 -44.5 25.5l21 46c25.333 -21.333 53.333 -32 84 -32c17.333 0 31.5 4.66699 42.5 14s16.5 22.666 16.5 39.999c0 22.667 -7.66699 38.334 -23 47.001s-33.666 13 -54.999 13c-12.667 0 -25 -1 -37 -3v40
c10 14.667 22.833 30.167 38.5 46.5s30.5 29.166 44.5 38.499h-117v51h183v-56c-15.333 -10 -31.333 -21.833 -48 -35.5s-30 -27.167 -40 -40.5c38.667 0 66.667 -10.333 84 -31s26 -42.334 26 -65.001c0 -34 -11.167 -60.667 -33.5 -80s-49.5 -29 -81.5 -29z" />
    <glyph glyph-name="acute" unicode="&#xb4;" horiz-adv-x="420" 
d="M142 544l-36 37l159 139l49 -52z" />
    <glyph glyph-name="mu" unicode="&#xb5;" horiz-adv-x="545" 
d="M76 -189v666.002h74v-304c0 -44 9.5 -75.333 28.5 -94s46.5 -28 82.5 -28c29.333 0 53.833 6.16699 73.5 18.5s33.5 27.166 41.5 44.499c6 12 9 35 9 69v294h74v-359c0 -22.667 2 -39.334 6 -50.001s13.667 -16 29 -16c9.33301 0 18 1.33301 26 4l11 -56
c-16.667 -7.33301 -33 -11 -49 -11c-21.333 0 -39.333 4.16699 -54 12.5s-25.667 23.833 -33 46.5c-19.333 -20.667 -39.333 -35.667 -60 -45s-47 -14 -79 -14c-23.333 0 -44.5 3.83301 -63.5 11.5s-34.5 19.167 -46.5 34.5v-224h-70z" />
    <glyph glyph-name="paragraph" unicode="&#xb6;" horiz-adv-x="481" 
d="M219 -145v421.001c-26 0 -50.167 5.16699 -72.5 15.5s-42 24.166 -59 41.499s-30.333 37.833 -40 61.5s-14.5 49.167 -14.5 76.5c0 39.333 10.167 75 30.5 107s44.833 54.833 73.5 68.5s56 20.5 82 20.5h68v-812h-68zM350 -144.999v812h68v-812h-68z" />
    <glyph glyph-name="periodcentered" unicode="&#xb7;" horiz-adv-x="274" 
d="M137 312c-15.333 0 -28 5 -38 15s-15 23.667 -15 41s5 31.166 15 41.499s22.667 15.5 38 15.5c16 0 28.833 -5.16699 38.5 -15.5s14.5 -24.166 14.5 -41.499s-4.83301 -31 -14.5 -41s-22.5 -15 -38.5 -15z" />
    <glyph glyph-name="cedilla" unicode="&#xb8;" horiz-adv-x="420" 
d="M130 -174l48 130h78l-68 -130h-58z" />
    <glyph glyph-name="onesuperior" unicode="&#xb9;" horiz-adv-x="285" 
d="M130 337v262l-58 -34l-25 48l94 56h47v-332h-58z" />
    <glyph glyph-name="ordmasculine" unicode="&#xba;" horiz-adv-x="381" 
d="M190 368c-36 0 -67 10.832 -93 32.499s-43.167 47.167 -51.5 76.5s-12.5 55.666 -12.5 78.999c0 37.333 7.5 71 22.5 101s34.5 51.5 58.5 64.5s49.333 19.5 76 19.5c36.667 0 67.667 -10.667 93 -32s42.5 -46.666 51.5 -75.999s13.5 -55.666 13.5 -78.999
c0 -36 -7.83301 -69.667 -23.5 -101s-35.5 -53.333 -59.5 -66s-49 -19 -75 -19zM190 421.999c22.667 0 41.999 8 57.999 24s26.5 33.833 31.5 53.5s7.5 38.167 7.5 55.5c0 26.667 -4.66699 50.667 -14 72s-21.5 36.666 -36.5 45.999s-30.5 14 -46.5 14
c-23.333 0 -42.666 -7.66699 -57.999 -23s-25.5 -33 -30.5 -53s-7.5 -38.333 -7.5 -55c0 -27.333 4.66699 -52.166 14 -74.499s21.333 -37.833 36 -46.5s30 -13 46 -13z" />
    <glyph glyph-name="guillemotright" unicode="&#xbb;" horiz-adv-x="467" 
d="M67 54l-44 43l150 158l-137 162l48 37l190 -204zM251 54l-45 44l151 157l-138 160l49 39l185 -204z" />
    <glyph glyph-name="onequarter" unicode="&#xbc;" horiz-adv-x="703" 
d="M61 -16l-36 44l606 642l42 -46zM130 337v262l-58 -34l-25 48l94 56h47v-332h-58zM543 0v67h-151v47l163 214h46v-217h39v-44h-39v-67h-58zM444 111h99v131z" />
    <glyph glyph-name="onehalf" unicode="&#xbd;" horiz-adv-x="703" 
d="M32 -16l-36 44l606 642l42 -46zM126 337v262l-58 -34l-25 48l94 56h47v-332h-58zM427 6l-0.00292969 29c0 17.333 2.5 32.833 7.5 46.5s15.5 27.167 31.5 40.5l46 40c39.333 34.667 59 63.334 59 86.001c0 14 -4.33301 24.833 -13 32.5s-20 11.5 -34 11.5
c-11.333 0 -23.666 -2.83301 -36.999 -8.5s-27.666 -16.167 -42.999 -31.5l-25 43c12 11.333 27 22.166 45 32.499s40.333 15.5 67 15.5c32.667 0 58 -8.33301 76 -25s27 -38 27 -64c0 -21.333 -4.66699 -40.333 -14 -57s-24.666 -33.667 -45.999 -51l-51 -42
c-20 -16.667 -30 -32 -30 -46h147v-52h-213z" />
    <glyph glyph-name="threequarters" unicode="&#xbe;" horiz-adv-x="703" 
d="M96 -16l-36 44l606 642l42 -46zM157 332c-21.333 0 -41.501 3.50195 -60.501 10.502s-33.833 15.5 -44.5 25.5l21 46c25.333 -21.333 53.333 -32 84 -32c17.333 0 31.5 4.66699 42.5 14s16.5 22.666 16.5 39.999c0 22.667 -7.66699 38.334 -23 47.001
s-33.666 13 -54.999 13c-12.667 0 -25 -1 -37 -3v40c10 14.667 22.833 30.167 38.5 46.5s30.5 29.166 44.5 38.499h-117v51h183v-56c-15.333 -10 -31.333 -21.833 -48 -35.5s-30 -27.167 -40 -40.5c38.667 0 66.667 -10.333 84 -31s26 -42.334 26 -65.001
c0 -34 -11.167 -60.667 -33.5 -80s-49.5 -29 -81.5 -29zM575.999 0.00195312v67h-151v47l163 214h46v-217h39v-44h-39v-67h-58zM476.999 111.002h99v131z" />
    <glyph glyph-name="questiondown" unicode="&#xbf;" horiz-adv-x="352" 
d="M176 -195c-56.667 0 -99.498 15.167 -128.498 45.5s-43.5 70.5 -43.5 120.5c0 34 6.66699 62.667 20 86s31 47 53 71c29.333 32 48.666 56.667 57.999 74s14 36 14 56v36h70v-42c0 -31.333 -7.33301 -58.333 -22 -81s-30.667 -43.667 -48 -63
c-46.667 -51.333 -70 -96 -70 -134c0 -34 8.66699 -60 26 -78s42 -27 74 -27c28.667 0 53.667 8.83301 75 26.5s40.333 39.167 57 64.5l50 -38c-26.667 -44 -56.334 -74.5 -89.001 -91.5s-64.667 -25.5 -96 -25.5zM184.002 380c-15.333 0 -27.666 5 -36.999 15
s-14 23.333 -14 40s4.66699 29.834 14 39.501s21.666 14.5 36.999 14.5c14.667 0 26.834 -4.83301 36.501 -14.5s14.5 -22.834 14.5 -39.501s-4.83301 -30 -14.5 -40s-21.834 -15 -36.501 -15z" />
    <glyph glyph-name="Agrave" unicode="&#xc0;" horiz-adv-x="540" 
d="M0 0l237 667h62l241 -667h-83l-75 206h-232l-70 -206h-80zM175 277h182l-92 276zM331 710l-173 124l49 52l159 -139z" />
    <glyph glyph-name="Aacute" unicode="&#xc1;" horiz-adv-x="540" 
d="M0 0l237 667h62l241 -667h-83l-75 206h-232l-70 -206h-80zM175 277h182l-92 276zM210 710l-36 37l159 139l49 -52z" />
    <glyph glyph-name="Acircumflex" unicode="&#xc2;" horiz-adv-x="540" 
d="M0 0l237 667h62l241 -667h-83l-75 206h-232l-70 -206h-80zM175 277h182l-92 276zM168 710l-43 30l120 144h46l119 -144l-41 -30l-101 112z" />
    <glyph glyph-name="Atilde" unicode="&#xc3;" horiz-adv-x="540" 
d="M0 0l237 667h62l241 -667h-83l-75 206h-232l-70 -206h-80zM175 277h182l-92 276zM146 735l-45.999 23c9.33301 30 22.5 54 39.5 72s36.5 27 58.5 27c14 0 27.833 -3.5 41.5 -10.5s26.5 -15.167 38.5 -24.5c18.667 -14.667 35 -22 49 -22
c9.33301 0 18.666 4.33301 27.999 13s18.666 24 27.999 46l46 -24c-10 -30.667 -23.5 -54.667 -40.5 -72s-36.5 -26 -58.5 -26c-12 0 -23.667 2.66699 -35 8s-22.666 12 -33.999 20c-26.667 19.333 -46.667 29 -60 29c-11.333 0 -21 -4.5 -29 -13.5
s-16.667 -24.167 -26 -45.5z" />
    <glyph glyph-name="Adieresis" unicode="&#xc4;" horiz-adv-x="540" 
d="M0 0l237 667h62l241 -667h-83l-75 206h-232l-70 -206h-80zM175 277h182l-92 276zM183 755c-13.333 0 -24.833 4.16699 -34.5 12.5s-14.5 20.5 -14.5 36.5c0 15.333 4.83301 27.333 14.5 36s21.167 13 34.5 13s24.666 -4.33301 33.999 -13s14 -20.667 14 -36
c0 -16 -4.66699 -28.167 -14 -36.5s-20.666 -12.5 -33.999 -12.5zM354 755c-13.333 0 -24.833 4.16699 -34.5 12.5s-14.5 20.5 -14.5 36.5c0 15.333 4.83301 27.333 14.5 36s21.167 13 34.5 13s24.666 -4.33301 33.999 -13s14 -20.667 14 -36
c0 -16 -4.66699 -28.167 -14 -36.5s-20.666 -12.5 -33.999 -12.5z" />
    <glyph glyph-name="Aring" unicode="&#xc5;" horiz-adv-x="540" 
d="M0 0l237 667h62l241 -667h-83l-75 206h-232l-70 -206h-80zM175 277h182l-92 276zM265 700c-21.333 0 -39.666 5.66895 -54.999 17.002s-25.5 24.666 -30.5 39.999s-7.5 29.333 -7.5 42c0 20 4.5 38 13.5 54s20.667 27.667 35 35s29.166 11 44.499 11
c20.667 0 38.834 -5.83301 54.501 -17.5s26.167 -25.167 31.5 -40.5s8 -29.333 8 -42c0 -19.333 -4.66699 -37.333 -14 -54s-21.333 -28.334 -36 -35.001s-29.334 -10 -44.001 -10zM265 740.002c16.667 0 29.334 6.16699 38.001 18.5s13 25.833 13 40.5
c0 15.333 -4.33301 29.166 -13 41.499s-21.334 18.5 -38.001 18.5s-29.334 -6.16699 -38.001 -18.5s-13 -26.166 -13 -41.499c0 -14.667 4.33301 -28.167 13 -40.5s21.334 -18.5 38.001 -18.5z" />
    <glyph glyph-name="AE" unicode="&#xc6;" horiz-adv-x="817" 
d="M0 0l357 667h419v-69h-294v-214h210v-69h-210v-246h316v-69h-392v206h-211l-110 -206h-85zM233 277h173v328z" />
    <glyph glyph-name="Ccedilla" unicode="&#xc7;" horiz-adv-x="541" 
d="M311 -13c-37.333 0 -71.999 6.50195 -103.999 19.502s-59.833 33.333 -83.5 61s-42.334 63.167 -56.001 106.5s-20.5 95.666 -20.5 156.999c0 86 15 157 45 213s65.167 92.667 105.5 110s76.833 26 109.5 26c46 0 85.333 -9.66699 118 -29s61.334 -50 86.001 -92l-56 -46
c-17.333 24 -32.333 42 -45 54s-28.667 21.667 -48 29s-38.333 11 -57 11c-56 0 -99.667 -24 -131 -72s-47 -116.333 -47 -205c0 -43.333 4.83301 -81.833 14.5 -115.5s22.667 -62 39 -85s35.833 -40.333 58.5 -52s47 -17.5 73 -17.5c38.667 0 70 6 94 18s47 28.667 69 50
l28 -72c-24.667 -24.667 -55.834 -42.334 -93.501 -53.001s-70.5 -16 -98.5 -16zM223.001 -173.998l48 130h78l-68 -130h-58z" />
    <glyph glyph-name="Egrave" unicode="&#xc8;" horiz-adv-x="488" 
d="M77 0v667h370v-69h-294v-214h210v-69h-211v-246h317v-69h-392zM324 710l-173 124l49 52l159 -139z" />
    <glyph glyph-name="Eacute" unicode="&#xc9;" horiz-adv-x="488" 
d="M77 0v667h370v-69h-294v-214h210v-69h-211v-246h317v-69h-392zM213 710l-36 37l159 139l49 -52z" />
    <glyph glyph-name="Ecircumflex" unicode="&#xca;" horiz-adv-x="488" 
d="M77 0v667h370v-69h-294v-214h210v-69h-211v-246h317v-69h-392zM170 710l-43 30l120 144h46l119 -144l-41 -30l-101 112z" />
    <glyph glyph-name="Edieresis" unicode="&#xcb;" horiz-adv-x="488" 
d="M77 0v667h370v-69h-294v-214h210v-69h-211v-246h317v-69h-392zM180 756c-13.333 0 -24.833 4.16699 -34.5 12.5s-14.5 20.5 -14.5 36.5c0 15.333 4.83301 27.333 14.5 36s21.167 13 34.5 13s24.666 -4.33301 33.999 -13s14 -20.667 14 -36
c0 -16 -4.66699 -28.167 -14 -36.5s-20.666 -12.5 -33.999 -12.5zM351 756c-13.333 0 -24.833 4.16699 -34.5 12.5s-14.5 20.5 -14.5 36.5c0 15.333 4.83301 27.333 14.5 36s21.167 13 34.5 13s24.666 -4.33301 33.999 -13s14 -20.667 14 -36
c0 -16 -4.66699 -28.167 -14 -36.5s-20.666 -12.5 -33.999 -12.5z" />
    <glyph glyph-name="Igrave" unicode="&#xcc;" horiz-adv-x="230" 
d="M77 0v667h76v-667h-76zM180 710l-173 124l49 52l159 -139z" />
    <glyph glyph-name="Iacute" unicode="&#xcd;" horiz-adv-x="230" 
d="M77 0v667h76v-667h-76zM61 710l-36 37l159 139l49 -52z" />
    <glyph glyph-name="Icircumflex" unicode="&#xce;" horiz-adv-x="230" 
d="M77 0v667h76v-667h-76zM27 710l-43 30l120 144h46l119 -144l-41 -30l-101 112z" />
    <glyph glyph-name="Idieresis" unicode="&#xcf;" horiz-adv-x="230" 
d="M77 0v667h76v-667h-76zM39 756c-13.333 0 -24.833 4.16699 -34.5 12.5s-14.5 20.5 -14.5 36.5c0 15.333 4.83301 27.333 14.5 36s21.167 13 34.5 13s24.666 -4.33301 33.999 -13s14 -20.667 14 -36c0 -16 -4.66699 -28.167 -14 -36.5s-20.666 -12.5 -33.999 -12.5z
M210 756c-13.333 0 -24.833 4.16699 -34.5 12.5s-14.5 20.5 -14.5 36.5c0 15.333 4.83301 27.333 14.5 36s21.167 13 34.5 13s24.666 -4.33301 33.999 -13s14 -20.667 14 -36c0 -16 -4.66699 -28.167 -14 -36.5s-20.666 -12.5 -33.999 -12.5z" />
    <glyph glyph-name="Eth" unicode="&#xd0;" horiz-adv-x="592" 
d="M77 0l-0.00195312 315.999h-78v62h78v289h164c24.667 0 50.334 -2.16699 77.001 -6.5s51 -12.166 73 -23.499c46 -22.667 83.5 -58.167 112.5 -106.5s43.5 -110.833 43.5 -187.5c0 -79.333 -14 -145 -42 -197s-64.167 -89.333 -108.5 -112s-96.166 -34 -155.499 -34h-164
zM152.998 68.999l77.999 0.000976562c40 0 72 4.66699 96 14c30 14 56.333 33.667 79 59s38.5 55.166 47.5 89.499s13.5 70.166 13.5 107.499c0 58 -8.5 104.667 -25.5 140s-40.167 63 -69.5 83c-18.667 12.667 -40.167 21.834 -64.5 27.501s-48.166 8.5 -71.499 8.5h-83
v-220h152v-62h-152v-247z" />
    <glyph glyph-name="Ntilde" unicode="&#xd1;" horiz-adv-x="625" 
d="M77 0v667h77l319 -497v497h75v-667h-56l-340 529v-529h-75zM206 735l-45.999 23c9.33301 30 22.5 54 39.5 72s36.5 27 58.5 27c14 0 27.833 -3.5 41.5 -10.5s26.5 -15.167 38.5 -24.5c18.667 -14.667 35 -22 49 -22c9.33301 0 18.666 4.33301 27.999 13
s18.666 24 27.999 46l46 -24c-10 -30.667 -23.5 -54.667 -40.5 -72s-36.5 -26 -58.5 -26c-12 0 -23.667 2.66699 -35 8s-22.666 12 -33.999 20c-26.667 19.333 -46.667 29 -60 29c-11.333 0 -21 -4.5 -29 -13.5s-16.667 -24.167 -26 -45.5z" />
    <glyph glyph-name="Ograve" unicode="&#xd2;" horiz-adv-x="628" 
d="M314 -13c-46.667 0 -86.8291 10 -120.496 30s-61.334 46.167 -83.001 78.5s-37.667 69.333 -48 111s-15.5 84.167 -15.5 127.5c0 69.333 12 132 36 188s56.667 96.333 98 121s85.666 37 132.999 37c66 0 120 -20 162 -60s70 -86.833 84 -140.5s21 -102.167 21 -145.5
s-5.16699 -85.833 -15.5 -127.5s-26.333 -78.667 -48 -111s-49.334 -58.5 -83.001 -78.5s-73.834 -30 -120.501 -30zM314.005 58c45.333 0 83.335 16.3301 114.002 48.9971s50.667 70 60 112s14 80.333 14 115c0 54.667 -8.33301 103.834 -25 147.501
s-39.834 75.834 -69.501 96.501s-60.834 31 -93.501 31c-46.667 0 -85 -16.167 -115 -48.5s-49.667 -69.666 -59 -111.999s-14 -80.5 -14 -114.5c0 -34.667 3.83301 -68.5 11.5 -101.5s19.167 -62.5 34.5 -88.5s34.833 -46.833 58.5 -62.5s51.5 -23.5 83.5 -23.5z
M383.007 709.997l-173 124l49 52l159 -139z" />
    <glyph glyph-name="Oacute" unicode="&#xd3;" horiz-adv-x="628" 
d="M314 -13c-46.667 0 -86.8291 10 -120.496 30s-61.334 46.167 -83.001 78.5s-37.667 69.333 -48 111s-15.5 84.167 -15.5 127.5c0 69.333 12 132 36 188s56.667 96.333 98 121s85.666 37 132.999 37c66 0 120 -20 162 -60s70 -86.833 84 -140.5s21 -102.167 21 -145.5
s-5.16699 -85.833 -15.5 -127.5s-26.333 -78.667 -48 -111s-49.334 -58.5 -83.001 -78.5s-73.834 -30 -120.501 -30zM314.005 58c45.333 0 83.335 16.3301 114.002 48.9971s50.667 70 60 112s14 80.333 14 115c0 54.667 -8.33301 103.834 -25 147.501
s-39.834 75.834 -69.501 96.501s-60.834 31 -93.501 31c-46.667 0 -85 -16.167 -115 -48.5s-49.667 -69.666 -59 -111.999s-14 -80.5 -14 -114.5c0 -34.667 3.83301 -68.5 11.5 -101.5s19.167 -62.5 34.5 -88.5s34.833 -46.833 58.5 -62.5s51.5 -23.5 83.5 -23.5z
M254.007 709.997l-36 37l159 139l49 -52z" />
    <glyph glyph-name="Ocircumflex" unicode="&#xd4;" horiz-adv-x="628" 
d="M314 -13c-46.667 0 -86.8291 10 -120.496 30s-61.334 46.167 -83.001 78.5s-37.667 69.333 -48 111s-15.5 84.167 -15.5 127.5c0 69.333 12 132 36 188s56.667 96.333 98 121s85.666 37 132.999 37c66 0 120 -20 162 -60s70 -86.833 84 -140.5s21 -102.167 21 -145.5
s-5.16699 -85.833 -15.5 -127.5s-26.333 -78.667 -48 -111s-49.334 -58.5 -83.001 -78.5s-73.834 -30 -120.501 -30zM314.005 58c45.333 0 83.335 16.3301 114.002 48.9971s50.667 70 60 112s14 80.333 14 115c0 54.667 -8.33301 103.834 -25 147.501
s-39.834 75.834 -69.501 96.501s-60.834 31 -93.501 31c-46.667 0 -85 -16.167 -115 -48.5s-49.667 -69.666 -59 -111.999s-14 -80.5 -14 -114.5c0 -34.667 3.83301 -68.5 11.5 -101.5s19.167 -62.5 34.5 -88.5s34.833 -46.833 58.5 -62.5s51.5 -23.5 83.5 -23.5z
M215.007 709.997l-43 30l120 144h46l119 -144l-41 -30l-101 112z" />
    <glyph glyph-name="Otilde" unicode="&#xd5;" horiz-adv-x="628" 
d="M314 -13c-46.667 0 -86.8291 10 -120.496 30s-61.334 46.167 -83.001 78.5s-37.667 69.333 -48 111s-15.5 84.167 -15.5 127.5c0 69.333 12 132 36 188s56.667 96.333 98 121s85.666 37 132.999 37c66 0 120 -20 162 -60s70 -86.833 84 -140.5s21 -102.167 21 -145.5
s-5.16699 -85.833 -15.5 -127.5s-26.333 -78.667 -48 -111s-49.334 -58.5 -83.001 -78.5s-73.834 -30 -120.501 -30zM314.005 58c45.333 0 83.335 16.3301 114.002 48.9971s50.667 70 60 112s14 80.333 14 115c0 54.667 -8.33301 103.834 -25 147.501
s-39.834 75.834 -69.501 96.501s-60.834 31 -93.501 31c-46.667 0 -85 -16.167 -115 -48.5s-49.667 -69.666 -59 -111.999s-14 -80.5 -14 -114.5c0 -34.667 3.83301 -68.5 11.5 -101.5s19.167 -62.5 34.5 -88.5s34.833 -46.833 58.5 -62.5s51.5 -23.5 83.5 -23.5z
M192.007 734.997l-45.999 23c9.33301 30 22.5 54 39.5 72s36.5 27 58.5 27c14 0 27.833 -3.5 41.5 -10.5s26.5 -15.167 38.5 -24.5c18.667 -14.667 35 -22 49 -22c9.33301 0 18.666 4.33301 27.999 13s18.666 24 27.999 46l46 -24c-10 -30.667 -23.5 -54.667 -40.5 -72
s-36.5 -26 -58.5 -26c-12 0 -23.667 2.66699 -35 8s-22.666 12 -33.999 20c-26.667 19.333 -46.667 29 -60 29c-11.333 0 -21 -4.5 -29 -13.5s-16.667 -24.167 -26 -45.5z" />
    <glyph glyph-name="Odieresis" unicode="&#xd6;" horiz-adv-x="628" 
d="M314 -13c-46.667 0 -86.8291 10 -120.496 30s-61.334 46.167 -83.001 78.5s-37.667 69.333 -48 111s-15.5 84.167 -15.5 127.5c0 69.333 12 132 36 188s56.667 96.333 98 121s85.666 37 132.999 37c66 0 120 -20 162 -60s70 -86.833 84 -140.5s21 -102.167 21 -145.5
s-5.16699 -85.833 -15.5 -127.5s-26.333 -78.667 -48 -111s-49.334 -58.5 -83.001 -78.5s-73.834 -30 -120.501 -30zM314.005 58c45.333 0 83.335 16.3301 114.002 48.9971s50.667 70 60 112s14 80.333 14 115c0 54.667 -8.33301 103.834 -25 147.501
s-39.834 75.834 -69.501 96.501s-60.834 31 -93.501 31c-46.667 0 -85 -16.167 -115 -48.5s-49.667 -69.666 -59 -111.999s-14 -80.5 -14 -114.5c0 -34.667 3.83301 -68.5 11.5 -101.5s19.167 -62.5 34.5 -88.5s34.833 -46.833 58.5 -62.5s51.5 -23.5 83.5 -23.5z
M230.007 755.997c-13.333 0 -24.833 4.16699 -34.5 12.5s-14.5 20.5 -14.5 36.5c0 15.333 4.83301 27.333 14.5 36s21.167 13 34.5 13s24.666 -4.33301 33.999 -13s14 -20.667 14 -36c0 -16 -4.66699 -28.167 -14 -36.5s-20.666 -12.5 -33.999 -12.5zM401.007 755.997
c-13.333 0 -24.833 4.16699 -34.5 12.5s-14.5 20.5 -14.5 36.5c0 15.333 4.83301 27.333 14.5 36s21.167 13 34.5 13s24.666 -4.33301 33.999 -13s14 -20.667 14 -36c0 -16 -4.66699 -28.167 -14 -36.5s-20.666 -12.5 -33.999 -12.5z" />
    <glyph glyph-name="multiply" unicode="&#xd7;" 
d="M126 144l-47 55l128 135l-128 134l48 54l130 -136l130 136l47 -54l-128 -134l128 -135l-46 -55l-131 138z" />
    <glyph glyph-name="Oslash" unicode="&#xd8;" horiz-adv-x="628" 
d="M104 -24l-52.998 47.9971l57 75c-20.667 32.667 -36 69.334 -46 110.001s-15 82.334 -15 125.001c0 69.333 12 132 36 188s56.667 96.333 98 121s85.666 37 132.999 37c38 0 71.5 -6.66699 100.5 -20s54.5 -31.666 76.5 -54.999l59 78l52 -46l-69 -91
c16.667 -32 28.834 -65.833 36.501 -101.5s11.5 -72.5 11.5 -110.5c0 -43.333 -5.16699 -85.833 -15.5 -127.5s-26.333 -78.667 -48 -111s-49.334 -58.5 -83.001 -78.5s-73.834 -30 -120.501 -30c-32.667 0 -62 5 -88 15s-49.667 24 -71 42zM314.002 57.9971
c45.333 0 83.332 16.333 113.999 49s50.667 70 60 112s14 80.333 14 115c0 24 -1.83301 47.833 -5.5 71.5s-9.16699 46.5 -16.5 68.5l-279 -368c30.667 -32 68.334 -48 113.001 -48zM160.001 166.997l283.999 375.998c-15.333 20.667 -33.666 36.834 -54.999 48.501
s-46.333 17.5 -75 17.5c-46.667 0 -85 -16.167 -115 -48.5s-49.667 -69.666 -59 -111.999s-14 -80.5 -14 -114.5c0 -61.333 11.333 -117 34 -167z" />
    <glyph glyph-name="Ugrave" unicode="&#xd9;" horiz-adv-x="615" 
d="M305 -13c-50.667 0 -94.667 11.334 -132 34.001s-63.333 52.167 -78 88.5s-22 74.166 -22 113.499v444h76v-429c0 -56.667 13.833 -100.834 41.5 -132.501s66.5 -47.5 116.5 -47.5s89 15.333 117 46s42 75.334 42 134.001v429h76v-444c0 -56 -13.333 -103 -40 -141
s-58.5 -63.167 -95.5 -75.5s-70.833 -18.833 -101.5 -19.5zM355 710.001l-173 124l49 52l159 -139z" />
    <glyph glyph-name="Uacute" unicode="&#xda;" horiz-adv-x="615" 
d="M305 -13c-50.667 0 -94.667 11.334 -132 34.001s-63.333 52.167 -78 88.5s-22 74.166 -22 113.499v444h76v-429c0 -56.667 13.833 -100.834 41.5 -132.501s66.5 -47.5 116.5 -47.5s89 15.333 117 46s42 75.334 42 134.001v429h76v-444c0 -56 -13.333 -103 -40 -141
s-58.5 -63.167 -95.5 -75.5s-70.833 -18.833 -101.5 -19.5zM256 710.001l-36 37l159 139l49 -52z" />
    <glyph glyph-name="Ucircumflex" unicode="&#xdb;" horiz-adv-x="615" 
d="M305 -13c-50.667 0 -94.667 11.334 -132 34.001s-63.333 52.167 -78 88.5s-22 74.166 -22 113.499v444h76v-429c0 -56.667 13.833 -100.834 41.5 -132.501s66.5 -47.5 116.5 -47.5s89 15.333 117 46s42 75.334 42 134.001v429h76v-444c0 -56 -13.333 -103 -40 -141
s-58.5 -63.167 -95.5 -75.5s-70.833 -18.833 -101.5 -19.5zM215 710.001l-43 30l120 144h46l119 -144l-41 -30l-101 112z" />
    <glyph glyph-name="Udieresis" unicode="&#xdc;" horiz-adv-x="615" 
d="M305 -13c-50.667 0 -94.667 11.334 -132 34.001s-63.333 52.167 -78 88.5s-22 74.166 -22 113.499v444h76v-429c0 -56.667 13.833 -100.834 41.5 -132.501s66.5 -47.5 116.5 -47.5s89 15.333 117 46s42 75.334 42 134.001v429h76v-444c0 -56 -13.333 -103 -40 -141
s-58.5 -63.167 -95.5 -75.5s-70.833 -18.833 -101.5 -19.5zM228 756.001c-13.333 0 -24.833 4.16699 -34.5 12.5s-14.5 20.5 -14.5 36.5c0 15.333 4.83301 27.333 14.5 36s21.167 13 34.5 13s24.666 -4.33301 33.999 -13s14 -20.667 14 -36
c0 -16 -4.66699 -28.167 -14 -36.5s-20.666 -12.5 -33.999 -12.5zM399 756.001c-13.333 0 -24.833 4.16699 -34.5 12.5s-14.5 20.5 -14.5 36.5c0 15.333 4.83301 27.333 14.5 36s21.167 13 34.5 13s24.666 -4.33301 33.999 -13s14 -20.667 14 -36
c0 -16 -4.66699 -28.167 -14 -36.5s-20.666 -12.5 -33.999 -12.5z" />
    <glyph glyph-name="Yacute" unicode="&#xdd;" horiz-adv-x="516" 
d="M216 0v320l-216 347h86l170 -270l177 270h83l-224 -346v-321h-76zM209 710l-36 37l159 139l49 -52z" />
    <glyph glyph-name="Thorn" unicode="&#xde;" horiz-adv-x="507" 
d="M77 0v667.001h76v-118h114c144 0 216 -67 216 -201c0 -64.667 -18.667 -113.834 -56 -147.501s-91.333 -50.5 -162 -50.5h-112v-150h-76zM153 220.001l117 0.000976562c38.667 0 70 10.167 94 30.5s36 53.166 36 98.499c0 46 -11.333 79.5 -34 100.5s-55 31.5 -97 31.5
h-116v-261z" />
    <glyph glyph-name="germandbls" unicode="&#xdf;" horiz-adv-x="529" 
d="M347 -11c-27.333 0 -51.999 3.50195 -73.999 10.502s-38.167 14.167 -48.5 21.5s-17.833 13.333 -22.5 18l26 62c14.667 -13.333 31.167 -25 49.5 -35s41.5 -15 69.5 -15c24.667 0 44.5 6 59.5 18s22.5 29.333 22.5 52s-6.83301 42.334 -20.5 59.001
s-40.5 32.667 -80.5 48c-36 13.333 -63.5 30.166 -82.5 50.499s-28.5 48.5 -28.5 84.5c0 28 8.33301 52 25 72s36.667 33.333 60 40s45.333 10 66 10c0 44.667 -9.66699 78.167 -29 100.5s-45 33.5 -77 33.5c-31.333 0 -56.333 -10.833 -75 -32.5s-28 -58.167 -28 -109.5
v-477h-74v414h-66v63h66c1.33301 66.667 17.166 117.167 47.499 151.5s73.833 51.5 130.5 51.5c54 0 96.5 -16.333 127.5 -49s46.5 -77.334 46.5 -134.001v-73h-73c-26 0 -45.333 -5.5 -58 -16.5s-19 -25.5 -19 -43.5c0 -22.667 8.33301 -40 25 -52s39.667 -23.333 69 -34
c41.333 -16 71.333 -35.833 90 -59.5s28 -52.834 28 -87.501c0 -32.667 -8.16699 -60.167 -24.5 -82.5s-36.5 -37.833 -60.5 -46.5s-46.333 -13 -67 -13z" />
    <glyph glyph-name="agrave" unicode="&#xe0;" horiz-adv-x="447" 
d="M191 -11c-20 0 -39.1641 3.16699 -57.4971 9.5s-34.833 15.666 -49.5 27.999s-26.334 27.833 -35.001 46.5s-13 40.334 -13 65.001c0 46.667 17 83.5 51 110.5s72.333 44 115 51s79 10.5 109 10.5v6c0 40 -8.16699 68.667 -24.5 86s-39.5 26 -69.5 26
c-21.333 0 -43 -4.16699 -65 -12.5s-43.333 -20.833 -64 -37.5l-24 56c17.333 13.333 38.666 25.833 63.999 37.5s57 17.5 95 17.5c50.667 0 90.167 -13.667 118.5 -41s42.5 -73 42.5 -137v-311h-67l-3 41c-16 -16.667 -34.333 -29.5 -55 -38.5s-43.334 -13.5 -68.001 -13.5
zM200.003 52c22 0 42.168 4.83301 60.501 14.5s35.166 21.167 50.499 34.5v148c-42.667 -1.33301 -79.5 -5.83301 -110.5 -13.5s-53.833 -20 -68.5 -37s-22 -37.5 -22 -61.5c0 -21.333 6.16699 -39.333 18.5 -54s24.833 -23.5 37.5 -26.5s24 -4.5 34 -4.5zM279.004 544
l-173 124l49 52l159 -139z" />
    <glyph glyph-name="aacute" unicode="&#xe1;" horiz-adv-x="447" 
d="M191 -11c-20 0 -39.1641 3.16699 -57.4971 9.5s-34.833 15.666 -49.5 27.999s-26.334 27.833 -35.001 46.5s-13 40.334 -13 65.001c0 46.667 17 83.5 51 110.5s72.333 44 115 51s79 10.5 109 10.5v6c0 40 -8.16699 68.667 -24.5 86s-39.5 26 -69.5 26
c-21.333 0 -43 -4.16699 -65 -12.5s-43.333 -20.833 -64 -37.5l-24 56c17.333 13.333 38.666 25.833 63.999 37.5s57 17.5 95 17.5c50.667 0 90.167 -13.667 118.5 -41s42.5 -73 42.5 -137v-311h-67l-3 41c-16 -16.667 -34.333 -29.5 -55 -38.5s-43.334 -13.5 -68.001 -13.5
zM200.003 52c22 0 42.168 4.83301 60.501 14.5s35.166 21.167 50.499 34.5v148c-42.667 -1.33301 -79.5 -5.83301 -110.5 -13.5s-53.833 -20 -68.5 -37s-22 -37.5 -22 -61.5c0 -21.333 6.16699 -39.333 18.5 -54s24.833 -23.5 37.5 -26.5s24 -4.5 34 -4.5zM176.004 544
l-36 37l159 139l49 -52z" />
    <glyph glyph-name="acircumflex" unicode="&#xe2;" horiz-adv-x="447" 
d="M191 -11c-20 0 -39.1641 3.16699 -57.4971 9.5s-34.833 15.666 -49.5 27.999s-26.334 27.833 -35.001 46.5s-13 40.334 -13 65.001c0 46.667 17 83.5 51 110.5s72.333 44 115 51s79 10.5 109 10.5v6c0 40 -8.16699 68.667 -24.5 86s-39.5 26 -69.5 26
c-21.333 0 -43 -4.16699 -65 -12.5s-43.333 -20.833 -64 -37.5l-24 56c17.333 13.333 38.666 25.833 63.999 37.5s57 17.5 95 17.5c50.667 0 90.167 -13.667 118.5 -41s42.5 -73 42.5 -137v-311h-67l-3 41c-16 -16.667 -34.333 -29.5 -55 -38.5s-43.334 -13.5 -68.001 -13.5
zM200.003 52c22 0 42.168 4.83301 60.501 14.5s35.166 21.167 50.499 34.5v148c-42.667 -1.33301 -79.5 -5.83301 -110.5 -13.5s-53.833 -20 -68.5 -37s-22 -37.5 -22 -61.5c0 -21.333 6.16699 -39.333 18.5 -54s24.833 -23.5 37.5 -26.5s24 -4.5 34 -4.5zM122.004 544
l-43 30l120 144h46l119 -144l-41 -30l-101 112z" />
    <glyph glyph-name="atilde" unicode="&#xe3;" horiz-adv-x="447" 
d="M191 -11c-20 0 -39.1641 3.16699 -57.4971 9.5s-34.833 15.666 -49.5 27.999s-26.334 27.833 -35.001 46.5s-13 40.334 -13 65.001c0 46.667 17 83.5 51 110.5s72.333 44 115 51s79 10.5 109 10.5v6c0 40 -8.16699 68.667 -24.5 86s-39.5 26 -69.5 26
c-21.333 0 -43 -4.16699 -65 -12.5s-43.333 -20.833 -64 -37.5l-24 56c17.333 13.333 38.666 25.833 63.999 37.5s57 17.5 95 17.5c50.667 0 90.167 -13.667 118.5 -41s42.5 -73 42.5 -137v-311h-67l-3 41c-16 -16.667 -34.333 -29.5 -55 -38.5s-43.334 -13.5 -68.001 -13.5
zM200.003 52c22 0 42.168 4.83301 60.501 14.5s35.166 21.167 50.499 34.5v148c-42.667 -1.33301 -79.5 -5.83301 -110.5 -13.5s-53.833 -20 -68.5 -37s-22 -37.5 -22 -61.5c0 -21.333 6.16699 -39.333 18.5 -54s24.833 -23.5 37.5 -26.5s24 -4.5 34 -4.5zM107.004 569
l-45.999 23c9.33301 30 22.5 54 39.5 72s36.5 27 58.5 27c14 0 27.833 -3.5 41.5 -10.5s26.5 -15.167 38.5 -24.5c18.667 -14.667 35 -22 49 -22c9.33301 0 18.666 4.33301 27.999 13s18.666 24 27.999 46l46 -24c-10 -30.667 -23.5 -54.667 -40.5 -72s-36.5 -26 -58.5 -26
c-12 0 -23.667 2.66699 -35 8s-22.666 12 -33.999 20c-26.667 19.333 -46.667 29 -60 29c-11.333 0 -21 -4.5 -29 -13.5s-16.667 -24.167 -26 -45.5z" />
    <glyph glyph-name="adieresis" unicode="&#xe4;" horiz-adv-x="447" 
d="M191 -11c-20 0 -39.1641 3.16699 -57.4971 9.5s-34.833 15.666 -49.5 27.999s-26.334 27.833 -35.001 46.5s-13 40.334 -13 65.001c0 46.667 17 83.5 51 110.5s72.333 44 115 51s79 10.5 109 10.5v6c0 40 -8.16699 68.667 -24.5 86s-39.5 26 -69.5 26
c-21.333 0 -43 -4.16699 -65 -12.5s-43.333 -20.833 -64 -37.5l-24 56c17.333 13.333 38.666 25.833 63.999 37.5s57 17.5 95 17.5c50.667 0 90.167 -13.667 118.5 -41s42.5 -73 42.5 -137v-311h-67l-3 41c-16 -16.667 -34.333 -29.5 -55 -38.5s-43.334 -13.5 -68.001 -13.5
zM200.003 52c22 0 42.168 4.83301 60.501 14.5s35.166 21.167 50.499 34.5v148c-42.667 -1.33301 -79.5 -5.83301 -110.5 -13.5s-53.833 -20 -68.5 -37s-22 -37.5 -22 -61.5c0 -21.333 6.16699 -39.333 18.5 -54s24.833 -23.5 37.5 -26.5s24 -4.5 34 -4.5zM139.004 590
c-13.333 0 -24.833 4.16699 -34.5 12.5s-14.5 20.5 -14.5 36.5c0 15.333 4.83301 27.333 14.5 36s21.167 13 34.5 13s24.666 -4.33301 33.999 -13s14 -20.667 14 -36c0 -16 -4.66699 -28.167 -14 -36.5s-20.666 -12.5 -33.999 -12.5zM310.004 590
c-13.333 0 -24.833 4.16699 -34.5 12.5s-14.5 20.5 -14.5 36.5c0 15.333 4.83301 27.333 14.5 36s21.167 13 34.5 13s24.666 -4.33301 33.999 -13s14 -20.667 14 -36c0 -16 -4.66699 -28.167 -14 -36.5s-20.666 -12.5 -33.999 -12.5z" />
    <glyph glyph-name="aring" unicode="&#xe5;" horiz-adv-x="447" 
d="M191 -11c-20 0 -39.1641 3.16699 -57.4971 9.5s-34.833 15.666 -49.5 27.999s-26.334 27.833 -35.001 46.5s-13 40.334 -13 65.001c0 46.667 17 83.5 51 110.5s72.333 44 115 51s79 10.5 109 10.5v6c0 40 -8.16699 68.667 -24.5 86s-39.5 26 -69.5 26
c-21.333 0 -43 -4.16699 -65 -12.5s-43.333 -20.833 -64 -37.5l-24 56c17.333 13.333 38.666 25.833 63.999 37.5s57 17.5 95 17.5c50.667 0 90.167 -13.667 118.5 -41s42.5 -73 42.5 -137v-311h-67l-3 41c-16 -16.667 -34.333 -29.5 -55 -38.5s-43.334 -13.5 -68.001 -13.5
zM200.003 52c22 0 42.168 4.83301 60.501 14.5s35.166 21.167 50.499 34.5v148c-42.667 -1.33301 -79.5 -5.83301 -110.5 -13.5s-53.833 -20 -68.5 -37s-22 -37.5 -22 -61.5c0 -21.333 6.16699 -39.333 18.5 -54s24.833 -23.5 37.5 -26.5s24 -4.5 34 -4.5zM226.004 534
c-21.333 0 -39.666 5.66895 -54.999 17.002s-25.5 24.666 -30.5 39.999s-7.5 29.333 -7.5 42c0 20 4.5 38 13.5 54s20.667 27.667 35 35s29.166 11 44.499 11c20.667 0 38.834 -5.83301 54.501 -17.5s26.167 -25.167 31.5 -40.5s8 -29.333 8 -42
c0 -19.333 -4.66699 -37.333 -14 -54s-21.333 -28.334 -36 -35.001s-29.334 -10 -44.001 -10zM226.004 574.002c16.667 0 29.334 6.16699 38.001 18.5s13 25.833 13 40.5c0 15.333 -4.33301 29.166 -13 41.499s-21.334 18.5 -38.001 18.5s-29.334 -6.16699 -38.001 -18.5
s-13 -26.166 -13 -41.499c0 -14.667 4.33301 -28.167 13 -40.5s21.334 -18.5 38.001 -18.5z" />
    <glyph glyph-name="ae" unicode="&#xe6;" horiz-adv-x="736" 
d="M199 -11c-22 0 -42.998 3.33105 -62.998 9.99805s-37.333 16.334 -52 29.001s-26.334 28.167 -35.001 46.5s-13 39.5 -13 63.5c0 44 14 79.167 42 105.5s60.667 43 98 50s70.333 10.5 99 10.5h36v15c0 38 -8.5 65.667 -25.5 83s-39.833 26 -68.5 26
c-21.333 0 -43 -4.16699 -65 -12.5s-43.333 -20.833 -64 -37.5l-24 56c17.333 13.333 38.666 25.833 63.999 37.5s57 17.5 95 17.5c34 0 62.333 -6.16699 85 -18.5s40 -32.5 52 -60.5c15.333 24 35.833 43.167 61.5 57.5s56.167 21.5 91.5 21.5c46 0 83.667 -12.667 113 -38
s48.833 -57.333 58.5 -96s14.5 -76 14.5 -112h-322c0 -60 13 -107 39 -141s63.667 -51 113 -51c29.333 0 54 5 74 15s39 22.667 57 38l19 -63c-12.667 -11.333 -32.167 -22.833 -58.5 -34.5s-57.5 -17.5 -93.5 -17.5c-40 0 -74.833 6.83301 -104.5 20.5
s-53.5 34.834 -71.5 63.501c-16.667 -30 -39.167 -51.5 -67.5 -64.5s-56.5 -19.5 -84.5 -19.5zM200.002 51.998c36 0 63.499 8.33301 82.499 25s28.5 39 28.5 67v100h-28c-38 0 -70.5 -4 -97.5 -12s-46.333 -20.333 -58 -37s-17.5 -36 -17.5 -58
c0 -28 7.83301 -49.167 23.5 -63.5s37.834 -21.5 66.501 -21.5zM384.001 303.998l232 -0.000976562c-0.666992 20.667 -4 38.834 -10 54.501s-14 28.667 -24 39s-21.5 18 -34.5 23s-26.5 7.5 -40.5 7.5c-30 0 -56 -9.5 -78 -28.5s-37 -50.833 -45 -95.5z" />
    <glyph glyph-name="ccedilla" unicode="&#xe7;" horiz-adv-x="450" 
d="M255 -11c-27.333 0 -53.665 5 -78.998 15s-47.666 25.333 -66.999 46s-35 46.5 -47 77.5s-18 67.5 -18 109.5c0 63.333 12.333 115.166 37 155.499s52.667 66.5 84 78.5s59.666 18 84.999 18c33.333 0 62.666 -6.5 87.999 -19.5s43.833 -27.167 55.5 -42.5
s20.167 -27.666 25.5 -36.999l-51 -38c-14.667 22.667 -30.5 40.834 -47.5 54.501s-40.167 20.5 -69.5 20.5c-28 0 -53 -9.5 -75 -28.5s-37.5 -42.833 -46.5 -71.5s-13.5 -58 -13.5 -88s3.83301 -56.667 11.5 -80s18 -43 31 -59s28.167 -28.167 45.5 -36.5
s35.666 -12.5 54.999 -12.5c30.667 0 56.167 4.66699 76.5 14s38.5 21.666 54.5 36.999l21 -63c-17.333 -15.333 -39.833 -27.5 -67.5 -36.5s-57.167 -13.5 -88.5 -13.5zM168.001 -174l48 130h78l-68 -130h-58z" />
    <glyph glyph-name="egrave" unicode="&#xe8;" horiz-adv-x="483" 
d="M266 -11c-68 0 -121.998 21.5 -161.998 64.5s-60 105.5 -60 187.5c0 54.667 10.167 102 30.5 142s46.166 67.667 77.499 83s62.666 23 93.999 23c47.333 0 86.666 -12.333 117.999 -37s52.833 -56.667 64.5 -96s17.5 -77 17.5 -113h-330c0 -60 13 -107 39 -141
s63.667 -51 113 -51c29.333 0 55.333 5 78 15s43 22.667 61 38l19 -63c-14.667 -14.667 -37.167 -27 -67.5 -37s-61.166 -15 -92.499 -15zM123.002 304h240c-1.33301 27.333 -8.5 51 -21.5 71s-28.833 33.833 -47.5 41.5s-34.667 11.5 -48 11.5c-30 0 -56 -9.5 -78 -28.5
s-37 -50.833 -45 -95.5zM305.002 544l-173 124l49 52l159 -139z" />
    <glyph glyph-name="eacute" unicode="&#xe9;" horiz-adv-x="483" 
d="M266 -11c-68 0 -121.998 21.5 -161.998 64.5s-60 105.5 -60 187.5c0 54.667 10.167 102 30.5 142s46.166 67.667 77.499 83s62.666 23 93.999 23c47.333 0 86.666 -12.333 117.999 -37s52.833 -56.667 64.5 -96s17.5 -77 17.5 -113h-330c0 -60 13 -107 39 -141
s63.667 -51 113 -51c29.333 0 55.333 5 78 15s43 22.667 61 38l19 -63c-14.667 -14.667 -37.167 -27 -67.5 -37s-61.166 -15 -92.499 -15zM123.002 304h240c-1.33301 27.333 -8.5 51 -21.5 71s-28.833 33.833 -47.5 41.5s-34.667 11.5 -48 11.5c-30 0 -56 -9.5 -78 -28.5
s-37 -50.833 -45 -95.5zM188.002 544l-36 37l159 139l49 -52z" />
    <glyph glyph-name="ecircumflex" unicode="&#xea;" horiz-adv-x="483" 
d="M266 -11c-68 0 -121.998 21.5 -161.998 64.5s-60 105.5 -60 187.5c0 54.667 10.167 102 30.5 142s46.166 67.667 77.499 83s62.666 23 93.999 23c47.333 0 86.666 -12.333 117.999 -37s52.833 -56.667 64.5 -96s17.5 -77 17.5 -113h-330c0 -60 13 -107 39 -141
s63.667 -51 113 -51c29.333 0 55.333 5 78 15s43 22.667 61 38l19 -63c-14.667 -14.667 -37.167 -27 -67.5 -37s-61.166 -15 -92.499 -15zM123.002 304h240c-1.33301 27.333 -8.5 51 -21.5 71s-28.833 33.833 -47.5 41.5s-34.667 11.5 -48 11.5c-30 0 -56 -9.5 -78 -28.5
s-37 -50.833 -45 -95.5zM151.002 544l-43 30l120 144h46l119 -144l-41 -30l-101 112z" />
    <glyph glyph-name="edieresis" unicode="&#xeb;" horiz-adv-x="483" 
d="M266 -11c-68 0 -121.998 21.5 -161.998 64.5s-60 105.5 -60 187.5c0 54.667 10.167 102 30.5 142s46.166 67.667 77.499 83s62.666 23 93.999 23c47.333 0 86.666 -12.333 117.999 -37s52.833 -56.667 64.5 -96s17.5 -77 17.5 -113h-330c0 -60 13 -107 39 -141
s63.667 -51 113 -51c29.333 0 55.333 5 78 15s43 22.667 61 38l19 -63c-14.667 -14.667 -37.167 -27 -67.5 -37s-61.166 -15 -92.499 -15zM123.002 304h240c-1.33301 27.333 -8.5 51 -21.5 71s-28.833 33.833 -47.5 41.5s-34.667 11.5 -48 11.5c-30 0 -56 -9.5 -78 -28.5
s-37 -50.833 -45 -95.5zM165.002 590c-13.333 0 -24.833 4.16699 -34.5 12.5s-14.5 20.5 -14.5 36.5c0 15.333 4.83301 27.333 14.5 36s21.167 13 34.5 13s24.666 -4.33301 33.999 -13s14 -20.667 14 -36c0 -16 -4.66699 -28.167 -14 -36.5s-20.666 -12.5 -33.999 -12.5z
M336.002 590c-13.333 0 -24.833 4.16699 -34.5 12.5s-14.5 20.5 -14.5 36.5c0 15.333 4.83301 27.333 14.5 36s21.167 13 34.5 13s24.666 -4.33301 33.999 -13s14 -20.667 14 -36c0 -16 -4.66699 -28.167 -14 -36.5s-20.666 -12.5 -33.999 -12.5z" />
    <glyph glyph-name="igrave" unicode="&#xec;" horiz-adv-x="204" 
d="M66 0v477h73v-477h-73zM174 544l-173 124l49 52l159 -139z" />
    <glyph glyph-name="iacute" unicode="&#xed;" horiz-adv-x="204" 
d="M66 0v477h73v-477h-73zM48 544l-36 37l159 139l49 -52z" />
    <glyph glyph-name="icircumflex" unicode="&#xee;" horiz-adv-x="204" 
d="M66 0v477h73v-477h-73zM9 544l-43 30l120 144h46l119 -144l-41 -30l-101 112z" />
    <glyph glyph-name="idieresis" unicode="&#xef;" horiz-adv-x="204" 
d="M66 0v477h73v-477h-73zM24 590c-13.333 0 -24.833 4.16699 -34.5 12.5s-14.5 20.5 -14.5 36.5c0 15.333 4.83301 27.333 14.5 36s21.167 13 34.5 13s24.666 -4.33301 33.999 -13s14 -20.667 14 -36c0 -16 -4.66699 -28.167 -14 -36.5s-20.666 -12.5 -33.999 -12.5z
M195 590c-13.333 0 -24.833 4.16699 -34.5 12.5s-14.5 20.5 -14.5 36.5c0 15.333 4.83301 27.333 14.5 36s21.167 13 34.5 13s24.666 -4.33301 33.999 -13s14 -20.667 14 -36c0 -16 -4.66699 -28.167 -14 -36.5s-20.666 -12.5 -33.999 -12.5z" />
    <glyph glyph-name="eth" unicode="&#xf0;" horiz-adv-x="510" 
d="M127 561l108.999 50.0039c-26.667 19.333 -51.334 34 -74.001 44l60 31l34 -19c13.333 -7.33301 27 -16.666 41 -27.999l105 49l35 -38l-100 -46c16.667 -16.667 32.834 -35.834 48.501 -57.501s29.5 -46.334 41.5 -74.001s21.5 -58.5 28.5 -92.5s10.5 -71.667 10.5 -113
c0 -48.667 -5.66699 -90.5 -17 -125.5s-26.5 -63.833 -45.5 -86.5s-41.167 -39.334 -66.5 -50.001s-52 -16 -80 -16c-30 0 -57.833 5.66699 -83.5 17s-48.167 27.666 -67.5 48.999s-34.5 47.666 -45.5 78.999s-16.5 67 -16.5 107c0 38.667 5.16699 73.334 15.5 104.001
s24.833 56.667 43.5 78s41 37.666 67 48.999s54.667 17 86 17c24.667 0 44.834 -2.83301 60.501 -8.5s29.167 -11.167 40.5 -16.5c-8 20.667 -18.833 40.5 -32.5 59.5s-29.167 36.5 -46.5 52.5l-116 -53zM393.999 266.004c0 25.333 -2.00293 49.5 -6.00293 72.5
s-8.33301 41.167 -13 54.5c-15.333 8.66699 -32.666 16.667 -51.999 24s-41.333 11 -66 11c-42 0 -75.833 -16.167 -101.5 -48.5s-38.5 -78.5 -38.5 -138.5c0 -60.667 13.333 -107.5 40 -140.5s60 -49.5 100 -49.5c18.667 0 36.334 4 53.001 12s31.334 20.667 44.001 38
s22.5 39.5 29.5 66.5s10.5 59.833 10.5 98.5z" />
    <glyph glyph-name="ntilde" unicode="&#xf1;" horiz-adv-x="514" 
d="M66 0l0.000976562 477h67l5 -38c18.667 14.667 40.334 26.667 65.001 36s50.667 14 78 14c62.667 0 106.667 -16 132 -48s38 -80 38 -144v-297h-73v299c0 40 -8.5 71.333 -25.5 94s-44.833 34 -83.5 34c-24.667 0 -48.334 -5.5 -71.001 -16.5
s-42.334 -23.167 -59.001 -36.5v-374h-73zM146.001 569l-45.999 23c9.33301 30 22.5 54 39.5 72s36.5 27 58.5 27c14 0 27.833 -3.5 41.5 -10.5s26.5 -15.167 38.5 -24.5c18.667 -14.667 35 -22 49 -22c9.33301 0 18.666 4.33301 27.999 13s18.666 24 27.999 46l46 -24
c-10 -30.667 -23.5 -54.667 -40.5 -72s-36.5 -26 -58.5 -26c-12 0 -23.667 2.66699 -35 8s-22.666 12 -33.999 20c-26.667 19.333 -46.667 29 -60 29c-11.333 0 -21 -4.5 -29 -13.5s-16.667 -24.167 -26 -45.5z" />
    <glyph glyph-name="ograve" unicode="&#xf2;" horiz-adv-x="509" 
d="M255 -11c-35.333 0 -66.1641 7.16699 -92.4971 21.5s-48.166 33.333 -65.499 57s-30.5 50.667 -39.5 81s-13.5 61.166 -13.5 92.499c0 47.333 9.66699 91.666 29 132.999s45.666 70.833 78.999 88.5s67.666 26.5 102.999 26.5c49.333 0 90.666 -14.167 123.999 -42.5
s56.166 -62.166 68.499 -101.499s18.5 -74.666 18.5 -105.999c0 -49.333 -10.5 -95 -31.5 -137s-47.5 -71.333 -79.5 -88s-65.333 -25 -100 -25zM255.002 51c31.333 0 58.3359 10.668 81.0029 32.001s38 47 46 77s12 56.667 12 80c0 36.667 -6.83301 70.5 -20.5 101.5
s-31.167 53.167 -52.5 66.5s-43.333 20 -66 20c-34 0 -62.333 -11.333 -85 -34s-37.334 -48 -44.001 -76s-10 -53.667 -10 -77c0 -38 6.66699 -72.833 20 -104.5s30.666 -53.834 51.999 -66.501s43.666 -19 66.999 -19zM303.005 544.001l-173 124l49 52l159 -139z" />
    <glyph glyph-name="oacute" unicode="&#xf3;" horiz-adv-x="509" 
d="M255 -11c-35.333 0 -66.1641 7.16699 -92.4971 21.5s-48.166 33.333 -65.499 57s-30.5 50.667 -39.5 81s-13.5 61.166 -13.5 92.499c0 47.333 9.66699 91.666 29 132.999s45.666 70.833 78.999 88.5s67.666 26.5 102.999 26.5c49.333 0 90.666 -14.167 123.999 -42.5
s56.166 -62.166 68.499 -101.499s18.5 -74.666 18.5 -105.999c0 -49.333 -10.5 -95 -31.5 -137s-47.5 -71.333 -79.5 -88s-65.333 -25 -100 -25zM255.002 51c31.333 0 58.3359 10.668 81.0029 32.001s38 47 46 77s12 56.667 12 80c0 36.667 -6.83301 70.5 -20.5 101.5
s-31.167 53.167 -52.5 66.5s-43.333 20 -66 20c-34 0 -62.333 -11.333 -85 -34s-37.334 -48 -44.001 -76s-10 -53.667 -10 -77c0 -38 6.66699 -72.833 20 -104.5s30.666 -53.834 51.999 -66.501s43.666 -19 66.999 -19zM193.005 544.001l-36 37l159 139l49 -52z" />
    <glyph glyph-name="ocircumflex" unicode="&#xf4;" horiz-adv-x="509" 
d="M255 -11c-35.333 0 -66.1641 7.16699 -92.4971 21.5s-48.166 33.333 -65.499 57s-30.5 50.667 -39.5 81s-13.5 61.166 -13.5 92.499c0 47.333 9.66699 91.666 29 132.999s45.666 70.833 78.999 88.5s67.666 26.5 102.999 26.5c49.333 0 90.666 -14.167 123.999 -42.5
s56.166 -62.166 68.499 -101.499s18.5 -74.666 18.5 -105.999c0 -49.333 -10.5 -95 -31.5 -137s-47.5 -71.333 -79.5 -88s-65.333 -25 -100 -25zM255.002 51c31.333 0 58.3359 10.668 81.0029 32.001s38 47 46 77s12 56.667 12 80c0 36.667 -6.83301 70.5 -20.5 101.5
s-31.167 53.167 -52.5 66.5s-43.333 20 -66 20c-34 0 -62.333 -11.333 -85 -34s-37.334 -48 -44.001 -76s-10 -53.667 -10 -77c0 -38 6.66699 -72.833 20 -104.5s30.666 -53.834 51.999 -66.501s43.666 -19 66.999 -19zM149.005 544.001l-43 30l120 144h46l119 -144l-41 -30
l-101 112z" />
    <glyph glyph-name="otilde" unicode="&#xf5;" horiz-adv-x="509" 
d="M255 -11c-35.333 0 -66.1641 7.16699 -92.4971 21.5s-48.166 33.333 -65.499 57s-30.5 50.667 -39.5 81s-13.5 61.166 -13.5 92.499c0 47.333 9.66699 91.666 29 132.999s45.666 70.833 78.999 88.5s67.666 26.5 102.999 26.5c49.333 0 90.666 -14.167 123.999 -42.5
s56.166 -62.166 68.499 -101.499s18.5 -74.666 18.5 -105.999c0 -49.333 -10.5 -95 -31.5 -137s-47.5 -71.333 -79.5 -88s-65.333 -25 -100 -25zM255.002 51c31.333 0 58.3359 10.668 81.0029 32.001s38 47 46 77s12 56.667 12 80c0 36.667 -6.83301 70.5 -20.5 101.5
s-31.167 53.167 -52.5 66.5s-43.333 20 -66 20c-34 0 -62.333 -11.333 -85 -34s-37.334 -48 -44.001 -76s-10 -53.667 -10 -77c0 -38 6.66699 -72.833 20 -104.5s30.666 -53.834 51.999 -66.501s43.666 -19 66.999 -19zM133.005 569.001l-45.999 23
c9.33301 30 22.5 54 39.5 72s36.5 27 58.5 27c14 0 27.833 -3.5 41.5 -10.5s26.5 -15.167 38.5 -24.5c18.667 -14.667 35 -22 49 -22c9.33301 0 18.666 4.33301 27.999 13s18.666 24 27.999 46l46 -24c-10 -30.667 -23.5 -54.667 -40.5 -72s-36.5 -26 -58.5 -26
c-12 0 -23.667 2.66699 -35 8s-22.666 12 -33.999 20c-26.667 19.333 -46.667 29 -60 29c-11.333 0 -21 -4.5 -29 -13.5s-16.667 -24.167 -26 -45.5z" />
    <glyph glyph-name="odieresis" unicode="&#xf6;" horiz-adv-x="509" 
d="M255 -11c-35.333 0 -66.1641 7.16699 -92.4971 21.5s-48.166 33.333 -65.499 57s-30.5 50.667 -39.5 81s-13.5 61.166 -13.5 92.499c0 47.333 9.66699 91.666 29 132.999s45.666 70.833 78.999 88.5s67.666 26.5 102.999 26.5c49.333 0 90.666 -14.167 123.999 -42.5
s56.166 -62.166 68.499 -101.499s18.5 -74.666 18.5 -105.999c0 -49.333 -10.5 -95 -31.5 -137s-47.5 -71.333 -79.5 -88s-65.333 -25 -100 -25zM255.002 51c31.333 0 58.3359 10.668 81.0029 32.001s38 47 46 77s12 56.667 12 80c0 36.667 -6.83301 70.5 -20.5 101.5
s-31.167 53.167 -52.5 66.5s-43.333 20 -66 20c-34 0 -62.333 -11.333 -85 -34s-37.334 -48 -44.001 -76s-10 -53.667 -10 -77c0 -38 6.66699 -72.833 20 -104.5s30.666 -53.834 51.999 -66.501s43.666 -19 66.999 -19zM173.005 590.001
c-13.333 0 -24.833 4.16699 -34.5 12.5s-14.5 20.5 -14.5 36.5c0 15.333 4.83301 27.333 14.5 36s21.167 13 34.5 13s24.666 -4.33301 33.999 -13s14 -20.667 14 -36c0 -16 -4.66699 -28.167 -14 -36.5s-20.666 -12.5 -33.999 -12.5zM344.005 590.001
c-13.333 0 -24.833 4.16699 -34.5 12.5s-14.5 20.5 -14.5 36.5c0 15.333 4.83301 27.333 14.5 36s21.167 13 34.5 13s24.666 -4.33301 33.999 -13s14 -20.667 14 -36c0 -16 -4.66699 -28.167 -14 -36.5s-20.666 -12.5 -33.999 -12.5z" />
    <glyph glyph-name="divide" unicode="&#xf7;" 
d="M256 101c-15.333 0 -28 5 -38 15s-15 23.667 -15 41s5 31.166 15 41.499s22.667 15.5 38 15.5c16 0 28.833 -5.16699 38.5 -15.5s14.5 -24.166 14.5 -41.499s-4.83301 -31 -14.5 -41s-22.5 -15 -38.5 -15zM32 297v70h449v-70h-449zM256 458c-15.333 0 -28 5 -38 15
s-15 23.667 -15 41s5 31.166 15 41.499s22.667 15.5 38 15.5c16 0 28.833 -5.16699 38.5 -15.5s14.5 -24.166 14.5 -41.499s-4.83301 -31 -14.5 -41s-22.5 -15 -38.5 -15z" />
    <glyph glyph-name="oslash" unicode="&#xf8;" horiz-adv-x="509" 
d="M114 -69l-50.9961 35.001l47 86c-22 24 -38.5 52.5 -49.5 85.5s-16.5 67.5 -16.5 103.5c0 47.333 9.66699 91.666 29 132.999s45.666 70.833 78.999 88.5s67.666 26.5 102.999 26.5c31.333 0 60.666 -6.33301 87.999 -19l45 80l51 -32l-47 -83
c25.333 -24 44 -53.167 56 -87.5s18 -70.5 18 -108.5c0 -49.333 -10.5 -95 -31.5 -137s-47.5 -71.333 -79.5 -88s-65.333 -25 -100 -25c-36.667 0 -68.334 7.66699 -95.001 23zM255.004 51.001c31.333 0 58.333 10.667 81 32s38 47 46 77s12 56.667 12 80
c0 24 -3 47.5 -9 70.5s-15 43.167 -27 60.5l-167 -302c20.667 -12 42 -18 64 -18zM146.004 117.001l166.001 296.999c-17.333 9.33301 -36.333 14 -57 14c-34 0 -62.333 -11.333 -85 -34s-37.334 -48 -44.001 -76s-10 -53.667 -10 -77c0 -22.667 2.5 -44.667 7.5 -66
s12.5 -40.666 22.5 -57.999z" />
    <glyph glyph-name="ugrave" unicode="&#xf9;" horiz-adv-x="511" 
d="M233 -11c-60 0 -103.333 15.333 -130 46s-40 77.334 -40 140.001v302h73v-306c0 -42 9.16699 -72.5 27.5 -91.5s45.5 -28.5 81.5 -28.5c23.333 0 46.5 5.16699 69.5 15.5s41.833 22.833 56.5 37.5v373h75v-477h-68l-5 37c-18.667 -14.667 -38.667 -26.334 -60 -35.001
s-48 -13 -80 -13zM302 544l-173 124l49 52l159 -139z" />
    <glyph glyph-name="uacute" unicode="&#xfa;" horiz-adv-x="511" 
d="M233 -11c-60 0 -103.333 15.333 -130 46s-40 77.334 -40 140.001v302h73v-306c0 -42 9.16699 -72.5 27.5 -91.5s45.5 -28.5 81.5 -28.5c23.333 0 46.5 5.16699 69.5 15.5s41.833 22.833 56.5 37.5v373h75v-477h-68l-5 37c-18.667 -14.667 -38.667 -26.334 -60 -35.001
s-48 -13 -80 -13zM207 544l-36 37l159 139l49 -52z" />
    <glyph glyph-name="ucircumflex" unicode="&#xfb;" horiz-adv-x="511" 
d="M233 -11c-60 0 -103.333 15.333 -130 46s-40 77.334 -40 140.001v302h73v-306c0 -42 9.16699 -72.5 27.5 -91.5s45.5 -28.5 81.5 -28.5c23.333 0 46.5 5.16699 69.5 15.5s41.833 22.833 56.5 37.5v373h75v-477h-68l-5 37c-18.667 -14.667 -38.667 -26.334 -60 -35.001
s-48 -13 -80 -13zM159 544l-43 30l120 144h46l119 -144l-41 -30l-101 112z" />
    <glyph glyph-name="udieresis" unicode="&#xfc;" horiz-adv-x="511" 
d="M233 -11c-60 0 -103.333 15.333 -130 46s-40 77.334 -40 140.001v302h73v-306c0 -42 9.16699 -72.5 27.5 -91.5s45.5 -28.5 81.5 -28.5c23.333 0 46.5 5.16699 69.5 15.5s41.833 22.833 56.5 37.5v373h75v-477h-68l-5 37c-18.667 -14.667 -38.667 -26.334 -60 -35.001
s-48 -13 -80 -13zM173 590c-13.333 0 -24.833 4.16699 -34.5 12.5s-14.5 20.5 -14.5 36.5c0 15.333 4.83301 27.333 14.5 36s21.167 13 34.5 13s24.666 -4.33301 33.999 -13s14 -20.667 14 -36c0 -16 -4.66699 -28.167 -14 -36.5s-20.666 -12.5 -33.999 -12.5zM344 590
c-13.333 0 -24.833 4.16699 -34.5 12.5s-14.5 20.5 -14.5 36.5c0 15.333 4.83301 27.333 14.5 36s21.167 13 34.5 13s24.666 -4.33301 33.999 -13s14 -20.667 14 -36c0 -16 -4.66699 -28.167 -14 -36.5s-20.666 -12.5 -33.999 -12.5z" />
    <glyph glyph-name="yacute" unicode="&#xfd;" horiz-adv-x="453" 
d="M4 -193l-7.99707 68.0029c48 0 84.167 6 108.5 18s44.166 28.667 59.499 50c9.33301 15.333 16.666 28.666 21.999 39.999l-178 494h82l143 -415c26 58 50.5 122.5 73.5 193.5s44.167 144.833 63.5 221.5h78c-31.333 -118.667 -61.333 -215.834 -90 -291.501
s-54 -135.834 -76 -180.501c-12.667 -25.333 -25.834 -49.833 -39.501 -73.5s-30.5 -44.667 -50.5 -63s-45 -33 -75 -44s-67.667 -16.833 -113 -17.5zM185.003 544.003l-36 37l159 139l49 -52z" />
    <glyph glyph-name="thorn" unicode="&#xfe;" horiz-adv-x="499" 
d="M66 -189l-0.000976562 855.999h72v-224c17.333 14 37.5 25.167 60.5 33.5s46.833 12.5 71.5 12.5c48 0 86.5 -14 115.5 -42s47.833 -61 56.5 -99s13 -72.667 13 -104c0 -57.333 -12.167 -106.666 -36.5 -147.999s-53.833 -69.5 -88.5 -84.5s-68.334 -22.5 -101.001 -22.5
c-17.333 0 -33.666 1.33301 -48.999 4s-28.666 6.66699 -39.999 12v-194h-74zM214.999 50.999c36 0 67.333 9.16406 94 27.4971s45.5 42.5 56.5 72.5s16.5 60 16.5 90c0 36.667 -5.5 69.834 -16.5 99.501s-26.667 51.5 -47 65.5s-42.833 21 -67.5 21
c-20.667 0 -40.5 -4.66699 -59.5 -14s-36.167 -21.666 -51.5 -36.999v-304c7.33301 -5.33301 17.333 -10.166 30 -14.499s27.667 -6.5 45 -6.5z" />
    <glyph glyph-name="ydieresis" unicode="&#xff;" horiz-adv-x="453" 
d="M4 -193l-7.99707 68.0029c48 0 84.167 6 108.5 18s44.166 28.667 59.499 50c9.33301 15.333 16.666 28.666 21.999 39.999l-178 494h82l143 -415c26 58 50.5 122.5 73.5 193.5s44.167 144.833 63.5 221.5h78c-31.333 -118.667 -61.333 -215.834 -90 -291.501
s-54 -135.834 -76 -180.501c-12.667 -25.333 -25.834 -49.833 -39.501 -73.5s-30.5 -44.667 -50.5 -63s-45 -33 -75 -44s-67.667 -16.833 -113 -17.5zM154.003 590.003c-13.333 0 -24.833 4.16699 -34.5 12.5s-14.5 20.5 -14.5 36.5c0 15.333 4.83301 27.333 14.5 36
s21.167 13 34.5 13s24.666 -4.33301 33.999 -13s14 -20.667 14 -36c0 -16 -4.66699 -28.167 -14 -36.5s-20.666 -12.5 -33.999 -12.5zM325.003 590.003c-13.333 0 -24.833 4.16699 -34.5 12.5s-14.5 20.5 -14.5 36.5c0 15.333 4.83301 27.333 14.5 36s21.167 13 34.5 13
s24.666 -4.33301 33.999 -13s14 -20.667 14 -36c0 -16 -4.66699 -28.167 -14 -36.5s-20.666 -12.5 -33.999 -12.5z" />
    <glyph glyph-name="Amacron" unicode="&#x100;" horiz-adv-x="540" 
d="M0 0l237 667h62l241 -667h-83l-75 206h-232l-70 -206h-80zM175 277h182l-92 276zM133 773v62h280v-62h-280z" />
    <glyph glyph-name="amacron" unicode="&#x101;" horiz-adv-x="447" 
d="M191 -11c-20 0 -39.1641 3.16699 -57.4971 9.5s-34.833 15.666 -49.5 27.999s-26.334 27.833 -35.001 46.5s-13 40.334 -13 65.001c0 46.667 17 83.5 51 110.5s72.333 44 115 51s79 10.5 109 10.5v6c0 40 -8.16699 68.667 -24.5 86s-39.5 26 -69.5 26
c-21.333 0 -43 -4.16699 -65 -12.5s-43.333 -20.833 -64 -37.5l-24 56c17.333 13.333 38.666 25.833 63.999 37.5s57 17.5 95 17.5c50.667 0 90.167 -13.667 118.5 -41s42.5 -73 42.5 -137v-311h-67l-3 41c-16 -16.667 -34.333 -29.5 -55 -38.5s-43.334 -13.5 -68.001 -13.5
zM200.003 52c22 0 42.168 4.83301 60.501 14.5s35.166 21.167 50.499 34.5v148c-42.667 -1.33301 -79.5 -5.83301 -110.5 -13.5s-53.833 -20 -68.5 -37s-22 -37.5 -22 -61.5c0 -21.333 6.16699 -39.333 18.5 -54s24.833 -23.5 37.5 -26.5s24 -4.5 34 -4.5zM89.0039 607v62
h280v-62h-280z" />
    <glyph glyph-name="Abreve" unicode="&#x102;" horiz-adv-x="540" 
d="M0 0l237 667h62l241 -667h-83l-75 206h-232l-70 -206h-80zM175 277h182l-92 276zM269 720c-26 0 -49.668 5.83301 -71.001 17.5s-36.5 27 -45.5 46s-13.833 40.5 -14.5 64.5h60c2 -20 7.5 -36 16.5 -48s18.833 -19.167 29.5 -21.5s20.334 -3.5 29.001 -3.5
c16.667 0 32.167 4.83301 46.5 14.5s24.166 29.167 29.499 58.5h57c-3.33301 -35.333 -13.5 -63 -30.5 -83s-35.167 -32.5 -54.5 -37.5s-36.666 -7.5 -51.999 -7.5z" />
    <glyph glyph-name="abreve" unicode="&#x103;" horiz-adv-x="447" 
d="M191 -11c-20 0 -39.1641 3.16699 -57.4971 9.5s-34.833 15.666 -49.5 27.999s-26.334 27.833 -35.001 46.5s-13 40.334 -13 65.001c0 46.667 17 83.5 51 110.5s72.333 44 115 51s79 10.5 109 10.5v6c0 40 -8.16699 68.667 -24.5 86s-39.5 26 -69.5 26
c-21.333 0 -43 -4.16699 -65 -12.5s-43.333 -20.833 -64 -37.5l-24 56c17.333 13.333 38.666 25.833 63.999 37.5s57 17.5 95 17.5c50.667 0 90.167 -13.667 118.5 -41s42.5 -73 42.5 -137v-311h-67l-3 41c-16 -16.667 -34.333 -29.5 -55 -38.5s-43.334 -13.5 -68.001 -13.5
zM200.003 52c22 0 42.168 4.83301 60.501 14.5s35.166 21.167 50.499 34.5v148c-42.667 -1.33301 -79.5 -5.83301 -110.5 -13.5s-53.833 -20 -68.5 -37s-22 -37.5 -22 -61.5c0 -21.333 6.16699 -39.333 18.5 -54s24.833 -23.5 37.5 -26.5s24 -4.5 34 -4.5zM224.004 554
c-26 0 -49.668 5.83301 -71.001 17.5s-36.5 27 -45.5 46s-13.833 40.5 -14.5 64.5h60c2 -20 7.5 -36 16.5 -48s18.833 -19.167 29.5 -21.5s20.334 -3.5 29.001 -3.5c16.667 0 32.167 4.83301 46.5 14.5s24.166 29.167 29.499 58.5h57c-3.33301 -35.333 -13.5 -63 -30.5 -83
s-35.167 -32.5 -54.5 -37.5s-36.666 -7.5 -51.999 -7.5z" />
    <glyph glyph-name="Aogonek" unicode="&#x104;" horiz-adv-x="540" 
d="M0 0l237 667h62l241 -667h-83l-75 206h-232l-70 -206h-80zM175 277h182l-92 276zM477 -198c-28 0 -50.165 6.83008 -66.498 20.4971s-24.5 33.834 -24.5 60.501c0 20.667 7 41.834 21 63.501s28.167 37.834 42.5 48.501s26.166 18.667 35.499 24l48 -16
c-14 -10 -27.333 -20.833 -40 -32.5s-22.167 -23.667 -28.5 -36s-9.5 -23.833 -9.5 -34.5c0 -9.33301 2.5 -17.833 7.5 -25.5s14.5 -11.5 28.5 -11.5c13.333 0 25.333 3.66699 36 11l16 -55c-8 -4.66699 -17.833 -8.66699 -29.5 -12s-23.834 -5 -36.501 -5z" />
    <glyph glyph-name="aogonek" unicode="&#x105;" horiz-adv-x="447" 
d="M191 -11c-20 0 -39.1641 3.16699 -57.4971 9.5s-34.833 15.666 -49.5 27.999s-26.334 27.833 -35.001 46.5s-13 40.334 -13 65.001c0 46.667 17 83.5 51 110.5s72.333 44 115 51s79 10.5 109 10.5v6c0 40 -8.16699 68.667 -24.5 86s-39.5 26 -69.5 26
c-21.333 0 -43 -4.16699 -65 -12.5s-43.333 -20.833 -64 -37.5l-24 56c17.333 13.333 38.666 25.833 63.999 37.5s57 17.5 95 17.5c50.667 0 90.167 -13.667 118.5 -41s42.5 -73 42.5 -137v-311h-67l-3 41c-16 -16.667 -34.333 -29.5 -55 -38.5s-43.334 -13.5 -68.001 -13.5
zM200.003 52c22 0 42.168 4.83301 60.501 14.5s35.166 21.167 50.499 34.5v148c-42.667 -1.33301 -79.5 -5.83301 -110.5 -13.5s-53.833 -20 -68.5 -37s-22 -37.5 -22 -61.5c0 -21.333 6.16699 -39.333 18.5 -54s24.833 -23.5 37.5 -26.5s24 -4.5 34 -4.5zM325.004 -198
c-28 0 -50.165 6.83008 -66.498 20.4971s-24.5 33.834 -24.5 60.501c0 20.667 7 41.834 21 63.501s28.167 37.834 42.5 48.501s26.166 18.667 35.499 24l48 -16c-14 -10 -27.333 -20.833 -40 -32.5s-22.167 -23.667 -28.5 -36s-9.5 -23.833 -9.5 -34.5
c0 -9.33301 2.5 -17.833 7.5 -25.5s14.5 -11.5 28.5 -11.5c13.333 0 25.333 3.66699 36 11l16 -55c-8 -4.66699 -17.833 -8.66699 -29.5 -12s-23.834 -5 -36.501 -5z" />
    <glyph glyph-name="Cacute" unicode="&#x106;" horiz-adv-x="541" 
d="M311 -13c-37.333 0 -71.999 6.50195 -103.999 19.502s-59.833 33.333 -83.5 61s-42.334 63.167 -56.001 106.5s-20.5 95.666 -20.5 156.999c0 86 15 157 45 213s65.167 92.667 105.5 110s76.833 26 109.5 26c46 0 85.333 -9.66699 118 -29s61.334 -50 86.001 -92l-56 -46
c-17.333 24 -32.333 42 -45 54s-28.667 21.667 -48 29s-38.333 11 -57 11c-56 0 -99.667 -24 -131 -72s-47 -116.333 -47 -205c0 -43.333 4.83301 -81.833 14.5 -115.5s22.667 -62 39 -85s35.833 -40.333 58.5 -52s47 -17.5 73 -17.5c38.667 0 70 6 94 18s47 28.667 69 50
l28 -72c-24.667 -24.667 -55.834 -42.334 -93.501 -53.001s-70.5 -16 -98.5 -16zM223.001 710.002l-36 37l159 139l49 -52z" />
    <glyph glyph-name="cacute" unicode="&#x107;" horiz-adv-x="450" 
d="M255 -11c-27.333 0 -53.665 5 -78.998 15s-47.666 25.333 -66.999 46s-35 46.5 -47 77.5s-18 67.5 -18 109.5c0 63.333 12.333 115.166 37 155.499s52.667 66.5 84 78.5s59.666 18 84.999 18c33.333 0 62.666 -6.5 87.999 -19.5s43.833 -27.167 55.5 -42.5
s20.167 -27.666 25.5 -36.999l-51 -38c-14.667 22.667 -30.5 40.834 -47.5 54.501s-40.167 20.5 -69.5 20.5c-28 0 -53 -9.5 -75 -28.5s-37.5 -42.833 -46.5 -71.5s-13.5 -58 -13.5 -88s3.83301 -56.667 11.5 -80s18 -43 31 -59s28.167 -28.167 45.5 -36.5
s35.666 -12.5 54.999 -12.5c30.667 0 56.167 4.66699 76.5 14s38.5 21.666 54.5 36.999l21 -63c-17.333 -15.333 -39.833 -27.5 -67.5 -36.5s-57.167 -13.5 -88.5 -13.5zM183.001 544l-36 37l159 139l49 -52z" />
    <glyph glyph-name="Ccircumflex" unicode="&#x108;" horiz-adv-x="541" 
d="M311 -13c-37.333 0 -71.999 6.50195 -103.999 19.502s-59.833 33.333 -83.5 61s-42.334 63.167 -56.001 106.5s-20.5 95.666 -20.5 156.999c0 86 15 157 45 213s65.167 92.667 105.5 110s76.833 26 109.5 26c46 0 85.333 -9.66699 118 -29s61.334 -50 86.001 -92l-56 -46
c-17.333 24 -32.333 42 -45 54s-28.667 21.667 -48 29s-38.333 11 -57 11c-56 0 -99.667 -24 -131 -72s-47 -116.333 -47 -205c0 -43.333 4.83301 -81.833 14.5 -115.5s22.667 -62 39 -85s35.833 -40.333 58.5 -52s47 -17.5 73 -17.5c38.667 0 70 6 94 18s47 28.667 69 50
l28 -72c-24.667 -24.667 -55.834 -42.334 -93.501 -53.001s-70.5 -16 -98.5 -16zM200.001 710.002l-43 30l120 144h46l119 -144l-41 -30l-101 112z" />
    <glyph glyph-name="ccircumflex" unicode="&#x109;" horiz-adv-x="450" 
d="M255 -11c-27.333 0 -53.665 5 -78.998 15s-47.666 25.333 -66.999 46s-35 46.5 -47 77.5s-18 67.5 -18 109.5c0 63.333 12.333 115.166 37 155.499s52.667 66.5 84 78.5s59.666 18 84.999 18c33.333 0 62.666 -6.5 87.999 -19.5s43.833 -27.167 55.5 -42.5
s20.167 -27.666 25.5 -36.999l-51 -38c-14.667 22.667 -30.5 40.834 -47.5 54.501s-40.167 20.5 -69.5 20.5c-28 0 -53 -9.5 -75 -28.5s-37.5 -42.833 -46.5 -71.5s-13.5 -58 -13.5 -88s3.83301 -56.667 11.5 -80s18 -43 31 -59s28.167 -28.167 45.5 -36.5
s35.666 -12.5 54.999 -12.5c30.667 0 56.167 4.66699 76.5 14s38.5 21.666 54.5 36.999l21 -63c-17.333 -15.333 -39.833 -27.5 -67.5 -36.5s-57.167 -13.5 -88.5 -13.5zM148.001 544l-43 30l120 144h46l119 -144l-41 -30l-101 112z" />
    <glyph glyph-name="Cdotaccent" unicode="&#x10a;" horiz-adv-x="541" 
d="M311 -13c-37.333 0 -71.999 6.50195 -103.999 19.502s-59.833 33.333 -83.5 61s-42.334 63.167 -56.001 106.5s-20.5 95.666 -20.5 156.999c0 86 15 157 45 213s65.167 92.667 105.5 110s76.833 26 109.5 26c46 0 85.333 -9.66699 118 -29s61.334 -50 86.001 -92l-56 -46
c-17.333 24 -32.333 42 -45 54s-28.667 21.667 -48 29s-38.333 11 -57 11c-56 0 -99.667 -24 -131 -72s-47 -116.333 -47 -205c0 -43.333 4.83301 -81.833 14.5 -115.5s22.667 -62 39 -85s35.833 -40.333 58.5 -52s47 -17.5 73 -17.5c38.667 0 70 6 94 18s47 28.667 69 50
l28 -72c-24.667 -24.667 -55.834 -42.334 -93.501 -53.001s-70.5 -16 -98.5 -16zM307.001 751.002c-15.333 0 -28 5 -38 15s-15 23.667 -15 41s5 31.166 15 41.499s22.667 15.5 38 15.5c16 0 28.833 -5.16699 38.5 -15.5s14.5 -24.166 14.5 -41.499s-4.83301 -31 -14.5 -41
s-22.5 -15 -38.5 -15z" />
    <glyph glyph-name="cdotaccent" unicode="&#x10b;" horiz-adv-x="450" 
d="M255 -11c-27.333 0 -53.665 5 -78.998 15s-47.666 25.333 -66.999 46s-35 46.5 -47 77.5s-18 67.5 -18 109.5c0 63.333 12.333 115.166 37 155.499s52.667 66.5 84 78.5s59.666 18 84.999 18c33.333 0 62.666 -6.5 87.999 -19.5s43.833 -27.167 55.5 -42.5
s20.167 -27.666 25.5 -36.999l-51 -38c-14.667 22.667 -30.5 40.834 -47.5 54.501s-40.167 20.5 -69.5 20.5c-28 0 -53 -9.5 -75 -28.5s-37.5 -42.833 -46.5 -71.5s-13.5 -58 -13.5 -88s3.83301 -56.667 11.5 -80s18 -43 31 -59s28.167 -28.167 45.5 -36.5
s35.666 -12.5 54.999 -12.5c30.667 0 56.167 4.66699 76.5 14s38.5 21.666 54.5 36.999l21 -63c-17.333 -15.333 -39.833 -27.5 -67.5 -36.5s-57.167 -13.5 -88.5 -13.5zM252.001 585c-15.333 0 -28 5 -38 15s-15 23.667 -15 41s5 31.166 15 41.499s22.667 15.5 38 15.5
c16 0 28.833 -5.16699 38.5 -15.5s14.5 -24.166 14.5 -41.499s-4.83301 -31 -14.5 -41s-22.5 -15 -38.5 -15z" />
    <glyph glyph-name="Ccaron" unicode="&#x10c;" horiz-adv-x="541" 
d="M311 -13c-37.333 0 -71.999 6.50195 -103.999 19.502s-59.833 33.333 -83.5 61s-42.334 63.167 -56.001 106.5s-20.5 95.666 -20.5 156.999c0 86 15 157 45 213s65.167 92.667 105.5 110s76.833 26 109.5 26c46 0 85.333 -9.66699 118 -29s61.334 -50 86.001 -92l-56 -46
c-17.333 24 -32.333 42 -45 54s-28.667 21.667 -48 29s-38.333 11 -57 11c-56 0 -99.667 -24 -131 -72s-47 -116.333 -47 -205c0 -43.333 4.83301 -81.833 14.5 -115.5s22.667 -62 39 -85s35.833 -40.333 58.5 -52s47 -17.5 73 -17.5c38.667 0 70 6 94 18s47 28.667 69 50
l28 -72c-24.667 -24.667 -55.834 -42.334 -93.501 -53.001s-70.5 -16 -98.5 -16zM286.001 710.002l-120 144l43 30l100 -112l101 112l41 -30l-119 -144h-46z" />
    <glyph glyph-name="ccaron" unicode="&#x10d;" horiz-adv-x="450" 
d="M255 -11c-27.333 0 -53.665 5 -78.998 15s-47.666 25.333 -66.999 46s-35 46.5 -47 77.5s-18 67.5 -18 109.5c0 63.333 12.333 115.166 37 155.499s52.667 66.5 84 78.5s59.666 18 84.999 18c33.333 0 62.666 -6.5 87.999 -19.5s43.833 -27.167 55.5 -42.5
s20.167 -27.666 25.5 -36.999l-51 -38c-14.667 22.667 -30.5 40.834 -47.5 54.501s-40.167 20.5 -69.5 20.5c-28 0 -53 -9.5 -75 -28.5s-37.5 -42.833 -46.5 -71.5s-13.5 -58 -13.5 -88s3.83301 -56.667 11.5 -80s18 -43 31 -59s28.167 -28.167 45.5 -36.5
s35.666 -12.5 54.999 -12.5c30.667 0 56.167 4.66699 76.5 14s38.5 21.666 54.5 36.999l21 -63c-17.333 -15.333 -39.833 -27.5 -67.5 -36.5s-57.167 -13.5 -88.5 -13.5zM224.001 544l-120 144l43 30l100 -112l101 112l41 -30l-119 -144h-46z" />
    <glyph glyph-name="Dcaron" unicode="&#x10e;" horiz-adv-x="581" 
d="M77 0l0.000976562 667h163c25.333 0 51.166 -2.16699 77.499 -6.5s50.833 -12.166 73.5 -23.499c34.667 -18 64 -41.833 88 -71.5s41.333 -64.667 52 -105s16 -79.5 16 -117.5c0 -64.667 -9.5 -120.334 -28.5 -167.001s-44.667 -83.667 -77 -111s-64.5 -45 -96.5 -53
s-67 -12 -105 -12h-163zM153.001 69h78.001c40 0 72 4.66699 96 14c28 12.667 53.5 31.5 76.5 56.5s39.167 55.167 48.5 90.5s14 71.666 14 108.999c0 58 -8.33301 104.667 -25 140s-39.667 63 -69 83c-18.667 12.667 -40.334 21.834 -65.001 27.501s-48.667 8.5 -72 8.5
h-82v-529zM235.002 710l-120 144l43 30l100 -112l101 112l41 -30l-119 -144h-46z" />
    <glyph glyph-name="dcaron" unicode="&#x10f;" horiz-adv-x="528" 
d="M245 -11c-32 0 -60.499 6.50098 -85.499 19.501s-46 30.833 -63 53.5s-30 49.5 -39 80.5s-13.5 64.5 -13.5 100.5c0 50 10.667 95 32 135s48.333 68.5 81 85.5s67.334 25.5 104.001 25.5c23.333 0 43.166 -1.83301 59.499 -5.5s30.166 -7.83398 41.499 -12.501v196h73
v-667h-67l-6 39c-16.667 -18 -34.5 -30.833 -53.5 -38.5s-40.167 -11.5 -63.5 -11.5zM257.001 51.001c19.333 0 38 4.16797 56 12.501s34.333 22.166 49 41.499v299c-12 6.66699 -27 12.167 -45 16.5s-32.667 6.5 -44 6.5c-37.333 0 -69 -11 -95 -33
s-42.833 -47.5 -50.5 -76.5s-11.5 -55.167 -11.5 -78.5c0 -42 6.83301 -78.333 20.5 -109s31.167 -51.5 52.5 -62.5s44 -16.5 68 -16.5zM493.001 497.002v170h75l-28 -170h-47z" />
    <glyph glyph-name="Dcroat" unicode="&#x110;" horiz-adv-x="581" 
d="M77 0l-0.00195312 315.999h-78v62h78v289h164c24.667 0 50.334 -2.16699 77.001 -6.5s51 -12.166 73 -23.499c46 -22.667 83.5 -58.167 112.5 -106.5s43.5 -110.833 43.5 -187.5c0 -79.333 -14 -145 -42 -197s-64.167 -89.333 -108.5 -112s-96.166 -34 -155.499 -34h-164
zM152.998 68.999l77.999 0.000976562c40 0 72 4.66699 96 14c30 14 56.333 33.667 79 59s38.5 55.166 47.5 89.499s13.5 70.166 13.5 107.499c0 58 -8.5 104.667 -25.5 140s-40.167 63 -69.5 83c-18.667 12.667 -40.167 21.834 -64.5 27.501s-48.166 8.5 -71.499 8.5h-83
v-220h152v-62h-152v-247z" />
    <glyph glyph-name="dcroat" unicode="&#x111;" horiz-adv-x="498" 
d="M245 -11c-32 0 -60.499 6.50098 -85.499 19.501s-46 30.833 -63 53.5s-30 49.5 -39 80.5s-13.5 64.5 -13.5 100.5c0 50 10.667 95 32 135s48.333 68.5 81 85.5s67.334 25.5 104.001 25.5c23.333 0 43.166 -1.83301 59.499 -5.5s30.166 -7.83398 41.499 -12.501v70h-138
v58h138v68h73v-68h61v-58h-61v-541h-67l-6 39c-16.667 -18 -34.5 -30.833 -53.5 -38.5s-40.167 -11.5 -63.5 -11.5zM257.001 51.001c19.333 0 38 4.16797 56 12.501s34.333 22.166 49 41.499v299c-12 6.66699 -27 12.167 -45 16.5s-32.667 6.5 -44 6.5
c-37.333 0 -69 -11 -95 -33s-42.833 -47.5 -50.5 -76.5s-11.5 -55.167 -11.5 -78.5c0 -42 6.83301 -78.333 20.5 -109s31.167 -51.5 52.5 -62.5s44 -16.5 68 -16.5z" />
    <glyph glyph-name="Emacron" unicode="&#x112;" horiz-adv-x="488" 
d="M77 0v667h370v-69h-294v-214h210v-69h-211v-246h317v-69h-392zM126 773v62h280v-62h-280z" />
    <glyph glyph-name="emacron" unicode="&#x113;" horiz-adv-x="483" 
d="M266 -11c-68 0 -121.998 21.5 -161.998 64.5s-60 105.5 -60 187.5c0 54.667 10.167 102 30.5 142s46.166 67.667 77.499 83s62.666 23 93.999 23c47.333 0 86.666 -12.333 117.999 -37s52.833 -56.667 64.5 -96s17.5 -77 17.5 -113h-330c0 -60 13 -107 39 -141
s63.667 -51 113 -51c29.333 0 55.333 5 78 15s43 22.667 61 38l19 -63c-14.667 -14.667 -37.167 -27 -67.5 -37s-61.166 -15 -92.499 -15zM123.002 304h240c-1.33301 27.333 -8.5 51 -21.5 71s-28.833 33.833 -47.5 41.5s-34.667 11.5 -48 11.5c-30 0 -56 -9.5 -78 -28.5
s-37 -50.833 -45 -95.5zM120.002 607v62h280v-62h-280z" />
    <glyph glyph-name="Ebreve" unicode="&#x114;" horiz-adv-x="488" 
d="M77 0v667h370v-69h-294v-214h210v-69h-211v-246h317v-69h-392zM265 720c-26 0 -49.668 5.83301 -71.001 17.5s-36.5 27 -45.5 46s-13.833 40.5 -14.5 64.5h60c2 -20 7.5 -36 16.5 -48s18.833 -19.167 29.5 -21.5s20.334 -3.5 29.001 -3.5
c16.667 0 32.167 4.83301 46.5 14.5s24.166 29.167 29.499 58.5h57c-3.33301 -35.333 -13.5 -63 -30.5 -83s-35.167 -32.5 -54.5 -37.5s-36.666 -7.5 -51.999 -7.5z" />
    <glyph glyph-name="ebreve" unicode="&#x115;" horiz-adv-x="483" 
d="M266 -11c-68 0 -121.998 21.5 -161.998 64.5s-60 105.5 -60 187.5c0 54.667 10.167 102 30.5 142s46.166 67.667 77.499 83s62.666 23 93.999 23c47.333 0 86.666 -12.333 117.999 -37s52.833 -56.667 64.5 -96s17.5 -77 17.5 -113h-330c0 -60 13 -107 39 -141
s63.667 -51 113 -51c29.333 0 55.333 5 78 15s43 22.667 61 38l19 -63c-14.667 -14.667 -37.167 -27 -67.5 -37s-61.166 -15 -92.499 -15zM123.002 304h240c-1.33301 27.333 -8.5 51 -21.5 71s-28.833 33.833 -47.5 41.5s-34.667 11.5 -48 11.5c-30 0 -56 -9.5 -78 -28.5
s-37 -50.833 -45 -95.5zM252.002 554c-26 0 -49.668 5.83301 -71.001 17.5s-36.5 27 -45.5 46s-13.833 40.5 -14.5 64.5h60c2 -20 7.5 -36 16.5 -48s18.833 -19.167 29.5 -21.5s20.334 -3.5 29.001 -3.5c16.667 0 32.167 4.83301 46.5 14.5s24.166 29.167 29.499 58.5h57
c-3.33301 -35.333 -13.5 -63 -30.5 -83s-35.167 -32.5 -54.5 -37.5s-36.666 -7.5 -51.999 -7.5z" />
    <glyph glyph-name="Edotaccent" unicode="&#x116;" horiz-adv-x="488" 
d="M77 0v667h370v-69h-294v-214h210v-69h-211v-246h317v-69h-392zM263 751c-15.333 0 -28 5 -38 15s-15 23.667 -15 41s5 31.166 15 41.499s22.667 15.5 38 15.5c16 0 28.833 -5.16699 38.5 -15.5s14.5 -24.166 14.5 -41.499s-4.83301 -31 -14.5 -41s-22.5 -15 -38.5 -15z
" />
    <glyph glyph-name="edotaccent" unicode="&#x117;" horiz-adv-x="483" 
d="M266 -11c-68 0 -121.998 21.5 -161.998 64.5s-60 105.5 -60 187.5c0 54.667 10.167 102 30.5 142s46.166 67.667 77.499 83s62.666 23 93.999 23c47.333 0 86.666 -12.333 117.999 -37s52.833 -56.667 64.5 -96s17.5 -77 17.5 -113h-330c0 -60 13 -107 39 -141
s63.667 -51 113 -51c29.333 0 55.333 5 78 15s43 22.667 61 38l19 -63c-14.667 -14.667 -37.167 -27 -67.5 -37s-61.166 -15 -92.499 -15zM123.002 304h240c-1.33301 27.333 -8.5 51 -21.5 71s-28.833 33.833 -47.5 41.5s-34.667 11.5 -48 11.5c-30 0 -56 -9.5 -78 -28.5
s-37 -50.833 -45 -95.5zM252.002 585c-15.333 0 -28 5 -38 15s-15 23.667 -15 41s5 31.166 15 41.499s22.667 15.5 38 15.5c16 0 28.833 -5.16699 38.5 -15.5s14.5 -24.166 14.5 -41.499s-4.83301 -31 -14.5 -41s-22.5 -15 -38.5 -15z" />
    <glyph glyph-name="Eogonek" unicode="&#x118;" horiz-adv-x="488" 
d="M77 0v667h370v-69h-294v-214h210v-69h-211v-246h317v-69h-392zM392 -198c-28 0 -50.165 6.83008 -66.498 20.4971s-24.5 33.834 -24.5 60.501c0 20.667 7 41.834 21 63.501s28.167 37.834 42.5 48.501s26.166 18.667 35.499 24l48 -16c-14 -10 -27.333 -20.833 -40 -32.5
s-22.167 -23.667 -28.5 -36s-9.5 -23.833 -9.5 -34.5c0 -9.33301 2.5 -17.833 7.5 -25.5s14.5 -11.5 28.5 -11.5c13.333 0 25.333 3.66699 36 11l16 -55c-8 -4.66699 -17.833 -8.66699 -29.5 -12s-23.834 -5 -36.501 -5z" />
    <glyph glyph-name="eogonek" unicode="&#x119;" horiz-adv-x="483" 
d="M266 -11c-68 0 -121.998 21.5 -161.998 64.5s-60 105.5 -60 187.5c0 54.667 10.167 102 30.5 142s46.166 67.667 77.499 83s62.666 23 93.999 23c47.333 0 86.666 -12.333 117.999 -37s52.833 -56.667 64.5 -96s17.5 -77 17.5 -113h-330c0 -60 13 -107 39 -141
s63.667 -51 113 -51c29.333 0 55.333 5 78 15s43 22.667 61 38l19 -63c-14.667 -14.667 -37.167 -27 -67.5 -37s-61.166 -15 -92.499 -15zM123.002 304h240c-1.33301 27.333 -8.5 51 -21.5 71s-28.833 33.833 -47.5 41.5s-34.667 11.5 -48 11.5c-30 0 -56 -9.5 -78 -28.5
s-37 -50.833 -45 -95.5zM299.002 -198c-28 0 -50.165 6.83008 -66.498 20.4971s-24.5 33.834 -24.5 60.501c0 20.667 7 41.834 21 63.501s28.167 37.834 42.5 48.501s26.166 18.667 35.499 24l48 -16c-14 -10 -27.333 -20.833 -40 -32.5s-22.167 -23.667 -28.5 -36
s-9.5 -23.833 -9.5 -34.5c0 -9.33301 2.5 -17.833 7.5 -25.5s14.5 -11.5 28.5 -11.5c13.333 0 25.333 3.66699 36 11l16 -55c-8 -4.66699 -17.833 -8.66699 -29.5 -12s-23.834 -5 -36.501 -5z" />
    <glyph glyph-name="Ecaron" unicode="&#x11a;" horiz-adv-x="488" 
d="M77 0v667h370v-69h-294v-214h210v-69h-211v-246h317v-69h-392zM244 710l-120 144l43 30l100 -112l101 112l41 -30l-119 -144h-46z" />
    <glyph glyph-name="ecaron" unicode="&#x11b;" horiz-adv-x="483" 
d="M266 -11c-68 0 -121.998 21.5 -161.998 64.5s-60 105.5 -60 187.5c0 54.667 10.167 102 30.5 142s46.166 67.667 77.499 83s62.666 23 93.999 23c47.333 0 86.666 -12.333 117.999 -37s52.833 -56.667 64.5 -96s17.5 -77 17.5 -113h-330c0 -60 13 -107 39 -141
s63.667 -51 113 -51c29.333 0 55.333 5 78 15s43 22.667 61 38l19 -63c-14.667 -14.667 -37.167 -27 -67.5 -37s-61.166 -15 -92.499 -15zM123.002 304h240c-1.33301 27.333 -8.5 51 -21.5 71s-28.833 33.833 -47.5 41.5s-34.667 11.5 -48 11.5c-30 0 -56 -9.5 -78 -28.5
s-37 -50.833 -45 -95.5zM230.002 544l-120 144l43 30l100 -112l101 112l41 -30l-119 -144h-46z" />
    <glyph glyph-name="Gcircumflex" unicode="&#x11c;" horiz-adv-x="567" 
d="M317 -13c-37.333 0 -72.334 6.50195 -105.001 19.502s-61.167 33.333 -85.5 61s-43.666 63.167 -57.999 106.5s-21.5 95.666 -21.5 156.999c0 88.667 14.667 160.5 44 215.5s63.5 91 102.5 108s75.167 25.5 108.5 25.5c28.667 0 53.667 -3 75 -9s40.333 -14.333 57 -25
s31.167 -23.334 43.5 -38.001s23.5 -30.667 33.5 -48l-56 -47c-19.333 29.333 -40 52.666 -62 69.999s-50 26 -84 26c-40 0 -74.667 -12.833 -104 -38.5s-49.666 -60 -60.999 -103s-17 -88.833 -17 -137.5c0 -43.333 5.16699 -82 15.5 -116s24.166 -62.667 41.499 -86
s37.5 -41 60.5 -53s47.5 -18 73.5 -18c28.667 0 53.5 1.83301 74.5 5.5s38.167 7.83398 51.5 12.501v174h-105v70h181v-294c-18.667 -8.66699 -46.167 -17.167 -82.5 -25.5s-76.5 -12.5 -120.5 -12.5zM216.999 710.002l-43 30l120 144h46l119 -144l-41 -30l-101 112z" />
    <glyph glyph-name="gcircumflex" unicode="&#x11d;" horiz-adv-x="498" 
d="M226 -198c-27.333 0 -57.665 3.99902 -90.998 11.999s-56.333 16 -69 24l17 67c18 -10.667 38.667 -19.834 62 -27.501s50 -11.5 80 -11.5c48 0 82.833 11.833 104.5 35.5s32.5 55.834 32.5 96.501v47c-16.667 -18 -34.5 -30.833 -53.5 -38.5s-40.167 -11.5 -63.5 -11.5
c-32 0 -60.5 6.16699 -85.5 18.5s-46 29.5 -63 51.5s-30 48.167 -39 78.5s-13.5 63.5 -13.5 99.5c0 30.667 4.66699 60.834 14 90.501s23.5 56 42.5 79s42.833 41.5 71.5 55.5s62.667 21 102 21c25.333 0 52.166 -2.5 80.499 -7.5s55.166 -12.5 80.499 -22.5v-461
c0 -44.667 -9.83301 -82 -29.5 -112s-46 -51.5 -79 -64.5s-66.5 -19.5 -100.5 -19.5zM257.001 56.999c19.333 0 38.001 4.16797 56.001 12.501s34.333 22.166 49 41.499v301c-26 10 -55.667 15 -89 15c-37.333 0 -69 -11 -95 -33s-42.833 -47.5 -50.5 -76.5
s-11.5 -55.167 -11.5 -78.5c0 -40.667 6.66699 -76 20 -106s30.666 -50.167 51.999 -60.5s44.333 -15.5 69 -15.5zM169.002 544l-43 30l120 144h46l119 -144l-41 -30l-101 112z" />
    <glyph glyph-name="Gbreve" unicode="&#x11e;" horiz-adv-x="567" 
d="M317 -13c-37.333 0 -72.334 6.50195 -105.001 19.502s-61.167 33.333 -85.5 61s-43.666 63.167 -57.999 106.5s-21.5 95.666 -21.5 156.999c0 88.667 14.667 160.5 44 215.5s63.5 91 102.5 108s75.167 25.5 108.5 25.5c28.667 0 53.667 -3 75 -9s40.333 -14.333 57 -25
s31.167 -23.334 43.5 -38.001s23.5 -30.667 33.5 -48l-56 -47c-19.333 29.333 -40 52.666 -62 69.999s-50 26 -84 26c-40 0 -74.667 -12.833 -104 -38.5s-49.666 -60 -60.999 -103s-17 -88.833 -17 -137.5c0 -43.333 5.16699 -82 15.5 -116s24.166 -62.667 41.499 -86
s37.5 -41 60.5 -53s47.5 -18 73.5 -18c28.667 0 53.5 1.83301 74.5 5.5s38.167 7.83398 51.5 12.501v174h-105v70h181v-294c-18.667 -8.66699 -46.167 -17.167 -82.5 -25.5s-76.5 -12.5 -120.5 -12.5zM309.999 720.002c-26 0 -49.668 5.83301 -71.001 17.5
s-36.5 27 -45.5 46s-13.833 40.5 -14.5 64.5h60c2 -20 7.5 -36 16.5 -48s18.833 -19.167 29.5 -21.5s20.334 -3.5 29.001 -3.5c16.667 0 32.167 4.83301 46.5 14.5s24.166 29.167 29.499 58.5h57c-3.33301 -35.333 -13.5 -63 -30.5 -83s-35.167 -32.5 -54.5 -37.5
s-36.666 -7.5 -51.999 -7.5z" />
    <glyph glyph-name="gbreve" unicode="&#x11f;" horiz-adv-x="498" 
d="M226 -198c-27.333 0 -57.665 3.99902 -90.998 11.999s-56.333 16 -69 24l17 67c18 -10.667 38.667 -19.834 62 -27.501s50 -11.5 80 -11.5c48 0 82.833 11.833 104.5 35.5s32.5 55.834 32.5 96.501v47c-16.667 -18 -34.5 -30.833 -53.5 -38.5s-40.167 -11.5 -63.5 -11.5
c-32 0 -60.5 6.16699 -85.5 18.5s-46 29.5 -63 51.5s-30 48.167 -39 78.5s-13.5 63.5 -13.5 99.5c0 30.667 4.66699 60.834 14 90.501s23.5 56 42.5 79s42.833 41.5 71.5 55.5s62.667 21 102 21c25.333 0 52.166 -2.5 80.499 -7.5s55.166 -12.5 80.499 -22.5v-461
c0 -44.667 -9.83301 -82 -29.5 -112s-46 -51.5 -79 -64.5s-66.5 -19.5 -100.5 -19.5zM257.001 56.999c19.333 0 38.001 4.16797 56.001 12.501s34.333 22.166 49 41.499v301c-26 10 -55.667 15 -89 15c-37.333 0 -69 -11 -95 -33s-42.833 -47.5 -50.5 -76.5
s-11.5 -55.167 -11.5 -78.5c0 -40.667 6.66699 -76 20 -106s30.666 -50.167 51.999 -60.5s44.333 -15.5 69 -15.5zM271.002 554c-26 0 -49.668 5.83301 -71.001 17.5s-36.5 27 -45.5 46s-13.833 40.5 -14.5 64.5h60c2 -20 7.5 -36 16.5 -48s18.833 -19.167 29.5 -21.5
s20.334 -3.5 29.001 -3.5c16.667 0 32.167 4.83301 46.5 14.5s24.166 29.167 29.499 58.5h57c-3.33301 -35.333 -13.5 -63 -30.5 -83s-35.167 -32.5 -54.5 -37.5s-36.666 -7.5 -51.999 -7.5z" />
    <glyph glyph-name="Gdotaccent" unicode="&#x120;" horiz-adv-x="567" 
d="M317 -13c-37.333 0 -72.334 6.50195 -105.001 19.502s-61.167 33.333 -85.5 61s-43.666 63.167 -57.999 106.5s-21.5 95.666 -21.5 156.999c0 88.667 14.667 160.5 44 215.5s63.5 91 102.5 108s75.167 25.5 108.5 25.5c28.667 0 53.667 -3 75 -9s40.333 -14.333 57 -25
s31.167 -23.334 43.5 -38.001s23.5 -30.667 33.5 -48l-56 -47c-19.333 29.333 -40 52.666 -62 69.999s-50 26 -84 26c-40 0 -74.667 -12.833 -104 -38.5s-49.666 -60 -60.999 -103s-17 -88.833 -17 -137.5c0 -43.333 5.16699 -82 15.5 -116s24.166 -62.667 41.499 -86
s37.5 -41 60.5 -53s47.5 -18 73.5 -18c28.667 0 53.5 1.83301 74.5 5.5s38.167 7.83398 51.5 12.501v174h-105v70h181v-294c-18.667 -8.66699 -46.167 -17.167 -82.5 -25.5s-76.5 -12.5 -120.5 -12.5zM316.999 751.002c-15.333 0 -28 5 -38 15s-15 23.667 -15 41
s5 31.166 15 41.499s22.667 15.5 38 15.5c16 0 28.833 -5.16699 38.5 -15.5s14.5 -24.166 14.5 -41.499s-4.83301 -31 -14.5 -41s-22.5 -15 -38.5 -15z" />
    <glyph glyph-name="gdotaccent" unicode="&#x121;" horiz-adv-x="498" 
d="M226 -198c-27.333 0 -57.665 3.99902 -90.998 11.999s-56.333 16 -69 24l17 67c18 -10.667 38.667 -19.834 62 -27.501s50 -11.5 80 -11.5c48 0 82.833 11.833 104.5 35.5s32.5 55.834 32.5 96.501v47c-16.667 -18 -34.5 -30.833 -53.5 -38.5s-40.167 -11.5 -63.5 -11.5
c-32 0 -60.5 6.16699 -85.5 18.5s-46 29.5 -63 51.5s-30 48.167 -39 78.5s-13.5 63.5 -13.5 99.5c0 30.667 4.66699 60.834 14 90.501s23.5 56 42.5 79s42.833 41.5 71.5 55.5s62.667 21 102 21c25.333 0 52.166 -2.5 80.499 -7.5s55.166 -12.5 80.499 -22.5v-461
c0 -44.667 -9.83301 -82 -29.5 -112s-46 -51.5 -79 -64.5s-66.5 -19.5 -100.5 -19.5zM257.001 56.999c19.333 0 38.001 4.16797 56.001 12.501s34.333 22.166 49 41.499v301c-26 10 -55.667 15 -89 15c-37.333 0 -69 -11 -95 -33s-42.833 -47.5 -50.5 -76.5
s-11.5 -55.167 -11.5 -78.5c0 -40.667 6.66699 -76 20 -106s30.666 -50.167 51.999 -60.5s44.333 -15.5 69 -15.5zM273.002 585c-15.333 0 -28 5 -38 15s-15 23.667 -15 41s5 31.166 15 41.499s22.667 15.5 38 15.5c16 0 28.833 -5.16699 38.5 -15.5
s14.5 -24.166 14.5 -41.499s-4.83301 -31 -14.5 -41s-22.5 -15 -38.5 -15z" />
    <glyph glyph-name="Gcommaaccent" unicode="&#x122;" horiz-adv-x="567" 
d="M317 -13c-37.333 0 -72.334 6.50195 -105.001 19.502s-61.167 33.333 -85.5 61s-43.666 63.167 -57.999 106.5s-21.5 95.666 -21.5 156.999c0 88.667 14.667 160.5 44 215.5s63.5 91 102.5 108s75.167 25.5 108.5 25.5c28.667 0 53.667 -3 75 -9s40.333 -14.333 57 -25
s31.167 -23.334 43.5 -38.001s23.5 -30.667 33.5 -48l-56 -47c-19.333 29.333 -40 52.666 -62 69.999s-50 26 -84 26c-40 0 -74.667 -12.833 -104 -38.5s-49.666 -60 -60.999 -103s-17 -88.833 -17 -137.5c0 -43.333 5.16699 -82 15.5 -116s24.166 -62.667 41.499 -86
s37.5 -41 60.5 -53s47.5 -18 73.5 -18c28.667 0 53.5 1.83301 74.5 5.5s38.167 7.83398 51.5 12.501v174h-105v70h181v-294c-18.667 -8.66699 -46.167 -17.167 -82.5 -25.5s-76.5 -12.5 -120.5 -12.5zM231.999 -173.998l48 130h78l-68 -130h-58z" />
    <glyph glyph-name="gcommaaccent" unicode="&#x123;" horiz-adv-x="498" 
d="M226 -198c-27.333 0 -57.665 3.99902 -90.998 11.999s-56.333 16 -69 24l17 67c18 -10.667 38.667 -19.834 62 -27.501s50 -11.5 80 -11.5c48 0 82.833 11.833 104.5 35.5s32.5 55.834 32.5 96.501v47c-16.667 -18 -34.5 -30.833 -53.5 -38.5s-40.167 -11.5 -63.5 -11.5
c-32 0 -60.5 6.16699 -85.5 18.5s-46 29.5 -63 51.5s-30 48.167 -39 78.5s-13.5 63.5 -13.5 99.5c0 30.667 4.66699 60.834 14 90.501s23.5 56 42.5 79s42.833 41.5 71.5 55.5s62.667 21 102 21c25.333 0 52.166 -2.5 80.499 -7.5s55.166 -12.5 80.499 -22.5v-461
c0 -44.667 -9.83301 -82 -29.5 -112s-46 -51.5 -79 -64.5s-66.5 -19.5 -100.5 -19.5zM257.001 56.999c19.333 0 38.001 4.16797 56.001 12.501s34.333 22.166 49 41.499v301c-26 10 -55.667 15 -89 15c-37.333 0 -69 -11 -95 -33s-42.833 -47.5 -50.5 -76.5
s-11.5 -55.167 -11.5 -78.5c0 -40.667 6.66699 -76 20 -106s30.666 -50.167 51.999 -60.5s44.333 -15.5 69 -15.5zM233.002 569l72 130h61l-51 -130h-82z" />
    <glyph glyph-name="Hcircumflex" unicode="&#x124;" horiz-adv-x="622" 
d="M77 0v667h76v-289h317v289h75v-667h-75v307h-317v-307h-76zM220 710l-43 30l120 144h46l119 -144l-41 -30l-101 112z" />
    <glyph glyph-name="hcircumflex" unicode="&#x125;" horiz-adv-x="512" 
d="M66 0v667.002h73v-228c18.667 14 39.5 25.833 62.5 35.5s49.167 14.5 78.5 14.5c61.333 0 104.833 -16.333 130.5 -49s38.5 -80.334 38.5 -143.001v-297h-74v298c0 44 -8.5 76.5 -25.5 97.5s-44.5 31.5 -82.5 31.5c-24 0 -47.167 -5.83301 -69.5 -17.5
s-41.833 -23.834 -58.5 -36.501v-373h-73zM131 710.002l-43 30l120 144h46l119 -144l-41 -30l-101 112z" />
    <glyph glyph-name="Hbar" unicode="&#x126;" horiz-adv-x="622" 
d="M77 0v488h-100v62h100v117h76v-117h317v117h75v-117h99v-62h-99v-488h-75v307h-317v-307h-76zM153 378h317v110h-317v-110z" />
    <glyph glyph-name="hbar" unicode="&#x127;" horiz-adv-x="512" 
d="M66 0v547.002h-73v62h73v58h73v-58h196v-62h-196v-108c18.667 14 39.5 25.833 62.5 35.5s49.167 14.5 78.5 14.5c61.333 0 104.833 -16.333 130.5 -49s38.5 -80.334 38.5 -143.001v-297h-74v298c0 44 -8.5 76.5 -25.5 97.5s-44.5 31.5 -82.5 31.5
c-24 0 -47.167 -5.83301 -69.5 -17.5s-41.833 -23.834 -58.5 -36.501v-373h-73z" />
    <glyph glyph-name="Itilde" unicode="&#x128;" horiz-adv-x="230" 
d="M77 0v667h76v-667h-76zM-2 735l-45.999 23c9.33301 30 22.5 54 39.5 72s36.5 27 58.5 27c14 0 27.833 -3.5 41.5 -10.5s26.5 -15.167 38.5 -24.5c18.667 -14.667 35 -22 49 -22c9.33301 0 18.666 4.33301 27.999 13s18.666 24 27.999 46l46 -24
c-10 -30.667 -23.5 -54.667 -40.5 -72s-36.5 -26 -58.5 -26c-12 0 -23.667 2.66699 -35 8s-22.666 12 -33.999 20c-26.667 19.333 -46.667 29 -60 29c-11.333 0 -21 -4.5 -29 -13.5s-16.667 -24.167 -26 -45.5z" />
    <glyph glyph-name="itilde" unicode="&#x129;" horiz-adv-x="204" 
d="M66 0v477h73v-477h-73zM-16 569l-45.999 23c9.33301 30 22.5 54 39.5 72s36.5 27 58.5 27c14 0 27.833 -3.5 41.5 -10.5s26.5 -15.167 38.5 -24.5c18.667 -14.667 35 -22 49 -22c9.33301 0 18.666 4.33301 27.999 13s18.666 24 27.999 46l46 -24
c-10 -30.667 -23.5 -54.667 -40.5 -72s-36.5 -26 -58.5 -26c-12 0 -23.667 2.66699 -35 8s-22.666 12 -33.999 20c-26.667 19.333 -46.667 29 -60 29c-11.333 0 -21 -4.5 -29 -13.5s-16.667 -24.167 -26 -45.5z" />
    <glyph glyph-name="Imacron" unicode="&#x12a;" horiz-adv-x="230" 
d="M77 0v667h76v-667h-76zM-27 773v62h280v-62h-280z" />
    <glyph glyph-name="imacron" unicode="&#x12b;" horiz-adv-x="204" 
d="M66 0v477h73v-477h-73zM-39 607v62h280v-62h-280z" />
    <glyph glyph-name="Ibreve" unicode="&#x12c;" horiz-adv-x="230" 
d="M77 0v667h76v-667h-76zM119 720c-26 0 -49.668 5.83301 -71.001 17.5s-36.5 27 -45.5 46s-13.833 40.5 -14.5 64.5h60c2 -20 7.5 -36 16.5 -48s18.833 -19.167 29.5 -21.5s20.334 -3.5 29.001 -3.5c16.667 0 32.167 4.83301 46.5 14.5s24.166 29.167 29.499 58.5h57
c-3.33301 -35.333 -13.5 -63 -30.5 -83s-35.167 -32.5 -54.5 -37.5s-36.666 -7.5 -51.999 -7.5z" />
    <glyph glyph-name="ibreve" unicode="&#x12d;" horiz-adv-x="204" 
d="M66 0v477h73v-477h-73zM105 554c-26 0 -49.668 5.83301 -71.001 17.5s-36.5 27 -45.5 46s-13.833 40.5 -14.5 64.5h60c2 -20 7.5 -36 16.5 -48s18.833 -19.167 29.5 -21.5s20.334 -3.5 29.001 -3.5c16.667 0 32.167 4.83301 46.5 14.5s24.166 29.167 29.499 58.5h57
c-3.33301 -35.333 -13.5 -63 -30.5 -83s-35.167 -32.5 -54.5 -37.5s-36.666 -7.5 -51.999 -7.5z" />
    <glyph glyph-name="Iogonek" unicode="&#x12e;" horiz-adv-x="230" 
d="M77 0v667h76v-667h-76zM102 -198c-28 0 -50.165 6.83008 -66.498 20.4971s-24.5 33.834 -24.5 60.501c0 20.667 7 41.834 21 63.501s28.167 37.834 42.5 48.501s26.166 18.667 35.499 24l48 -16c-14 -10 -27.333 -20.833 -40 -32.5s-22.167 -23.667 -28.5 -36
s-9.5 -23.833 -9.5 -34.5c0 -9.33301 2.5 -17.833 7.5 -25.5s14.5 -11.5 28.5 -11.5c13.333 0 25.333 3.66699 36 11l16 -55c-8 -4.66699 -17.833 -8.66699 -29.5 -12s-23.834 -5 -36.501 -5z" />
    <glyph glyph-name="iogonek" unicode="&#x12f;" horiz-adv-x="205" 
d="M66 0v477h74v-477h-74zM103 561c-13.333 0 -24.833 4.16699 -34.5 12.5s-14.5 20.5 -14.5 36.5c0 15.333 4.83301 27.333 14.5 36s21.167 13 34.5 13s24.666 -4.33301 33.999 -13s14 -20.667 14 -36c0 -16 -4.66699 -28.167 -14 -36.5s-20.666 -12.5 -33.999 -12.5z
M90 -198c-28 0 -50.165 6.83008 -66.498 20.4971s-24.5 33.834 -24.5 60.501c0 20.667 7 41.834 21 63.501s28.167 37.834 42.5 48.501s26.166 18.667 35.499 24l48 -16c-14 -10 -27.333 -20.833 -40 -32.5s-22.167 -23.667 -28.5 -36s-9.5 -23.833 -9.5 -34.5
c0 -9.33301 2.5 -17.833 7.5 -25.5s14.5 -11.5 28.5 -11.5c13.333 0 25.333 3.66699 36 11l16 -55c-8 -4.66699 -17.833 -8.66699 -29.5 -12s-23.834 -5 -36.501 -5z" />
    <glyph glyph-name="Idotaccent" unicode="&#x130;" horiz-adv-x="230" 
d="M77 0v667h76v-667h-76zM120 751c-15.333 0 -28 5 -38 15s-15 23.667 -15 41s5 31.166 15 41.499s22.667 15.5 38 15.5c16 0 28.833 -5.16699 38.5 -15.5s14.5 -24.166 14.5 -41.499s-4.83301 -31 -14.5 -41s-22.5 -15 -38.5 -15z" />
    <glyph glyph-name="dotlessi" unicode="&#x131;" horiz-adv-x="204" 
d="M66 0v477h73v-477h-73z" />
    <glyph glyph-name="IJ" unicode="&#x132;" horiz-adv-x="570" 
d="M77 0v667h76v-667h-76zM342 -11c-32 0 -58.167 3.5 -78.5 10.5s-35.5 13.833 -45.5 20.5l25 68c6 -6.66699 18.333 -13.5 37 -20.5s38 -10.5 58 -10.5c29.333 0 51.833 8 67.5 24s23.5 44.667 23.5 86v500h76v-507c0 -58 -14 -101 -42 -129s-68.333 -42 -121 -42z" />
    <glyph glyph-name="ij" unicode="&#x133;" horiz-adv-x="406" 
d="M66 0v477h74v-477h-74zM103 561c-13.333 0 -24.833 4.16699 -34.5 12.5s-14.5 20.5 -14.5 36.5c0 15.333 4.83301 27.333 14.5 36s21.167 13 34.5 13s24.666 -4.33301 33.999 -13s14 -20.667 14 -36c0 -16 -4.66699 -28.167 -14 -36.5s-20.666 -12.5 -33.999 -12.5z
M232 -197l-29 60.001c30.667 22 49 41.5 55 58.5s9 37.5 9 61.5v494h74v-492c0 -46.667 -9.16699 -83.834 -27.5 -111.501s-45.5 -51.167 -81.5 -70.5zM304 561.001c-13.333 0 -24.833 4.16699 -34.5 12.5s-14.5 20.5 -14.5 36.5c0 15.333 4.83301 27.333 14.5 36
s21.167 13 34.5 13s24.666 -4.33301 33.999 -13s14 -20.667 14 -36c0 -16 -4.66699 -28.167 -14 -36.5s-20.666 -12.5 -33.999 -12.5z" />
    <glyph glyph-name="Jcircumflex" unicode="&#x134;" horiz-adv-x="348" 
d="M120 -11c-32 0 -58.167 3.5 -78.5 10.5s-35.5 13.833 -45.5 20.5l25 68c6 -6.66699 18.333 -13.5 37 -20.5s38 -10.5 58 -10.5c29.333 0 51.833 8 67.5 24s23.5 44.667 23.5 86v500h76v-507c0 -58 -14 -101 -42 -129s-68.333 -42 -121 -42zM148 710l-43 30l120 144h46
l119 -144l-41 -30l-101 112z" />
    <glyph glyph-name="jcircumflex" unicode="&#x135;" horiz-adv-x="205" 
d="M31 -197l-29 60.001c30.667 22 49 41.5 55 58.5s9 37.5 9 61.5v494h74v-492c0 -46.667 -9.16699 -83.834 -27.5 -111.501s-45.5 -51.167 -81.5 -70.5zM5 544.001l-43 30l120 144h46l119 -144l-41 -30l-101 112z" />
    <glyph glyph-name="Kcommaaccent" unicode="&#x136;" horiz-adv-x="541" 
d="M435 0l-85.002 207.001c-16.667 38 -28.667 62.167 -36 72.5s-17 18.166 -29 23.499s-25 8 -39 8h-93v-310h-76v666h76v-291h81c18.667 0 34.834 4.5 48.501 13.5s27.5 29.167 41.5 60.5l95 217h82l-101 -226c-10.667 -23.333 -21.667 -41.833 -33 -55.5
s-23.666 -23.167 -36.999 -28.5c19.333 -5.33301 34.5 -14.333 45.5 -27s21.167 -30.667 30.5 -54l110 -276h-81zM198.998 -173.999l48 130h78l-68 -130h-58z" />
    <glyph glyph-name="kcommaaccent" unicode="&#x137;" horiz-adv-x="450" 
d="M66 0l-0.000976562 666.997h73v-367h49c18.667 0 35.334 4.83301 50.001 14.5s29 30.167 43 61.5l44 101h79l-50 -110c-10.667 -23.333 -21.667 -42.666 -33 -57.999s-23.666 -25.666 -36.999 -30.999c18.667 -5.33301 33.667 -13.5 45 -24.5
s21.666 -28.167 30.999 -51.5l80 -202h-81l-54 133c-15.333 34.667 -26.666 57.834 -33.999 69.501s-17.333 20.167 -30 25.5s-26.334 8 -41.001 8h-61v-236h-73zM156.999 -174.003l48 130h78l-68 -130h-58z" />
    <glyph glyph-name="kgreenlandic" unicode="&#x138;" horiz-adv-x="450" 
d="M66 0l-0.000976562 476.997h73v-198h49c18.667 0 35.334 4.83301 50.001 14.5s29 30.167 43 61.5l54 122h79l-60 -131c-10.667 -23.333 -21.667 -42.666 -33 -57.999s-23.666 -25.666 -36.999 -30.999c18.667 -5.33301 33.667 -13.5 45 -24.5
s21.666 -28.167 30.999 -51.5l72 -181h-81l-46 112c-15.333 34.667 -26.666 57.834 -33.999 69.501s-17.333 20.167 -30 25.5s-26.334 8 -41.001 8h-61v-215h-73z" />
    <glyph glyph-name="Lacute" unicode="&#x139;" horiz-adv-x="466" 
d="M77 0v667h76v-598h294v-69h-370zM70 710l-36 37l159 139l49 -52z" />
    <glyph glyph-name="lacute" unicode="&#x13a;" horiz-adv-x="248" 
d="M163 -9c-39.333 0 -66.334 11.001 -81.001 33.001s-22 56 -22 102v541h73v-553c0 -22 3.33301 -37.833 10 -47.5s17 -14.5 31 -14.5c12.667 0 28.334 4.66699 47.001 14l17 -57c-8.66699 -4.66699 -19.5 -8.83398 -32.5 -12.501s-27.167 -5.5 -42.5 -5.5zM37.999 710.001
l-36 37l159 139l49 -52z" />
    <glyph glyph-name="Lcommaaccent" unicode="&#x13b;" horiz-adv-x="466" 
d="M77 0v667h76v-598h294v-69h-370zM189 -174l48 130h78l-68 -130h-58z" />
    <glyph glyph-name="lcommaaccent" unicode="&#x13c;" horiz-adv-x="248" 
d="M163 -9c-39.333 0 -66.334 11.001 -81.001 33.001s-22 56 -22 102v541h73v-553c0 -22 3.33301 -37.833 10 -47.5s17 -14.5 31 -14.5c12.667 0 28.334 4.66699 47.001 14l17 -57c-8.66699 -4.66699 -19.5 -8.83398 -32.5 -12.501s-27.167 -5.5 -42.5 -5.5z
M65.999 -173.999l48 130h78l-68 -130h-58z" />
    <glyph glyph-name="Lcaron" unicode="&#x13d;" horiz-adv-x="466" 
d="M77 0v667h76v-598h294v-69h-370zM231 497v170h75l-28 -170h-47z" />
    <glyph glyph-name="lcaron" unicode="&#x13e;" horiz-adv-x="237" 
d="M163 -9c-39.333 0 -66.334 11.001 -81.001 33.001s-22 56 -22 102v541h73v-553c0 -22 3.33301 -37.833 10 -47.5s17 -14.5 31 -14.5c12.667 0 28.334 4.66699 47.001 14l17 -57c-8.66699 -4.66699 -19.5 -8.83398 -32.5 -12.501s-27.167 -5.5 -42.5 -5.5z
M197.999 497.001v170h75l-28 -170h-47z" />
    <glyph glyph-name="Ldot" unicode="&#x13f;" horiz-adv-x="466" 
d="M77 0v667h76v-598h294v-69h-370zM353 307c-15.333 0 -28 5 -38 15s-15 23.667 -15 41s5 31.166 15 41.499s22.667 15.5 38 15.5c16 0 28.833 -5.16699 38.5 -15.5s14.5 -24.166 14.5 -41.499s-4.83301 -31 -14.5 -41s-22.5 -15 -38.5 -15z" />
    <glyph glyph-name="ldot" unicode="&#x140;" horiz-adv-x="295" 
d="M163 -9c-39.333 0 -66.334 11.001 -81.001 33.001s-22 56 -22 102v541h73v-553c0 -22 3.33301 -37.833 10 -47.5s17 -14.5 31 -14.5c12.667 0 28.334 4.66699 47.001 14l17 -57c-8.66699 -4.66699 -19.5 -8.83398 -32.5 -12.501s-27.167 -5.5 -42.5 -5.5z
M249.999 307.001c-15.333 0 -28 5 -38 15s-15 23.667 -15 41s5 31.166 15 41.499s22.667 15.5 38 15.5c16 0 28.833 -5.16699 38.5 -15.5s14.5 -24.166 14.5 -41.499s-4.83301 -31 -14.5 -41s-22.5 -15 -38.5 -15z" />
    <glyph glyph-name="Lslash" unicode="&#x141;" horiz-adv-x="473" 
d="M77 0v290l-76 -53l-27 48l103 72v310h76v-258l115 80l29 -48l-144 -99v-273h294v-69h-370z" />
    <glyph glyph-name="lslash" unicode="&#x142;" horiz-adv-x="261" 
d="M176 -9c-39.333 0 -66.334 11.001 -81.001 33.001s-22 56 -22 102v168l-61 -41l-27 50l88 59v305h73v-263l83 58l30 -49l-113 -78v-221c0 -22 3.33301 -37.833 10 -47.5s17 -14.5 31 -14.5c12.667 0 28.334 4.66699 47.001 14l17 -57
c-8.66699 -4.66699 -19.5 -8.83398 -32.5 -12.501s-27.167 -5.5 -42.5 -5.5z" />
    <glyph glyph-name="Nacute" unicode="&#x143;" horiz-adv-x="625" 
d="M77 0v667h77l319 -497v497h75v-667h-56l-340 529v-529h-75zM251 710l-36 37l159 139l49 -52z" />
    <glyph glyph-name="nacute" unicode="&#x144;" horiz-adv-x="514" 
d="M66 0l0.000976562 477h67l5 -38c18.667 14.667 40.334 26.667 65.001 36s50.667 14 78 14c62.667 0 106.667 -16 132 -48s38 -80 38 -144v-297h-73v299c0 40 -8.5 71.333 -25.5 94s-44.833 34 -83.5 34c-24.667 0 -48.334 -5.5 -71.001 -16.5
s-42.334 -23.167 -59.001 -36.5v-374h-73zM204.001 544l-36 37l159 139l49 -52z" />
    <glyph glyph-name="Ncommaaccent" unicode="&#x145;" horiz-adv-x="625" 
d="M77 0v667h77l319 -497v497h75v-667h-56l-340 529v-529h-75zM245 -174l48 130h78l-68 -130h-58z" />
    <glyph glyph-name="ncommaaccent" unicode="&#x146;" horiz-adv-x="514" 
d="M66 0l0.000976562 477h67l5 -38c18.667 14.667 40.334 26.667 65.001 36s50.667 14 78 14c62.667 0 106.667 -16 132 -48s38 -80 38 -144v-297h-73v299c0 40 -8.5 71.333 -25.5 94s-44.833 34 -83.5 34c-24.667 0 -48.334 -5.5 -71.001 -16.5
s-42.334 -23.167 -59.001 -36.5v-374h-73zM177.001 -174l48 130h78l-68 -130h-58z" />
    <glyph glyph-name="Ncaron" unicode="&#x147;" horiz-adv-x="625" 
d="M77 0v667h77l319 -497v497h75v-667h-56l-340 529v-529h-75zM303 708l-120 144l43 30l100 -112l101 112l41 -30l-119 -144h-46z" />
    <glyph glyph-name="ncaron" unicode="&#x148;" horiz-adv-x="514" 
d="M66 0l0.000976562 477h67l5 -38c18.667 14.667 40.334 26.667 65.001 36s50.667 14 78 14c62.667 0 106.667 -16 132 -48s38 -80 38 -144v-297h-73v299c0 40 -8.5 71.333 -25.5 94s-44.833 34 -83.5 34c-24.667 0 -48.334 -5.5 -71.001 -16.5
s-42.334 -23.167 -59.001 -36.5v-374h-73zM246.001 544l-120 144l43 30l100 -112l101 112l41 -30l-119 -144h-46z" />
    <glyph glyph-name="napostrophe" unicode="&#x149;" horiz-adv-x="514" 
d="M66 0l0.000976562 477h67l5 -38c18.667 14.667 40.334 26.667 65.001 36s50.667 14 78 14c62.667 0 106.667 -16 132 -48s38 -80 38 -144v-297h-73v299c0 40 -8.5 71.333 -25.5 94s-44.833 34 -83.5 34c-24.667 0 -48.334 -5.5 -71.001 -16.5
s-42.334 -23.167 -59.001 -36.5v-374h-73zM39.001 481l-22 31.001c18 15.333 30.667 29.166 38 41.499s11.666 22.833 12.999 31.5c-11.333 1.33301 -22.166 6.83301 -32.499 16.5s-15.5 23.167 -15.5 40.5c0 14.667 4.5 28 13.5 40s22.5 18 40.5 18
c17.333 0 30.5 -6.66699 39.5 -20s13.5 -29 13.5 -47c0 -34 -10.167 -64.667 -30.5 -92s-39.5 -47.333 -57.5 -60z" />
    <glyph glyph-name="Eng" unicode="&#x14a;" horiz-adv-x="625" 
d="M439 -197l-37 55.001c33.333 21.333 54 42 62 62s12 41 12 63v35l-324 511v-529h-75v667h77l319 -517v517h75v-682c0 -46.667 -9.16699 -83.834 -27.5 -111.501s-45.5 -51.167 -81.5 -70.5z" />
    <glyph glyph-name="eng" unicode="&#x14b;" horiz-adv-x="514" 
d="M342 -197l-37.999 55c33.333 21.333 54 42 62 62s12 41 12 63v316c0 40 -8.5 71.333 -25.5 94s-44.833 34 -83.5 34c-24.667 0 -48.334 -5.5 -71.001 -16.5s-42.334 -23.167 -59.001 -36.5v-374h-73v477h67l5 -38c18.667 14.667 40.334 26.667 65.001 36s50.667 14 78 14
c62.667 0 106.667 -16 132 -48s38 -80 38 -144v-316c0 -45.333 -9.16699 -81.5 -27.5 -108.5s-45.5 -50.167 -81.5 -69.5z" />
    <glyph glyph-name="Omacron" unicode="&#x14c;" horiz-adv-x="628" 
d="M314 -13c-46.667 0 -86.8291 10 -120.496 30s-61.334 46.167 -83.001 78.5s-37.667 69.333 -48 111s-15.5 84.167 -15.5 127.5c0 69.333 12 132 36 188s56.667 96.333 98 121s85.666 37 132.999 37c66 0 120 -20 162 -60s70 -86.833 84 -140.5s21 -102.167 21 -145.5
s-5.16699 -85.833 -15.5 -127.5s-26.333 -78.667 -48 -111s-49.334 -58.5 -83.001 -78.5s-73.834 -30 -120.501 -30zM314.005 58c45.333 0 83.335 16.3301 114.002 48.9971s50.667 70 60 112s14 80.333 14 115c0 54.667 -8.33301 103.834 -25 147.501
s-39.834 75.834 -69.501 96.501s-60.834 31 -93.501 31c-46.667 0 -85 -16.167 -115 -48.5s-49.667 -69.666 -59 -111.999s-14 -80.5 -14 -114.5c0 -34.667 3.83301 -68.5 11.5 -101.5s19.167 -62.5 34.5 -88.5s34.833 -46.833 58.5 -62.5s51.5 -23.5 83.5 -23.5z
M178.007 772.997v62h280v-62h-280z" />
    <glyph glyph-name="omacron" unicode="&#x14d;" horiz-adv-x="509" 
d="M255 -11c-35.333 0 -66.1641 7.16699 -92.4971 21.5s-48.166 33.333 -65.499 57s-30.5 50.667 -39.5 81s-13.5 61.166 -13.5 92.499c0 47.333 9.66699 91.666 29 132.999s45.666 70.833 78.999 88.5s67.666 26.5 102.999 26.5c49.333 0 90.666 -14.167 123.999 -42.5
s56.166 -62.166 68.499 -101.499s18.5 -74.666 18.5 -105.999c0 -49.333 -10.5 -95 -31.5 -137s-47.5 -71.333 -79.5 -88s-65.333 -25 -100 -25zM255.002 51c31.333 0 58.3359 10.668 81.0029 32.001s38 47 46 77s12 56.667 12 80c0 36.667 -6.83301 70.5 -20.5 101.5
s-31.167 53.167 -52.5 66.5s-43.333 20 -66 20c-34 0 -62.333 -11.333 -85 -34s-37.334 -48 -44.001 -76s-10 -53.667 -10 -77c0 -38 6.66699 -72.833 20 -104.5s30.666 -53.834 51.999 -66.501s43.666 -19 66.999 -19zM123.005 607.001v62h280v-62h-280z" />
    <glyph glyph-name="Obreve" unicode="&#x14e;" horiz-adv-x="628" 
d="M314 -13c-46.667 0 -86.8291 10 -120.496 30s-61.334 46.167 -83.001 78.5s-37.667 69.333 -48 111s-15.5 84.167 -15.5 127.5c0 69.333 12 132 36 188s56.667 96.333 98 121s85.666 37 132.999 37c66 0 120 -20 162 -60s70 -86.833 84 -140.5s21 -102.167 21 -145.5
s-5.16699 -85.833 -15.5 -127.5s-26.333 -78.667 -48 -111s-49.334 -58.5 -83.001 -78.5s-73.834 -30 -120.501 -30zM314.005 58c45.333 0 83.335 16.3301 114.002 48.9971s50.667 70 60 112s14 80.333 14 115c0 54.667 -8.33301 103.834 -25 147.501
s-39.834 75.834 -69.501 96.501s-60.834 31 -93.501 31c-46.667 0 -85 -16.167 -115 -48.5s-49.667 -69.666 -59 -111.999s-14 -80.5 -14 -114.5c0 -34.667 3.83301 -68.5 11.5 -101.5s19.167 -62.5 34.5 -88.5s34.833 -46.833 58.5 -62.5s51.5 -23.5 83.5 -23.5z
M316.007 719.997c-26 0 -49.668 5.83301 -71.001 17.5s-36.5 27 -45.5 46s-13.833 40.5 -14.5 64.5h60c2 -20 7.5 -36 16.5 -48s18.833 -19.167 29.5 -21.5s20.334 -3.5 29.001 -3.5c16.667 0 32.167 4.83301 46.5 14.5s24.166 29.167 29.499 58.5h57
c-3.33301 -35.333 -13.5 -63 -30.5 -83s-35.167 -32.5 -54.5 -37.5s-36.666 -7.5 -51.999 -7.5z" />
    <glyph glyph-name="obreve" unicode="&#x14f;" horiz-adv-x="509" 
d="M255 -11c-35.333 0 -66.1641 7.16699 -92.4971 21.5s-48.166 33.333 -65.499 57s-30.5 50.667 -39.5 81s-13.5 61.166 -13.5 92.499c0 47.333 9.66699 91.666 29 132.999s45.666 70.833 78.999 88.5s67.666 26.5 102.999 26.5c49.333 0 90.666 -14.167 123.999 -42.5
s56.166 -62.166 68.499 -101.499s18.5 -74.666 18.5 -105.999c0 -49.333 -10.5 -95 -31.5 -137s-47.5 -71.333 -79.5 -88s-65.333 -25 -100 -25zM255.002 51c31.333 0 58.3359 10.668 81.0029 32.001s38 47 46 77s12 56.667 12 80c0 36.667 -6.83301 70.5 -20.5 101.5
s-31.167 53.167 -52.5 66.5s-43.333 20 -66 20c-34 0 -62.333 -11.333 -85 -34s-37.334 -48 -44.001 -76s-10 -53.667 -10 -77c0 -38 6.66699 -72.833 20 -104.5s30.666 -53.834 51.999 -66.501s43.666 -19 66.999 -19zM261.005 554.001c-26 0 -49.668 5.83301 -71.001 17.5
s-36.5 27 -45.5 46s-13.833 40.5 -14.5 64.5h60c2 -20 7.5 -36 16.5 -48s18.833 -19.167 29.5 -21.5s20.334 -3.5 29.001 -3.5c16.667 0 32.167 4.83301 46.5 14.5s24.166 29.167 29.499 58.5h57c-3.33301 -35.333 -13.5 -63 -30.5 -83s-35.167 -32.5 -54.5 -37.5
s-36.666 -7.5 -51.999 -7.5z" />
    <glyph glyph-name="Ohungarumlaut" unicode="&#x150;" horiz-adv-x="628" 
d="M314 -13c-46.667 0 -86.8291 10 -120.496 30s-61.334 46.167 -83.001 78.5s-37.667 69.333 -48 111s-15.5 84.167 -15.5 127.5c0 69.333 12 132 36 188s56.667 96.333 98 121s85.666 37 132.999 37c66 0 120 -20 162 -60s70 -86.833 84 -140.5s21 -102.167 21 -145.5
s-5.16699 -85.833 -15.5 -127.5s-26.333 -78.667 -48 -111s-49.334 -58.5 -83.001 -78.5s-73.834 -30 -120.501 -30zM314.005 58c45.333 0 83.335 16.3301 114.002 48.9971s50.667 70 60 112s14 80.333 14 115c0 54.667 -8.33301 103.834 -25 147.501
s-39.834 75.834 -69.501 96.501s-60.834 31 -93.501 31c-46.667 0 -85 -16.167 -115 -48.5s-49.667 -69.666 -59 -111.999s-14 -80.5 -14 -114.5c0 -34.667 3.83301 -68.5 11.5 -101.5s19.167 -62.5 34.5 -88.5s34.833 -46.833 58.5 -62.5s51.5 -23.5 83.5 -23.5z
M204.007 709.997l-34 37l159 139l48 -52zM380.007 709.997l-34 37l157 139l50 -52z" />
    <glyph glyph-name="ohungarumlaut" unicode="&#x151;" horiz-adv-x="509" 
d="M255 -11c-35.333 0 -66.1641 7.16699 -92.4971 21.5s-48.166 33.333 -65.499 57s-30.5 50.667 -39.5 81s-13.5 61.166 -13.5 92.499c0 47.333 9.66699 91.666 29 132.999s45.666 70.833 78.999 88.5s67.666 26.5 102.999 26.5c49.333 0 90.666 -14.167 123.999 -42.5
s56.166 -62.166 68.499 -101.499s18.5 -74.666 18.5 -105.999c0 -49.333 -10.5 -95 -31.5 -137s-47.5 -71.333 -79.5 -88s-65.333 -25 -100 -25zM255.002 51c31.333 0 58.3359 10.668 81.0029 32.001s38 47 46 77s12 56.667 12 80c0 36.667 -6.83301 70.5 -20.5 101.5
s-31.167 53.167 -52.5 66.5s-43.333 20 -66 20c-34 0 -62.333 -11.333 -85 -34s-37.334 -48 -44.001 -76s-10 -53.667 -10 -77c0 -38 6.66699 -72.833 20 -104.5s30.666 -53.834 51.999 -66.501s43.666 -19 66.999 -19zM136.005 544.001l-34 37l159 139l48 -52z
M312.005 544.001l-34 37l157 139l50 -52z" />
    <glyph glyph-name="OE" unicode="&#x152;" horiz-adv-x="845" 
d="M385 0c-54 0 -101.833 7.83203 -143.5 23.499s-77 38.334 -106 68.001s-51 65.667 -66 108s-22.5 90.166 -22.5 143.499c0 104.667 29.333 184.834 88 240.501s142 83.5 250 83.5h419v-69h-294v-214h210v-69h-210v-246h316v-69h-441zM388 68.999l45 -0.000976562v529h-49
c-82 0 -145.5 -21.667 -190.5 -65s-67.5 -108 -67.5 -194c0 -89.333 23 -156.666 69 -201.999s110.333 -68 193 -68z" />
    <glyph glyph-name="oe" unicode="&#x153;" horiz-adv-x="826" 
d="M255 -11c-35.333 0 -66.167 7.16895 -92.5 21.502s-48.166 33.333 -65.499 57s-30.5 50.667 -39.5 81s-13.5 61.166 -13.5 92.499c0 47.333 9.66699 91.666 29 132.999s45.666 70.833 78.999 88.5s67.666 26.5 102.999 26.5c41.333 0 76.166 -9.83301 104.499 -29.5
s49.833 -45.5 64.5 -77.5c16 34 37.833 60.333 65.5 79s60.834 28 99.501 28c47.333 0 86.666 -12.333 117.999 -37s52.833 -56.667 64.5 -96s17.5 -77 17.5 -113h-330c0 -60 13 -107 39 -141s63.667 -51 113 -51c29.333 0 55.333 5 78 15s43 22.667 61 38l19 -63
c-14.667 -14.667 -37.167 -27 -67.5 -37s-61.166 -15 -92.499 -15c-44 0 -82.167 9.5 -114.5 28.5s-56.166 45.5 -71.499 79.5c-16 -32 -37.5 -58 -64.5 -78s-61.5 -30 -103.5 -30zM254.999 51.002c31.333 0 58.3359 10.668 81.0029 32.001s38 47 46 77s12 56.667 12 80
c0 36.667 -6.83301 70.5 -20.5 101.5s-31.167 53.167 -52.5 66.5s-43.333 20 -66 20c-34 0 -62.333 -11.333 -85 -34s-37.334 -48 -44.001 -76s-10 -53.667 -10 -77c0 -38 6.66699 -72.833 20 -104.5s30.666 -53.834 51.999 -66.501s43.666 -19 66.999 -19zM466.002 304.003
h240c-1.33301 27.333 -8.5 51 -21.5 71s-28.667 33.833 -47 41.5s-34.5 11.5 -48.5 11.5c-30 0 -56 -9.5 -78 -28.5s-37 -50.833 -45 -95.5z" />
    <glyph glyph-name="Racute" unicode="&#x154;" horiz-adv-x="551" 
d="M77 0v666.999h203c70.667 0 122.834 -16.667 156.501 -50s50.5 -77.333 50.5 -132c0 -34.667 -7.16699 -64.667 -21.5 -90s-30 -43.166 -47 -53.499s-30.167 -16.833 -39.5 -19.5c22.667 -8 39.667 -21.5 51 -40.5s21 -43.167 29 -72.5l14 -49.5l16 -56.5l27 -103h-78
l-27 104c-12.667 48 -26.667 90.333 -42 127c-8.66699 18 -16.334 30.667 -23.001 38s-16.5 13 -29.5 17s-26.167 6 -39.5 6h-124v-292h-76zM153 360.999h123.001c88 0 132 41.333 132 124c0 38 -10.833 66.333 -32.5 85s-52.834 28 -93.501 28h-129v-237zM194.001 709.999
l-36 37l159 139l49 -52z" />
    <glyph glyph-name="racute" unicode="&#x155;" horiz-adv-x="295" 
d="M66 0l-0.00292969 476.998h66l7 -48c18 16.667 36.833 30.834 56.5 42.501s40.834 17.5 63.501 17.5c12 0 25.667 -1.66699 41 -5l-9 -71c-12.667 2.66699 -24.667 4 -36 4c-21.333 0 -42.166 -6.16699 -62.499 -18.5s-38.166 -26.166 -53.499 -41.499v-357h-73z
M140.997 543.998l-36 37l159 139l49 -52z" />
    <glyph glyph-name="Rcommaaccent" unicode="&#x156;" horiz-adv-x="551" 
d="M77 0v666.999h203c70.667 0 122.834 -16.667 156.501 -50s50.5 -77.333 50.5 -132c0 -34.667 -7.16699 -64.667 -21.5 -90s-30 -43.166 -47 -53.499s-30.167 -16.833 -39.5 -19.5c22.667 -8 39.667 -21.5 51 -40.5s21 -43.167 29 -72.5l14 -49.5l16 -56.5l27 -103h-78
l-27 104c-12.667 48 -26.667 90.333 -42 127c-8.66699 18 -16.334 30.667 -23.001 38s-16.5 13 -29.5 17s-26.167 6 -39.5 6h-124v-292h-76zM153 360.999h123.001c88 0 132 41.333 132 124c0 38 -10.833 66.333 -32.5 85s-52.834 28 -93.501 28h-129v-237zM206.001 -174.001
l48 130h78l-68 -130h-58z" />
    <glyph glyph-name="rcommaaccent" unicode="&#x157;" horiz-adv-x="295" 
d="M66 0l-0.00292969 476.998h66l7 -48c18 16.667 36.833 30.834 56.5 42.501s40.834 17.5 63.501 17.5c12 0 25.667 -1.66699 41 -5l-9 -71c-12.667 2.66699 -24.667 4 -36 4c-21.333 0 -42.166 -6.16699 -62.499 -18.5s-38.166 -26.166 -53.499 -41.499v-357h-73z
M17.9971 -174.002l48 130h78l-68 -130h-58z" />
    <glyph glyph-name="Rcaron" unicode="&#x158;" horiz-adv-x="551" 
d="M77 0v666.999h203c70.667 0 122.834 -16.667 156.501 -50s50.5 -77.333 50.5 -132c0 -34.667 -7.16699 -64.667 -21.5 -90s-30 -43.166 -47 -53.499s-30.167 -16.833 -39.5 -19.5c22.667 -8 39.667 -21.5 51 -40.5s21 -43.167 29 -72.5l14 -49.5l16 -56.5l27 -103h-78
l-27 104c-12.667 48 -26.667 90.333 -42 127c-8.66699 18 -16.334 30.667 -23.001 38s-16.5 13 -29.5 17s-26.167 6 -39.5 6h-124v-292h-76zM153 360.999h123.001c88 0 132 41.333 132 124c0 38 -10.833 66.333 -32.5 85s-52.834 28 -93.501 28h-129v-237zM235.001 709.999
l-120 144l43 30l100 -112l101 112l41 -30l-119 -144h-46z" />
    <glyph glyph-name="rcaron" unicode="&#x159;" horiz-adv-x="295" 
d="M66 0l-0.00292969 476.998h66l7 -48c18 16.667 36.833 30.834 56.5 42.501s40.834 17.5 63.501 17.5c12 0 25.667 -1.66699 41 -5l-9 -71c-12.667 2.66699 -24.667 4 -36 4c-21.333 0 -42.166 -6.16699 -62.499 -18.5s-38.166 -26.166 -53.499 -41.499v-357h-73z
M179.997 543.998l-120 144l43 30l100 -112l101 112l41 -30l-119 -144h-46z" />
    <glyph glyph-name="Sacute" unicode="&#x15a;" horiz-adv-x="490" 
d="M237 -14c-22 0 -43.167 1.99805 -63.5 5.99805s-39 9.33301 -56 16s-32.167 13.834 -45.5 21.501s-24.666 15.5 -33.999 23.5l33 71c24.667 -20.667 50.667 -37 78 -49s57.666 -18 90.999 -18c28 0 52.667 5 74 15s36.666 24.167 45.999 42.5s14 37.833 14 58.5
c0 32.667 -11.5 58.667 -34.5 78s-61.167 39.333 -114.5 60c-39.333 14 -72.666 30.333 -99.999 49s-46.833 39.834 -58.5 63.501s-17.5 49.5 -17.5 77.5c0 42 11.833 77.5 35.5 106.5s50.834 48.167 81.501 57.5s59.334 14 86.001 14
c41.333 0 79.666 -7.83301 114.999 -23.5s64.666 -37.5 87.999 -65.5l-37 -58c-47.333 50.667 -104 76 -170 76c-37.333 0 -66.333 -8.83301 -87 -26.5s-31 -42.167 -31 -73.5c0 -25.333 7 -46.166 21 -62.499s32.667 -30 56 -41s47.333 -21.167 72 -30.5
c45.333 -18.667 80.333 -36.334 105 -53.001s42.667 -37 54 -61s17 -50.333 17 -79c0 -49.333 -12 -89.5 -36 -120.5s-53 -51 -87 -60s-65.667 -13.833 -95 -14.5zM199 709.998l-36 37l159 139l49 -52z" />
    <glyph glyph-name="sacute" unicode="&#x15b;" horiz-adv-x="391" 
d="M200 -11c-28 0 -53 3.33691 -75 10.0039s-40.333 14.334 -55 23.001s-24.667 15.667 -30 21l26 62c14.667 -12.667 33.167 -24.834 55.5 -36.501s48.5 -17.5 78.5 -17.5c30.667 0 53.834 6 69.501 18s23.5 31 23.5 57c0 33.333 -39.333 65.333 -118 96
c-45.333 16.667 -77.333 35.167 -96 55.5s-28 47.166 -28 80.499c0 38.667 13.5 70.167 40.5 94.5s62.833 36.5 107.5 36.5c35.333 0 65.666 -5.5 90.999 -16.5s46 -24.167 62 -39.5l-31 -55c-16 15.333 -34 27.333 -54 36s-42.333 13 -67 13
c-28 0 -48.167 -6.66699 -60.5 -20s-18.5 -28 -18.5 -44c0 -30.667 36.667 -59.334 110 -86.001c42 -15.333 74.167 -33.833 96.5 -55.5s33.5 -51.834 33.5 -90.501c0 -34 -8.5 -61.833 -25.5 -83.5s-38 -36.834 -63 -45.501s-49.167 -13 -72.5 -13zM150 544.004l-36 37
l159 139l49 -52z" />
    <glyph glyph-name="Scircumflex" unicode="&#x15c;" horiz-adv-x="490" 
d="M237 -14c-22 0 -43.167 1.99805 -63.5 5.99805s-39 9.33301 -56 16s-32.167 13.834 -45.5 21.501s-24.666 15.5 -33.999 23.5l33 71c24.667 -20.667 50.667 -37 78 -49s57.666 -18 90.999 -18c28 0 52.667 5 74 15s36.666 24.167 45.999 42.5s14 37.833 14 58.5
c0 32.667 -11.5 58.667 -34.5 78s-61.167 39.333 -114.5 60c-39.333 14 -72.666 30.333 -99.999 49s-46.833 39.834 -58.5 63.501s-17.5 49.5 -17.5 77.5c0 42 11.833 77.5 35.5 106.5s50.834 48.167 81.501 57.5s59.334 14 86.001 14
c41.333 0 79.666 -7.83301 114.999 -23.5s64.666 -37.5 87.999 -65.5l-37 -58c-47.333 50.667 -104 76 -170 76c-37.333 0 -66.333 -8.83301 -87 -26.5s-31 -42.167 -31 -73.5c0 -25.333 7 -46.166 21 -62.499s32.667 -30 56 -41s47.333 -21.167 72 -30.5
c45.333 -18.667 80.333 -36.334 105 -53.001s42.667 -37 54 -61s17 -50.333 17 -79c0 -49.333 -12 -89.5 -36 -120.5s-53 -51 -87 -60s-65.667 -13.833 -95 -14.5zM157 709.998l-43 30l120 144h46l119 -144l-41 -30l-101 112z" />
    <glyph glyph-name="scircumflex" unicode="&#x15d;" horiz-adv-x="391" 
d="M200 -11c-28 0 -53 3.33691 -75 10.0039s-40.333 14.334 -55 23.001s-24.667 15.667 -30 21l26 62c14.667 -12.667 33.167 -24.834 55.5 -36.501s48.5 -17.5 78.5 -17.5c30.667 0 53.834 6 69.501 18s23.5 31 23.5 57c0 33.333 -39.333 65.333 -118 96
c-45.333 16.667 -77.333 35.167 -96 55.5s-28 47.166 -28 80.499c0 38.667 13.5 70.167 40.5 94.5s62.833 36.5 107.5 36.5c35.333 0 65.666 -5.5 90.999 -16.5s46 -24.167 62 -39.5l-31 -55c-16 15.333 -34 27.333 -54 36s-42.333 13 -67 13
c-28 0 -48.167 -6.66699 -60.5 -20s-18.5 -28 -18.5 -44c0 -30.667 36.667 -59.334 110 -86.001c42 -15.333 74.167 -33.833 96.5 -55.5s33.5 -51.834 33.5 -90.501c0 -34 -8.5 -61.833 -25.5 -83.5s-38 -36.834 -63 -45.501s-49.167 -13 -72.5 -13zM108 544.004l-43 30
l120 144h46l119 -144l-41 -30l-101 112z" />
    <glyph glyph-name="Scedilla" unicode="&#x15e;" horiz-adv-x="490" 
d="M237 -14c-22 0 -43.167 1.99805 -63.5 5.99805s-39 9.33301 -56 16s-32.167 13.834 -45.5 21.501s-24.666 15.5 -33.999 23.5l33 71c24.667 -20.667 50.667 -37 78 -49s57.666 -18 90.999 -18c28 0 52.667 5 74 15s36.666 24.167 45.999 42.5s14 37.833 14 58.5
c0 32.667 -11.5 58.667 -34.5 78s-61.167 39.333 -114.5 60c-39.333 14 -72.666 30.333 -99.999 49s-46.833 39.834 -58.5 63.501s-17.5 49.5 -17.5 77.5c0 42 11.833 77.5 35.5 106.5s50.834 48.167 81.501 57.5s59.334 14 86.001 14
c41.333 0 79.666 -7.83301 114.999 -23.5s64.666 -37.5 87.999 -65.5l-37 -58c-47.333 50.667 -104 76 -170 76c-37.333 0 -66.333 -8.83301 -87 -26.5s-31 -42.167 -31 -73.5c0 -25.333 7 -46.166 21 -62.499s32.667 -30 56 -41s47.333 -21.167 72 -30.5
c45.333 -18.667 80.333 -36.334 105 -53.001s42.667 -37 54 -61s17 -50.333 17 -79c0 -49.333 -12 -89.5 -36 -120.5s-53 -51 -87 -60s-65.667 -13.833 -95 -14.5zM161 -174.002l48 130h78l-68 -130h-58z" />
    <glyph glyph-name="scedilla" unicode="&#x15f;" horiz-adv-x="391" 
d="M200 -11c-28 0 -53 3.33691 -75 10.0039s-40.333 14.334 -55 23.001s-24.667 15.667 -30 21l26 62c14.667 -12.667 33.167 -24.834 55.5 -36.501s48.5 -17.5 78.5 -17.5c30.667 0 53.834 6 69.501 18s23.5 31 23.5 57c0 33.333 -39.333 65.333 -118 96
c-45.333 16.667 -77.333 35.167 -96 55.5s-28 47.166 -28 80.499c0 38.667 13.5 70.167 40.5 94.5s62.833 36.5 107.5 36.5c35.333 0 65.666 -5.5 90.999 -16.5s46 -24.167 62 -39.5l-31 -55c-16 15.333 -34 27.333 -54 36s-42.333 13 -67 13
c-28 0 -48.167 -6.66699 -60.5 -20s-18.5 -28 -18.5 -44c0 -30.667 36.667 -59.334 110 -86.001c42 -15.333 74.167 -33.833 96.5 -55.5s33.5 -51.834 33.5 -90.501c0 -34 -8.5 -61.833 -25.5 -83.5s-38 -36.834 -63 -45.501s-49.167 -13 -72.5 -13zM122 -173.996l48 130h78
l-68 -130h-58z" />
    <glyph glyph-name="Scaron" unicode="&#x160;" horiz-adv-x="490" 
d="M237 -14c-22 0 -43.167 1.99805 -63.5 5.99805s-39 9.33301 -56 16s-32.167 13.834 -45.5 21.501s-24.666 15.5 -33.999 23.5l33 71c24.667 -20.667 50.667 -37 78 -49s57.666 -18 90.999 -18c28 0 52.667 5 74 15s36.666 24.167 45.999 42.5s14 37.833 14 58.5
c0 32.667 -11.5 58.667 -34.5 78s-61.167 39.333 -114.5 60c-39.333 14 -72.666 30.333 -99.999 49s-46.833 39.834 -58.5 63.501s-17.5 49.5 -17.5 77.5c0 42 11.833 77.5 35.5 106.5s50.834 48.167 81.501 57.5s59.334 14 86.001 14
c41.333 0 79.666 -7.83301 114.999 -23.5s64.666 -37.5 87.999 -65.5l-37 -58c-47.333 50.667 -104 76 -170 76c-37.333 0 -66.333 -8.83301 -87 -26.5s-31 -42.167 -31 -73.5c0 -25.333 7 -46.166 21 -62.499s32.667 -30 56 -41s47.333 -21.167 72 -30.5
c45.333 -18.667 80.333 -36.334 105 -53.001s42.667 -37 54 -61s17 -50.333 17 -79c0 -49.333 -12 -89.5 -36 -120.5s-53 -51 -87 -60s-65.667 -13.833 -95 -14.5zM229 709.998l-120 144l43 30l100 -112l101 112l41 -30l-119 -144h-46z" />
    <glyph glyph-name="scaron" unicode="&#x161;" horiz-adv-x="391" 
d="M200 -11c-28 0 -53 3.33691 -75 10.0039s-40.333 14.334 -55 23.001s-24.667 15.667 -30 21l26 62c14.667 -12.667 33.167 -24.834 55.5 -36.501s48.5 -17.5 78.5 -17.5c30.667 0 53.834 6 69.501 18s23.5 31 23.5 57c0 33.333 -39.333 65.333 -118 96
c-45.333 16.667 -77.333 35.167 -96 55.5s-28 47.166 -28 80.499c0 38.667 13.5 70.167 40.5 94.5s62.833 36.5 107.5 36.5c35.333 0 65.666 -5.5 90.999 -16.5s46 -24.167 62 -39.5l-31 -55c-16 15.333 -34 27.333 -54 36s-42.333 13 -67 13
c-28 0 -48.167 -6.66699 -60.5 -20s-18.5 -28 -18.5 -44c0 -30.667 36.667 -59.334 110 -86.001c42 -15.333 74.167 -33.833 96.5 -55.5s33.5 -51.834 33.5 -90.501c0 -34 -8.5 -61.833 -25.5 -83.5s-38 -36.834 -63 -45.501s-49.167 -13 -72.5 -13zM187 544.004l-120 144
l43 30l100 -112l101 112l41 -30l-119 -144h-46z" />
    <glyph glyph-name="Tcommaaccent" unicode="&#x162;" horiz-adv-x="485" 
d="M205 0v598h-196v69h468v-69h-197v-598h-75zM154 -174l48 130h78l-68 -130h-58z" />
    <glyph glyph-name="tcommaaccent" unicode="&#x163;" horiz-adv-x="312" 
d="M202 -11c-34 0 -60.1689 9.16699 -78.502 27.5s-27.5 46.5 -27.5 84.5v313h-78v63h78v130h73v-130h119v-63h-120v-305c0 -23.333 4.33301 -38.833 13 -46.5s19.667 -11.5 33 -11.5c21.333 0 43.333 8.66699 66 26l20 -58c-11.333 -8 -25.166 -15 -41.499 -21
s-35.166 -9 -56.499 -9zM112.998 -174l48 130h78l-68 -130h-58z" />
    <glyph glyph-name="Tcaron" unicode="&#x164;" horiz-adv-x="485" 
d="M205 0v598h-196v69h468v-69h-197v-598h-75zM221 710l-120 144l43 30l100 -112l101 112l41 -30l-119 -144h-46z" />
    <glyph glyph-name="tcaron" unicode="&#x165;" horiz-adv-x="312" 
d="M202 -11c-34 0 -60.1689 9.16699 -78.502 27.5s-27.5 46.5 -27.5 84.5v313h-78v63h78v130h73v-130h119v-63h-120v-305c0 -23.333 4.33301 -38.833 13 -46.5s19.667 -11.5 33 -11.5c21.333 0 43.333 8.66699 66 26l20 -58c-11.333 -8 -25.166 -15 -41.499 -21
s-35.166 -9 -56.499 -9zM235.998 532v170h75l-28 -170h-47z" />
    <glyph glyph-name="Tbar" unicode="&#x166;" horiz-adv-x="485" 
d="M205 0v295h-152v62h152v241h-196v69h468v-69h-197v-241h159v-62h-159v-295h-75z" />
    <glyph glyph-name="tbar" unicode="&#x167;" horiz-adv-x="312" 
d="M202 -11c-34 0 -60.1689 9.16699 -78.502 27.5s-27.5 46.5 -27.5 84.5v130h-78v63h78v120h-78v63h78v130h73v-130h119v-63h-120v-120h120v-63h-120v-122c0 -23.333 4.33301 -38.833 13 -46.5s19.667 -11.5 33 -11.5c21.333 0 43.333 8.66699 66 26l20 -58
c-11.333 -8 -25.166 -15 -41.499 -21s-35.166 -9 -56.499 -9z" />
    <glyph glyph-name="Utilde" unicode="&#x168;" horiz-adv-x="615" 
d="M305 -13c-50.667 0 -94.667 11.334 -132 34.001s-63.333 52.167 -78 88.5s-22 74.166 -22 113.499v444h76v-429c0 -56.667 13.833 -100.834 41.5 -132.501s66.5 -47.5 116.5 -47.5s89 15.333 117 46s42 75.334 42 134.001v429h76v-444c0 -56 -13.333 -103 -40 -141
s-58.5 -63.167 -95.5 -75.5s-70.833 -18.833 -101.5 -19.5zM201 735.001l-45.999 23c9.33301 30 22.5 54 39.5 72s36.5 27 58.5 27c14 0 27.833 -3.5 41.5 -10.5s26.5 -15.167 38.5 -24.5c18.667 -14.667 35 -22 49 -22c9.33301 0 18.666 4.33301 27.999 13
s18.666 24 27.999 46l46 -24c-10 -30.667 -23.5 -54.667 -40.5 -72s-36.5 -26 -58.5 -26c-12 0 -23.667 2.66699 -35 8s-22.666 12 -33.999 20c-26.667 19.333 -46.667 29 -60 29c-11.333 0 -21 -4.5 -29 -13.5s-16.667 -24.167 -26 -45.5z" />
    <glyph glyph-name="utilde" unicode="&#x169;" horiz-adv-x="511" 
d="M233 -11c-60 0 -103.333 15.333 -130 46s-40 77.334 -40 140.001v302h73v-306c0 -42 9.16699 -72.5 27.5 -91.5s45.5 -28.5 81.5 -28.5c23.333 0 46.5 5.16699 69.5 15.5s41.833 22.833 56.5 37.5v373h75v-477h-68l-5 37c-18.667 -14.667 -38.667 -26.334 -60 -35.001
s-48 -13 -80 -13zM149 569l-45.999 23c9.33301 30 22.5 54 39.5 72s36.5 27 58.5 27c14 0 27.833 -3.5 41.5 -10.5s26.5 -15.167 38.5 -24.5c18.667 -14.667 35 -22 49 -22c9.33301 0 18.666 4.33301 27.999 13s18.666 24 27.999 46l46 -24
c-10 -30.667 -23.5 -54.667 -40.5 -72s-36.5 -26 -58.5 -26c-12 0 -23.667 2.66699 -35 8s-22.666 12 -33.999 20c-26.667 19.333 -46.667 29 -60 29c-11.333 0 -21 -4.5 -29 -13.5s-16.667 -24.167 -26 -45.5z" />
    <glyph glyph-name="Umacron" unicode="&#x16a;" horiz-adv-x="615" 
d="M305 -13c-50.667 0 -94.667 11.334 -132 34.001s-63.333 52.167 -78 88.5s-22 74.166 -22 113.499v444h76v-429c0 -56.667 13.833 -100.834 41.5 -132.501s66.5 -47.5 116.5 -47.5s89 15.333 117 46s42 75.334 42 134.001v429h76v-444c0 -56 -13.333 -103 -40 -141
s-58.5 -63.167 -95.5 -75.5s-70.833 -18.833 -101.5 -19.5zM170 773.001v62h280v-62h-280z" />
    <glyph glyph-name="umacron" unicode="&#x16b;" horiz-adv-x="511" 
d="M233 -11c-60 0 -103.333 15.333 -130 46s-40 77.334 -40 140.001v302h73v-306c0 -42 9.16699 -72.5 27.5 -91.5s45.5 -28.5 81.5 -28.5c23.333 0 46.5 5.16699 69.5 15.5s41.833 22.833 56.5 37.5v373h75v-477h-68l-5 37c-18.667 -14.667 -38.667 -26.334 -60 -35.001
s-48 -13 -80 -13zM118 607v62h280v-62h-280z" />
    <glyph glyph-name="Ubreve" unicode="&#x16c;" horiz-adv-x="615" 
d="M305 -13c-50.667 0 -94.667 11.334 -132 34.001s-63.333 52.167 -78 88.5s-22 74.166 -22 113.499v444h76v-429c0 -56.667 13.833 -100.834 41.5 -132.501s66.5 -47.5 116.5 -47.5s89 15.333 117 46s42 75.334 42 134.001v429h76v-444c0 -56 -13.333 -103 -40 -141
s-58.5 -63.167 -95.5 -75.5s-70.833 -18.833 -101.5 -19.5zM319 720.001c-26 0 -49.668 5.83301 -71.001 17.5s-36.5 27 -45.5 46s-13.833 40.5 -14.5 64.5h60c2 -20 7.5 -36 16.5 -48s18.833 -19.167 29.5 -21.5s20.334 -3.5 29.001 -3.5
c16.667 0 32.167 4.83301 46.5 14.5s24.166 29.167 29.499 58.5h57c-3.33301 -35.333 -13.5 -63 -30.5 -83s-35.167 -32.5 -54.5 -37.5s-36.666 -7.5 -51.999 -7.5z" />
    <glyph glyph-name="ubreve" unicode="&#x16d;" horiz-adv-x="511" 
d="M233 -11c-60 0 -103.333 15.333 -130 46s-40 77.334 -40 140.001v302h73v-306c0 -42 9.16699 -72.5 27.5 -91.5s45.5 -28.5 81.5 -28.5c23.333 0 46.5 5.16699 69.5 15.5s41.833 22.833 56.5 37.5v373h75v-477h-68l-5 37c-18.667 -14.667 -38.667 -26.334 -60 -35.001
s-48 -13 -80 -13zM263 554c-26 0 -49.668 5.83301 -71.001 17.5s-36.5 27 -45.5 46s-13.833 40.5 -14.5 64.5h60c2 -20 7.5 -36 16.5 -48s18.833 -19.167 29.5 -21.5s20.334 -3.5 29.001 -3.5c16.667 0 32.167 4.83301 46.5 14.5s24.166 29.167 29.499 58.5h57
c-3.33301 -35.333 -13.5 -63 -30.5 -83s-35.167 -32.5 -54.5 -37.5s-36.666 -7.5 -51.999 -7.5z" />
    <glyph glyph-name="Uring" unicode="&#x16e;" horiz-adv-x="615" 
d="M305 -13c-50.667 0 -94.667 11.334 -132 34.001s-63.333 52.167 -78 88.5s-22 74.166 -22 113.499v444h76v-429c0 -56.667 13.833 -100.834 41.5 -132.501s66.5 -47.5 116.5 -47.5s89 15.333 117 46s42 75.334 42 134.001v429h76v-444c0 -56 -13.333 -103 -40 -141
s-58.5 -63.167 -95.5 -75.5s-70.833 -18.833 -101.5 -19.5zM315 700.001c-21.333 0 -39.666 5.66895 -54.999 17.002s-25.5 24.666 -30.5 39.999s-7.5 29.333 -7.5 42c0 20 4.5 38 13.5 54s20.667 27.667 35 35s29.166 11 44.499 11c20.667 0 38.834 -5.83301 54.501 -17.5
s26.167 -25.167 31.5 -40.5s8 -29.333 8 -42c0 -19.333 -4.66699 -37.333 -14 -54s-21.333 -28.334 -36 -35.001s-29.334 -10 -44.001 -10zM315 740.003c16.667 0 29.334 6.16699 38.001 18.5s13 25.833 13 40.5c0 15.333 -4.33301 29.166 -13 41.499
s-21.334 18.5 -38.001 18.5s-29.334 -6.16699 -38.001 -18.5s-13 -26.166 -13 -41.499c0 -14.667 4.33301 -28.167 13 -40.5s21.334 -18.5 38.001 -18.5z" />
    <glyph glyph-name="uring" unicode="&#x16f;" horiz-adv-x="511" 
d="M233 -11c-60 0 -103.333 15.333 -130 46s-40 77.334 -40 140.001v302h73v-306c0 -42 9.16699 -72.5 27.5 -91.5s45.5 -28.5 81.5 -28.5c23.333 0 46.5 5.16699 69.5 15.5s41.833 22.833 56.5 37.5v373h75v-477h-68l-5 37c-18.667 -14.667 -38.667 -26.334 -60 -35.001
s-48 -13 -80 -13zM269 534c-21.333 0 -39.666 5.66895 -54.999 17.002s-25.5 24.666 -30.5 39.999s-7.5 29.333 -7.5 42c0 20 4.5 38 13.5 54s20.667 27.667 35 35s29.166 11 44.499 11c20.667 0 38.834 -5.83301 54.501 -17.5s26.167 -25.167 31.5 -40.5s8 -29.333 8 -42
c0 -19.333 -4.66699 -37.333 -14 -54s-21.333 -28.334 -36 -35.001s-29.334 -10 -44.001 -10zM269 574.002c16.667 0 29.334 6.16699 38.001 18.5s13 25.833 13 40.5c0 15.333 -4.33301 29.166 -13 41.499s-21.334 18.5 -38.001 18.5s-29.334 -6.16699 -38.001 -18.5
s-13 -26.166 -13 -41.499c0 -14.667 4.33301 -28.167 13 -40.5s21.334 -18.5 38.001 -18.5z" />
    <glyph glyph-name="Uhungarumlaut" unicode="&#x170;" horiz-adv-x="615" 
d="M305 -13c-50.667 0 -94.667 11.334 -132 34.001s-63.333 52.167 -78 88.5s-22 74.166 -22 113.499v444h76v-429c0 -56.667 13.833 -100.834 41.5 -132.501s66.5 -47.5 116.5 -47.5s89 15.333 117 46s42 75.334 42 134.001v429h76v-444c0 -56 -13.333 -103 -40 -141
s-58.5 -63.167 -95.5 -75.5s-70.833 -18.833 -101.5 -19.5zM201 710.001l-34 37l159 139l48 -52zM377 710.001l-34 37l157 139l50 -52z" />
    <glyph glyph-name="uhungarumlaut" unicode="&#x171;" horiz-adv-x="511" 
d="M233 -11c-60 0 -103.333 15.333 -130 46s-40 77.334 -40 140.001v302h73v-306c0 -42 9.16699 -72.5 27.5 -91.5s45.5 -28.5 81.5 -28.5c23.333 0 46.5 5.16699 69.5 15.5s41.833 22.833 56.5 37.5v373h75v-477h-68l-5 37c-18.667 -14.667 -38.667 -26.334 -60 -35.001
s-48 -13 -80 -13zM142 544l-34 37l159 139l48 -52zM318 544l-34 37l157 139l50 -52z" />
    <glyph glyph-name="Uogonek" unicode="&#x172;" horiz-adv-x="615" 
d="M305 -13c-50.667 0 -94.667 11.334 -132 34.001s-63.333 52.167 -78 88.5s-22 74.166 -22 113.499v444h76v-429c0 -56.667 13.833 -100.834 41.5 -132.501s66.5 -47.5 116.5 -47.5s89 15.333 117 46s42 75.334 42 134.001v429h76v-444c0 -56 -13.333 -103 -40 -141
s-58.5 -63.167 -95.5 -75.5s-70.833 -18.833 -101.5 -19.5zM340 -197.999c-28 0 -50.165 6.83008 -66.498 20.4971s-24.5 33.834 -24.5 60.501c0 20.667 7 41.834 21 63.501s28.167 37.834 42.5 48.501s26.166 18.667 35.499 24l48 -16c-14 -10 -27.333 -20.833 -40 -32.5
s-22.167 -23.667 -28.5 -36s-9.5 -23.833 -9.5 -34.5c0 -9.33301 2.5 -17.833 7.5 -25.5s14.5 -11.5 28.5 -11.5c13.333 0 25.333 3.66699 36 11l16 -55c-8 -4.66699 -17.833 -8.66699 -29.5 -12s-23.834 -5 -36.501 -5z" />
    <glyph glyph-name="uogonek" unicode="&#x173;" horiz-adv-x="511" 
d="M233 -11c-60 0 -103.333 15.333 -130 46s-40 77.334 -40 140.001v302h73v-306c0 -42 9.16699 -72.5 27.5 -91.5s45.5 -28.5 81.5 -28.5c23.333 0 46.5 5.16699 69.5 15.5s41.833 22.833 56.5 37.5v373h75v-477h-68l-5 37c-18.667 -14.667 -38.667 -26.334 -60 -35.001
s-48 -13 -80 -13zM387 -198c-28 0 -50.165 6.83008 -66.498 20.4971s-24.5 33.834 -24.5 60.501c0 20.667 7 41.834 21 63.501s28.167 37.834 42.5 48.501s26.166 18.667 35.499 24l48 -16c-14 -10 -27.333 -20.833 -40 -32.5s-22.167 -23.667 -28.5 -36
s-9.5 -23.833 -9.5 -34.5c0 -9.33301 2.5 -17.833 7.5 -25.5s14.5 -11.5 28.5 -11.5c13.333 0 25.333 3.66699 36 11l16 -55c-8 -4.66699 -17.833 -8.66699 -29.5 -12s-23.834 -5 -36.501 -5z" />
    <glyph glyph-name="Wcircumflex" unicode="&#x174;" horiz-adv-x="713" 
d="M148 0l-148 667h77l108 -521l151 521h56l135 -517l109 517h77l-154 -667h-58l-141 517l-152 -517h-60zM266 710l-43 30l120 144h46l119 -144l-41 -30l-101 112z" />
    <glyph glyph-name="wcircumflex" unicode="&#x175;" horiz-adv-x="628" 
d="M140 0l-140 477h79l99 -371l115 371h45l113 -370l99 370h78l-140 -477h-67l-107 346l-108 -346h-66zM219 544l-43 30l120 144h46l119 -144l-41 -30l-101 112z" />
    <glyph glyph-name="Ycircumflex" unicode="&#x176;" horiz-adv-x="516" 
d="M216 0v320l-216 347h86l170 -270l177 270h83l-224 -346v-321h-76zM165 710l-43 30l120 144h46l119 -144l-41 -30l-101 112z" />
    <glyph glyph-name="ycircumflex" unicode="&#x177;" horiz-adv-x="453" 
d="M4 -193l-7.99707 68.0029c48 0 84.167 6 108.5 18s44.166 28.667 59.499 50c9.33301 15.333 16.666 28.666 21.999 39.999l-178 494h82l143 -415c26 58 50.5 122.5 73.5 193.5s44.167 144.833 63.5 221.5h78c-31.333 -118.667 -61.333 -215.834 -90 -291.501
s-54 -135.834 -76 -180.501c-12.667 -25.333 -25.834 -49.833 -39.501 -73.5s-30.5 -44.667 -50.5 -63s-45 -33 -75 -44s-67.667 -16.833 -113 -17.5zM136.003 544.003l-43 30l120 144h46l119 -144l-41 -30l-101 112z" />
    <glyph glyph-name="Ydieresis" unicode="&#x178;" horiz-adv-x="516" 
d="M216 0v320l-216 347h86l170 -270l177 270h83l-224 -346v-321h-76zM175 756c-13.333 0 -24.833 4.16699 -34.5 12.5s-14.5 20.5 -14.5 36.5c0 15.333 4.83301 27.333 14.5 36s21.167 13 34.5 13s24.666 -4.33301 33.999 -13s14 -20.667 14 -36
c0 -16 -4.66699 -28.167 -14 -36.5s-20.666 -12.5 -33.999 -12.5zM346 756c-13.333 0 -24.833 4.16699 -34.5 12.5s-14.5 20.5 -14.5 36.5c0 15.333 4.83301 27.333 14.5 36s21.167 13 34.5 13s24.666 -4.33301 33.999 -13s14 -20.667 14 -36
c0 -16 -4.66699 -28.167 -14 -36.5s-20.666 -12.5 -33.999 -12.5z" />
    <glyph glyph-name="Zacute" unicode="&#x179;" horiz-adv-x="508" 
d="M36 0v74l357 524h-341v69h411v-86l-348 -512h362v-69h-441zM190 710l-36 37l159 139l49 -52z" />
    <glyph glyph-name="zacute" unicode="&#x17a;" horiz-adv-x="429" 
d="M38 0v75l270 339h-260v63h335v-79l-271 -335h278v-63h-352zM161 544l-36 37l159 139l49 -52z" />
    <glyph glyph-name="Zdotaccent" unicode="&#x17b;" horiz-adv-x="508" 
d="M36 0v74l357 524h-341v69h411v-86l-348 -512h362v-69h-441zM257 751c-15.333 0 -28 5 -38 15s-15 23.667 -15 41s5 31.166 15 41.499s22.667 15.5 38 15.5c16 0 28.833 -5.16699 38.5 -15.5s14.5 -24.166 14.5 -41.499s-4.83301 -31 -14.5 -41s-22.5 -15 -38.5 -15z" />
    <glyph glyph-name="zdotaccent" unicode="&#x17c;" horiz-adv-x="429" 
d="M38 0v75l270 339h-260v63h335v-79l-271 -335h278v-63h-352zM219 585c-15.333 0 -28 5 -38 15s-15 23.667 -15 41s5 31.166 15 41.499s22.667 15.5 38 15.5c16 0 28.833 -5.16699 38.5 -15.5s14.5 -24.166 14.5 -41.499s-4.83301 -31 -14.5 -41s-22.5 -15 -38.5 -15z" />
    <glyph glyph-name="Zcaron" unicode="&#x17d;" horiz-adv-x="508" 
d="M36 0v74l357 524h-341v69h411v-86l-348 -512h362v-69h-441zM237 710l-120 144l43 30l100 -112l101 112l41 -30l-119 -144h-46z" />
    <glyph glyph-name="zcaron" unicode="&#x17e;" horiz-adv-x="429" 
d="M38 0v75l270 339h-260v63h335v-79l-271 -335h278v-63h-352zM197 544l-120 144l43 30l100 -112l101 112l41 -30l-119 -144h-46z" />
    <glyph glyph-name="longs" unicode="&#x17f;" horiz-adv-x="278" 
d="M86 0v512c0 42.667 7.16699 77.334 21.5 104.001s32.333 44 54 52s42.5 12 62.5 12c28 0 54.667 -4.66699 80 -14l-7 -64c-9.33301 4.66699 -20 8.16699 -32 10.5s-23.667 3.5 -35 3.5c-30 0 -49.167 -9.83301 -57.5 -29.5s-12.5 -44.834 -12.5 -75.501v-511h-74z" />
    <glyph glyph-name="florin" unicode="&#x192;" horiz-adv-x="540" 
d="M-30 -150l0.000976562 70.001c30.667 0 56 3.16699 76 9.5s37 15.166 51 26.499c13.333 12 26 36.333 38 73s26 89.667 42 159l39 181h-107v69h122c11.333 63.333 31.166 112.166 59.499 146.499s59.333 55.5 93 63.5s64.5 12 92.5 12v-69
c-36 0 -64.833 -5.33301 -86.5 -16s-38.667 -28 -51 -52s-22.5 -52.333 -30.5 -85h168v-69h-181l-49 -219l-15 -64.5c-5.33301 -23 -11.833 -45.5 -19.5 -67.5s-17.167 -43 -28.5 -63s-25 -37 -41 -51c-20 -18 -43.667 -31.167 -71 -39.5s-61 -13.166 -101 -14.499z" />
    <glyph glyph-name="Scommaaccent" unicode="&#x218;" horiz-adv-x="490" 
d="M237 -14c-22 0 -43.167 1.99805 -63.5 5.99805s-39 9.33301 -56 16s-32.167 13.834 -45.5 21.501s-24.666 15.5 -33.999 23.5l33 71c24.667 -20.667 50.667 -37 78 -49s57.666 -18 90.999 -18c28 0 52.667 5 74 15s36.666 24.167 45.999 42.5s14 37.833 14 58.5
c0 32.667 -11.5 58.667 -34.5 78s-61.167 39.333 -114.5 60c-39.333 14 -72.666 30.333 -99.999 49s-46.833 39.834 -58.5 63.501s-17.5 49.5 -17.5 77.5c0 42 11.833 77.5 35.5 106.5s50.834 48.167 81.501 57.5s59.334 14 86.001 14
c41.333 0 79.666 -7.83301 114.999 -23.5s64.666 -37.5 87.999 -65.5l-37 -58c-47.333 50.667 -104 76 -170 76c-37.333 0 -66.333 -8.83301 -87 -26.5s-31 -42.167 -31 -73.5c0 -25.333 7 -46.166 21 -62.499s32.667 -30 56 -41s47.333 -21.167 72 -30.5
c45.333 -18.667 80.333 -36.334 105 -53.001s42.667 -37 54 -61s17 -50.333 17 -79c0 -49.333 -12 -89.5 -36 -120.5s-53 -51 -87 -60s-65.667 -13.833 -95 -14.5zM161 -174.002l48 130h78l-68 -130h-58z" />
    <glyph glyph-name="scommaaccent" unicode="&#x219;" horiz-adv-x="391" 
d="M200 -11c-28 0 -53 3.33691 -75 10.0039s-40.333 14.334 -55 23.001s-24.667 15.667 -30 21l26 62c14.667 -12.667 33.167 -24.834 55.5 -36.501s48.5 -17.5 78.5 -17.5c30.667 0 53.834 6 69.501 18s23.5 31 23.5 57c0 33.333 -39.333 65.333 -118 96
c-45.333 16.667 -77.333 35.167 -96 55.5s-28 47.166 -28 80.499c0 38.667 13.5 70.167 40.5 94.5s62.833 36.5 107.5 36.5c35.333 0 65.666 -5.5 90.999 -16.5s46 -24.167 62 -39.5l-31 -55c-16 15.333 -34 27.333 -54 36s-42.333 13 -67 13
c-28 0 -48.167 -6.66699 -60.5 -20s-18.5 -28 -18.5 -44c0 -30.667 36.667 -59.334 110 -86.001c42 -15.333 74.167 -33.833 96.5 -55.5s33.5 -51.834 33.5 -90.501c0 -34 -8.5 -61.833 -25.5 -83.5s-38 -36.834 -63 -45.501s-49.167 -13 -72.5 -13zM122 -173.996l48 130h78
l-68 -130h-58z" />
    <glyph glyph-name="uni021A" unicode="&#x21a;" horiz-adv-x="485" 
d="M205 0v598h-196v69h468v-69h-197v-598h-75zM154 -174l48 130h78l-68 -130h-58z" />
    <glyph glyph-name="uni021B" unicode="&#x21b;" horiz-adv-x="312" 
d="M202 -11c-34 0 -60.1689 9.16699 -78.502 27.5s-27.5 46.5 -27.5 84.5v313h-78v63h78v130h73v-130h119v-63h-120v-305c0 -23.333 4.33301 -38.833 13 -46.5s19.667 -11.5 33 -11.5c21.333 0 43.333 8.66699 66 26l20 -58c-11.333 -8 -25.166 -15 -41.499 -21
s-35.166 -9 -56.499 -9zM112.998 -174l48 130h78l-68 -130h-58z" />
    <glyph glyph-name="dotlessj" unicode="&#x237;" horiz-adv-x="205" 
d="M31 -197l-29 60.001c30.667 22 49 41.5 55 58.5s9 37.5 9 61.5v494h74v-492c0 -46.667 -9.16699 -83.834 -27.5 -111.501s-45.5 -51.167 -81.5 -70.5z" />
    <glyph glyph-name="circumflex" unicode="&#x2c6;" horiz-adv-x="420" 
d="M110 544l-43 30l120 144h46l119 -144l-41 -30l-101 112z" />
    <glyph glyph-name="caron" unicode="&#x2c7;" horiz-adv-x="420" 
d="M187 544l-120 144l43 30l100 -112l101 112l41 -30l-119 -144h-46z" />
    <glyph glyph-name="uni02C9" unicode="&#x2c9;" horiz-adv-x="420" 
d="M70 607v62h280v-62h-280z" />
    <glyph glyph-name="breve" unicode="&#x2d8;" horiz-adv-x="420" 
d="M207 554c-26 0 -49.668 5.83301 -71.001 17.5s-36.5 27 -45.5 46s-13.833 40.5 -14.5 64.5h60c2 -20 7.5 -36 16.5 -48s18.833 -19.167 29.5 -21.5s20.334 -3.5 29.001 -3.5c16.667 0 32.167 4.83301 46.5 14.5s24.166 29.167 29.499 58.5h57
c-3.33301 -35.333 -13.5 -63 -30.5 -83s-35.167 -32.5 -54.5 -37.5s-36.666 -7.5 -51.999 -7.5z" />
    <glyph glyph-name="dotaccent" unicode="&#x2d9;" horiz-adv-x="420" 
d="M210 585c-15.333 0 -28 5 -38 15s-15 23.667 -15 41s5 31.166 15 41.499s22.667 15.5 38 15.5c16 0 28.833 -5.16699 38.5 -15.5s14.5 -24.166 14.5 -41.499s-4.83301 -31 -14.5 -41s-22.5 -15 -38.5 -15z" />
    <glyph glyph-name="ring" unicode="&#x2da;" horiz-adv-x="420" 
d="M221 534c-21.333 0 -39.666 5.66895 -54.999 17.002s-25.5 24.666 -30.5 39.999s-7.5 29.333 -7.5 42c0 20 4.5 38 13.5 54s20.667 27.667 35 35s29.166 11 44.499 11c20.667 0 38.834 -5.83301 54.501 -17.5s26.167 -25.167 31.5 -40.5s8 -29.333 8 -42
c0 -19.333 -4.66699 -37.333 -14 -54s-21.333 -28.334 -36 -35.001s-29.334 -10 -44.001 -10zM221 574.002c16.667 0 29.334 6.16699 38.001 18.5s13 25.833 13 40.5c0 15.333 -4.33301 29.166 -13 41.499s-21.334 18.5 -38.001 18.5s-29.334 -6.16699 -38.001 -18.5
s-13 -26.166 -13 -41.499c0 -14.667 4.33301 -28.167 13 -40.5s21.334 -18.5 38.001 -18.5z" />
    <glyph glyph-name="ogonek" unicode="&#x2db;" horiz-adv-x="420" 
d="M173 -198c-28 0 -50.165 6.83008 -66.498 20.4971s-24.5 33.834 -24.5 60.501c0 20.667 7 41.834 21 63.501s28.167 37.834 42.5 48.501s26.166 18.667 35.499 24l48 -16c-14 -10 -27.333 -20.833 -40 -32.5s-22.167 -23.667 -28.5 -36s-9.5 -23.833 -9.5 -34.5
c0 -9.33301 2.5 -17.833 7.5 -25.5s14.5 -11.5 28.5 -11.5c13.333 0 25.333 3.66699 36 11l16 -55c-8 -4.66699 -17.833 -8.66699 -29.5 -12s-23.834 -5 -36.501 -5z" />
    <glyph glyph-name="tilde" unicode="&#x2dc;" horiz-adv-x="420" 
d="M92 569l-45.999 23c9.33301 30 22.5 54 39.5 72s36.5 27 58.5 27c14 0 27.833 -3.5 41.5 -10.5s26.5 -15.167 38.5 -24.5c18.667 -14.667 35 -22 49 -22c9.33301 0 18.666 4.33301 27.999 13s18.666 24 27.999 46l46 -24c-10 -30.667 -23.5 -54.667 -40.5 -72
s-36.5 -26 -58.5 -26c-12 0 -23.667 2.66699 -35 8s-22.666 12 -33.999 20c-26.667 19.333 -46.667 29 -60 29c-11.333 0 -21 -4.5 -29 -13.5s-16.667 -24.167 -26 -45.5z" />
    <glyph glyph-name="hungarumlaut" unicode="&#x2dd;" horiz-adv-x="420" 
d="M53 544l-34 37l159 139l48 -52zM229 544l-34 37l157 139l50 -52z" />
    <glyph glyph-name="tonos" unicode="&#x384;" horiz-adv-x="442" 
d="M197 535l-47 21l93 193l68 -27z" />
    <glyph glyph-name="dieresistonos" unicode="&#x385;" horiz-adv-x="442" 
d="M211 561l-47 21l93 193l68 -27zM92 590c-14 0 -25.833 5.5 -35.5 16.5s-14.5 24.167 -14.5 39.5s4.83301 28.333 14.5 39s21.5 16 35.5 16c13.333 0 24.833 -5.33301 34.5 -16s14.5 -23.667 14.5 -39s-4.83301 -28.5 -14.5 -39.5s-21.167 -16.5 -34.5 -16.5zM369 590
c-13.333 0 -24.833 5.5 -34.5 16.5s-14.5 24.167 -14.5 39.5s4.83301 28.333 14.5 39s21.167 16 34.5 16c14 0 25.833 -5.33301 35.5 -16s14.5 -23.667 14.5 -39s-4.83301 -28.5 -14.5 -39.5s-21.5 -16.5 -35.5 -16.5z" />
    <glyph glyph-name="Alphatonos" unicode="&#x386;" horiz-adv-x="540" 
d="M0 0l237 667h62l241 -667h-83l-75 206h-232l-70 -206h-80zM175 277h182l-92 276zM88 449l-50 15l59 204l71 -18z" />
    <glyph glyph-name="Epsilontonos" unicode="&#x388;" horiz-adv-x="491" 
d="M80 0v667h370v-69h-294v-214h210v-69h-211v-246h317v-69h-392zM-27 449l-50 15l59 204l71 -18z" />
    <glyph glyph-name="Etatonos" unicode="&#x389;" horiz-adv-x="636" 
d="M-27 449l-50 15l59 204l71 -18zM91 0v667h76v-289h317v289h75v-667h-75v307h-317v-307h-76z" />
    <glyph glyph-name="Iotatonos" unicode="&#x38a;" horiz-adv-x="244" 
d="M-20 449l-50 15l59 204l71 -18zM91 0v667h76v-667h-76z" />
    <glyph glyph-name="Omicrontonos" unicode="&#x38c;" horiz-adv-x="619" 
d="M-27 449l-50 15l59 204l71 -18zM308 -13c-46.667 0 -86.8291 10 -120.496 30s-61.334 46.167 -83.001 78.5s-37.667 69.333 -48 111s-15.5 84.167 -15.5 127.5c0 69.333 12 132 36 188s56.667 96.333 98 121s85.666 37 132.999 37c66 0 120 -20 162 -60
s70 -86.833 84 -140.5s21 -102.167 21 -145.5s-5.16699 -85.833 -15.5 -127.5s-26.333 -78.667 -48 -111s-49.334 -58.5 -83.001 -78.5s-73.834 -30 -120.501 -30zM308.005 58c45.333 0 83.335 16.3301 114.002 48.9971s50.667 70 60 112s14 80.333 14 115
c0 54.667 -8.33301 103.834 -25 147.501s-39.834 75.834 -69.501 96.501s-60.834 31 -93.501 31c-46.667 0 -85 -16.167 -115 -48.5s-49.667 -69.666 -59 -111.999s-14 -80.5 -14 -114.5c0 -34.667 3.83301 -68.5 11.5 -101.5s19.167 -62.5 34.5 -88.5
s34.833 -46.833 58.5 -62.5s51.5 -23.5 83.5 -23.5z" />
    <glyph glyph-name="Upsilontonos" unicode="&#x38e;" horiz-adv-x="517" 
d="M-102 449l-50 15l59 204l71 -18zM219 0l0.00390625 184.003c0 28 -1.33301 52.667 -4 74c-4 28.667 -13 60 -27 94s-31.167 67.667 -51.5 101s-43.333 64.666 -69 93.999s-51.834 53.666 -78.501 72.999l47 56c30 -21.333 62.5 -51.833 97.5 -91.5
s63.667 -81.334 86 -125.001s36.5 -82.834 42.5 -117.501c9.33301 43.333 29.166 90.833 59.499 142.5s60 93.334 89 125.001s54.167 54.167 75.5 67.5l43 -52c-23.333 -14.667 -48 -38 -74 -70s-51.333 -69.5 -76 -112.5s-43.334 -81 -56.001 -114
s-20.334 -61.167 -23.001 -84.5c-3.33301 -28 -5 -58 -5 -90v-154h-76z" />
    <glyph glyph-name="Omegatonos" unicode="&#x38f;" horiz-adv-x="635" 
d="M30 0l0.00195312 69.002h130c-27.333 23.333 -51.166 49.5 -71.499 78.5s-35.333 61.167 -45 96.5s-14.5 70.666 -14.5 105.999c0 70 14.333 131.667 43 185s64.667 90.833 108 112.5s86.666 32.5 129.999 32.5c62.667 0 116.334 -17.333 161.001 -52s75 -76 91 -124
s24 -95 24 -141c0 -50 -7.83301 -96 -23.5 -138s-33.667 -75 -54 -99s-38.5 -43 -54.5 -57h132v-69h-219v69c26 18.667 50.667 44 74 76s40.166 66.833 50.499 104.5s15.5 72.5 15.5 104.5c0 57.333 -9.83301 106.5 -29.5 147.5s-44.834 69.167 -75.501 84.5
s-61.334 23 -92.001 23c-31.333 0 -59.333 -6.33301 -84 -19s-45.834 -30.5 -63.501 -53.5s-31.167 -50.5 -40.5 -82.5s-14 -67.333 -14 -106c0 -32 4.33301 -62 13 -90s19.834 -53.833 33.501 -77.5s29 -44.834 46 -63.501s34.167 -34.667 51.5 -48v-69h-222z
M-26.998 449.002l-50 15l59 204l71 -18z" />
    <glyph glyph-name="iotadieresistonos" unicode="&#x390;" horiz-adv-x="251" 
d="M177 -11c-34 0 -60.167 9.33301 -78.5 28s-27.5 49 -27.5 91v369h72v-359c0 -22.667 2.83301 -39.5 8.5 -50.5s17.167 -16.5 34.5 -16.5c10 0 26.333 3.33301 49 10l11 -56c-24 -10.667 -47 -16 -69 -16zM115 561l-47 21l93 193l68 -27zM-4 590
c-14 0 -25.833 5.5 -35.5 16.5s-14.5 24.167 -14.5 39.5s4.83301 28.333 14.5 39s21.5 16 35.5 16c13.333 0 24.833 -5.33301 34.5 -16s14.5 -23.667 14.5 -39s-4.83301 -28.5 -14.5 -39.5s-21.167 -16.5 -34.5 -16.5zM273 590c-13.333 0 -24.833 5.5 -34.5 16.5
s-14.5 24.167 -14.5 39.5s4.83301 28.333 14.5 39s21.167 16 34.5 16c14 0 25.833 -5.33301 35.5 -16s14.5 -23.667 14.5 -39s-4.83301 -28.5 -14.5 -39.5s-21.5 -16.5 -35.5 -16.5z" />
    <glyph glyph-name="Alpha" unicode="&#x391;" horiz-adv-x="540" 
d="M0 0l237 667h62l241 -667h-83l-75 206h-232l-70 -206h-80zM175 277h182l-92 276z" />
    <glyph glyph-name="Beta" unicode="&#x392;" horiz-adv-x="510" 
d="M77 0v666.999h180c64 0 112 -15.333 144 -46s48 -72 48 -124c0 -42.667 -11.5 -75.5 -34.5 -98.5s-52.5 -37.833 -88.5 -44.5c30.667 -4 58 -13.167 82 -27.5s42.333 -33.833 55 -58.5s19 -52 19 -82c0 -43.333 -9.66699 -79.666 -29 -108.999s-43.5 -49.5 -72.5 -60.5
s-56.833 -16.5 -83.5 -16.5h-220zM153 68.999h141c32 0 57.833 9.83301 77.5 29.5s29.5 49.5 29.5 89.5c0 84.667 -49 127 -147 127h-101v-246zM153 383.999h98c38 0 67.333 10.667 88 32s31 49.333 31 84c0 65.333 -36.667 98 -110 98h-107v-214z" />
    <glyph glyph-name="Gamma" unicode="&#x393;" horiz-adv-x="455" 
d="M77 0v667h360v-69h-284v-598h-76z" />
    <glyph glyph-name="uni0394" unicode="&#x394;" horiz-adv-x="558" 
d="M0 0l247 667h55l256 -667h-558zM102 65h350l-180 482z" />
    <glyph glyph-name="Epsilon" unicode="&#x395;" horiz-adv-x="488" 
d="M77 0v667h370v-69h-294v-214h210v-69h-211v-246h317v-69h-392z" />
    <glyph glyph-name="Zeta" unicode="&#x396;" horiz-adv-x="508" 
d="M36 0v74l357 524h-341v69h411v-86l-348 -512h362v-69h-441z" />
    <glyph glyph-name="Eta" unicode="&#x397;" horiz-adv-x="622" 
d="M77 0v667h76v-289h317v289h75v-667h-75v307h-317v-307h-76z" />
    <glyph glyph-name="Theta" unicode="&#x398;" horiz-adv-x="628" 
d="M314 -13c-46.667 0 -86.8291 10 -120.496 30s-61.334 46.167 -83.001 78.5s-37.667 69.333 -48 111s-15.5 84.167 -15.5 127.5c0 69.333 12 132 36 188s56.667 96.333 98 121s85.666 37 132.999 37c66 0 120 -20 162 -60s70 -86.833 84 -140.5s21 -102.167 21 -145.5
s-5.16699 -85.833 -15.5 -127.5s-26.333 -78.667 -48 -111s-49.334 -58.5 -83.001 -78.5s-73.834 -30 -120.501 -30zM314.005 58c45.333 0 83.335 16.3301 114.002 48.9971s50.667 70 60 112s14 80.333 14 115c0 54.667 -8.33301 103.834 -25 147.501
s-39.834 75.834 -69.501 96.501s-60.834 31 -93.501 31c-46.667 0 -85 -16.167 -115 -48.5s-49.667 -69.666 -59 -111.999s-14 -80.5 -14 -114.5c0 -34.667 3.83301 -68.5 11.5 -101.5s19.167 -62.5 34.5 -88.5s34.833 -46.833 58.5 -62.5s51.5 -23.5 83.5 -23.5z
M184.007 299.997v69h258v-69h-258z" />
    <glyph glyph-name="Iota" unicode="&#x399;" horiz-adv-x="230" 
d="M77 0v667h76v-667h-76z" />
    <glyph glyph-name="Kappa" unicode="&#x39a;" horiz-adv-x="531" 
d="M438 0l-219 347l-66 -71v-275h-76v666h76v-293l273 293h90l-244 -262l257 -405h-91z" />
    <glyph glyph-name="Lambda" unicode="&#x39b;" horiz-adv-x="522" 
d="M0 0l231 667h54l237 -667h-83l-182 532l-176 -532h-81z" />
    <glyph glyph-name="Mu" unicode="&#x39c;" horiz-adv-x="714" 
d="M327 -11l-174 529l-23 -518h-66l29 667h89l174 -545l181 545h88l28 -667h-73l-23 515l-180 -526h-50z" />
    <glyph glyph-name="Nu" unicode="&#x39d;" horiz-adv-x="625" 
d="M77 0v667h77l319 -497v497h75v-667h-56l-340 529v-529h-75z" />
    <glyph glyph-name="Xi" unicode="&#x39e;" horiz-adv-x="531" 
d="M55 0v70h421v-70h-421zM107 314v69h316v-69h-316zM60 597v70h411v-70h-411z" />
    <glyph glyph-name="Omicron" unicode="&#x39f;" horiz-adv-x="628" 
d="M314 -13c-46.667 0 -86.8291 10 -120.496 30s-61.334 46.167 -83.001 78.5s-37.667 69.333 -48 111s-15.5 84.167 -15.5 127.5c0 69.333 12 132 36 188s56.667 96.333 98 121s85.666 37 132.999 37c66 0 120 -20 162 -60s70 -86.833 84 -140.5s21 -102.167 21 -145.5
s-5.16699 -85.833 -15.5 -127.5s-26.333 -78.667 -48 -111s-49.334 -58.5 -83.001 -78.5s-73.834 -30 -120.501 -30zM314.005 58c45.333 0 83.335 16.3301 114.002 48.9971s50.667 70 60 112s14 80.333 14 115c0 54.667 -8.33301 103.834 -25 147.501
s-39.834 75.834 -69.501 96.501s-60.834 31 -93.501 31c-46.667 0 -85 -16.167 -115 -48.5s-49.667 -69.666 -59 -111.999s-14 -80.5 -14 -114.5c0 -34.667 3.83301 -68.5 11.5 -101.5s19.167 -62.5 34.5 -88.5s34.833 -46.833 58.5 -62.5s51.5 -23.5 83.5 -23.5z" />
    <glyph glyph-name="Pi" unicode="&#x3a0;" horiz-adv-x="609" 
d="M77 0v667h455v-667h-76v598h-302v-598h-77z" />
    <glyph glyph-name="Rho" unicode="&#x3a1;" horiz-adv-x="514" 
d="M77 0v667h198c72.667 0 126.5 -17 161.5 -51s52.5 -84.333 52.5 -151c0 -64.667 -18.5 -113.667 -55.5 -147s-90.833 -50 -161.5 -50h-119v-268h-76zM153 338h124c38.667 0 70.167 10 94.5 30s36.5 53 36.5 99s-11.5 79.333 -34.5 100s-55.5 31 -97.5 31h-123v-260z" />
    <glyph glyph-name="Sigma" unicode="&#x3a3;" horiz-adv-x="486" 
d="M25 0v70l243 262l-253 264v71h433v-69h-338l254 -265l-247 -264h349v-69h-441z" />
    <glyph glyph-name="Tau" unicode="&#x3a4;" horiz-adv-x="485" 
d="M205 0v598h-196v69h468v-69h-197v-598h-75z" />
    <glyph glyph-name="Upsilon" unicode="&#x3a5;" horiz-adv-x="540" 
d="M230 0l0.00390625 184.003c0 28 -1.33301 52.667 -4 74c-4 28.667 -13 60 -27 94s-31.167 67.667 -51.5 101s-43.333 64.666 -69 93.999s-51.834 53.666 -78.501 72.999l47 56c30 -21.333 62.5 -51.833 97.5 -91.5s63.667 -81.334 86 -125.001
s36.5 -82.834 42.5 -117.501c9.33301 43.333 29.166 90.833 59.499 142.5s60 93.334 89 125.001s54.167 54.167 75.5 67.5l43 -52c-23.333 -14.667 -48 -38 -74 -70s-51.333 -69.5 -76 -112.5s-43.334 -81 -56.001 -114s-20.334 -61.167 -23.001 -84.5
c-3.33301 -28 -5 -58 -5 -90v-154h-76z" />
    <glyph glyph-name="Phi" unicode="&#x3a6;" horiz-adv-x="686" 
d="M308 -11l0.000976562 94.0059c-40 1.33301 -75.833 7.83301 -107.5 19.5s-58.834 27.667 -81.501 48s-40 45.166 -52 74.499s-18 62.666 -18 99.999c0 38.667 6.5 73.667 19.5 105s31 58 54 80s50.333 39.333 82 52s66.167 19.667 103.5 21v97h76v-97
c59.333 -2 110 -15.833 152 -41.5s71 -56.834 87 -93.501s24 -73 24 -109c0 -38.667 -6.16699 -73.334 -18.5 -104.001s-30 -56.834 -53 -78.501s-50.667 -38.834 -83 -51.501s-68.5 -20 -108.5 -22v-94h-76zM308.001 150.006v367.003c-26 -0.666992 -50 -5.16699 -72 -13.5
s-41 -20.5 -57 -36.5s-28.5 -35.667 -37.5 -59s-13.5 -50.333 -13.5 -81c0 -29.333 4.5 -54.833 13.5 -76.5s21.5 -39.834 37.5 -54.501s35 -25.834 57 -33.501s46 -11.834 72 -12.501zM384.001 150.009c38 0.666992 71.833 9.33301 101.5 26s50.834 39.5 63.501 68.5
s19 59.167 19 90.5c0 42 -10.167 77.5 -30.5 106.5s-44.833 48.833 -73.5 59.5s-55.334 16 -80.001 16v-367z" />
    <glyph glyph-name="Chi" unicode="&#x3a7;" horiz-adv-x="490" 
d="M0 0l197 342l-180 325h92l136 -262l139 262h87l-180 -319l199 -348h-95l-152 286l-156 -286h-87z" />
    <glyph glyph-name="Psi" unicode="&#x3a8;" horiz-adv-x="714" 
d="M322 0l0.000976562 201.997c-86 3.33301 -149.333 25.333 -190 66s-61 104.334 -61 191.001v208h76v-197c0 -53.333 9 -95.5 27 -126.5s40.5 -50.667 67.5 -59s53.833 -12.5 80.5 -12.5v395h76v-395c53.333 0.666992 95.666 15.834 126.999 45.501s47 74.834 47 135.501
v214h76v-214c0 -76.667 -20.5 -136.5 -61.5 -179.5s-103.833 -66.833 -188.5 -71.5v-202h-76z" />
    <glyph glyph-name="uni03A9" unicode="&#x3a9;" horiz-adv-x="657" 
d="M49 0l0.00195312 69.002h130c-27.333 23.333 -51.166 49.5 -71.499 78.5s-35.333 61.167 -45 96.5s-14.5 70.666 -14.5 105.999c0 70 14.333 131.667 43 185s64.667 90.833 108 112.5s86.666 32.5 129.999 32.5c62.667 0 116.334 -17.333 161.001 -52s75 -76 91 -124
s24 -95 24 -141c0 -50 -7.83301 -96 -23.5 -138s-33.667 -75 -54 -99s-38.5 -43 -54.5 -57h132v-69h-219v69c26 18.667 50.667 44 74 76s40.166 66.833 50.499 104.5s15.5 72.5 15.5 104.5c0 57.333 -9.83301 106.5 -29.5 147.5s-44.834 69.167 -75.501 84.5
s-61.334 23 -92.001 23c-31.333 0 -59.333 -6.33301 -84 -19s-45.834 -30.5 -63.501 -53.5s-31.167 -50.5 -40.5 -82.5s-14 -67.333 -14 -106c0 -32 4.33301 -62 13 -90s19.834 -53.833 33.501 -77.5s29 -44.834 46 -63.501s34.167 -34.667 51.5 -48v-69h-222z" />
    <glyph glyph-name="Iotadieresis" unicode="&#x3aa;" horiz-adv-x="242" 
d="M77 0v667h76v-667h-76zM31 756c-13.333 0 -24.833 4.16699 -34.5 12.5s-14.5 20.5 -14.5 36.5c0 15.333 4.83301 27.333 14.5 36s21.167 13 34.5 13s24.666 -4.33301 33.999 -13s14 -20.667 14 -36c0 -16 -4.66699 -28.167 -14 -36.5s-20.666 -12.5 -33.999 -12.5z
M202 756c-13.333 0 -24.833 4.16699 -34.5 12.5s-14.5 20.5 -14.5 36.5c0 15.333 4.83301 27.333 14.5 36s21.167 13 34.5 13s24.666 -4.33301 33.999 -13s14 -20.667 14 -36c0 -16 -4.66699 -28.167 -14 -36.5s-20.666 -12.5 -33.999 -12.5z" />
    <glyph glyph-name="Upsilondieresis" unicode="&#x3ab;" horiz-adv-x="544" 
d="M182 756c-13.333 0 -24.833 4.16699 -34.5 12.5s-14.5 20.5 -14.5 36.5c0 15.333 4.83301 27.333 14.5 36s21.167 13 34.5 13s24.666 -4.33301 33.999 -13s14 -20.667 14 -36c0 -16 -4.66699 -28.167 -14 -36.5s-20.666 -12.5 -33.999 -12.5zM353 756
c-13.333 0 -24.833 4.16699 -34.5 12.5s-14.5 20.5 -14.5 36.5c0 15.333 4.83301 27.333 14.5 36s21.167 13 34.5 13s24.666 -4.33301 33.999 -13s14 -20.667 14 -36c0 -16 -4.66699 -28.167 -14 -36.5s-20.666 -12.5 -33.999 -12.5zM219 0l0.00390625 184.003
c0 28 -1.33301 52.667 -4 74c-4 28.667 -13 60 -27 94s-31.167 67.667 -51.5 101s-43.333 64.666 -69 93.999s-51.834 53.666 -78.501 72.999l47 56c30 -21.333 62.5 -51.833 97.5 -91.5s63.667 -81.334 86 -125.001s36.5 -82.834 42.5 -117.501
c9.33301 43.333 29.166 90.833 59.499 142.5s60 93.334 89 125.001s54.167 54.167 75.5 67.5l43 -52c-23.333 -14.667 -48 -38 -74 -70s-51.333 -69.5 -76 -112.5s-43.334 -81 -56.001 -114s-20.334 -61.167 -23.001 -84.5c-3.33301 -28 -5 -58 -5 -90v-154h-76z" />
    <glyph glyph-name="alphatonos" unicode="&#x3ac;" horiz-adv-x="544" 
d="M229 -11c-38.667 0 -73.166 11.4971 -103.499 34.4971s-51.166 52.833 -62.499 89.5s-17 74.667 -17 114c0 54.667 9.5 103 28.5 145s43.833 72 74.5 90s62.667 27 96 27c28 0 52.5 -6 73.5 -18s36.667 -25.5 47 -40.5s17.833 -28.5 22.5 -40.5
c1.33301 15.333 4.66602 32.333 9.99902 51s11.666 35.334 18.999 50.001l72 -16c-16 -38.667 -28.667 -79.667 -38 -123s-14 -92.666 -14 -147.999c0 -40.667 2.33301 -71.667 7 -93c4 -22.667 11.167 -37.667 21.5 -45s22.5 -11 36.5 -11c6.66699 0 14 0.666992 22 2
l6 -63c-16 -3.33301 -29.667 -5 -41 -5c-32 0 -56.833 7.83301 -74.5 23.5s-29.167 36.834 -34.5 63.501c-8 -12.667 -14 -21 -18 -25c-24 -25.333 -46.333 -42 -67 -50s-42.667 -12 -66 -12zM239.001 51.9971c21.333 0 40.833 4.66699 58.5 14s31.667 22.5 42 39.5
s17.5 36.5 21.5 58.5c5.33301 25.333 8 53.333 8 84c0 35.333 -4.83301 66.5 -14.5 93.5s-24 47.667 -43 62s-41.5 21.5 -67.5 21.5s-49 -9.5 -69 -28.5s-34 -43.5 -42 -73.5s-12 -62 -12 -96c0 -59.333 11.167 -103.333 33.5 -132s50.5 -43 84.5 -43zM286.001 534.997
l-47 21l93 193l68 -27z" />
    <glyph glyph-name="epsilontonos" unicode="&#x3ad;" horiz-adv-x="459" 
d="M249 -11c-60.667 0 -107.833 11.5 -141.5 34.5s-50.5 58.167 -50.5 105.5c0 30.667 9.16699 56.334 27.5 77.001s42.5 35.334 72.5 44.001c-26 9.33301 -46.833 23.5 -62.5 42.5s-23.5 41.167 -23.5 66.5c0 40.667 15.167 72.5 45.5 95.5s70.833 34.5 121.5 34.5
c40 0 73 -4.33301 99 -13s48.333 -18.334 67 -29.001l-19 -61c-25.333 15.333 -49.833 25.833 -73.5 31.5s-47.167 8.5 -70.5 8.5c-30 0 -53.667 -5.5 -71 -16.5s-26 -29.167 -26 -54.5c0 -18.667 6.83301 -34.834 20.5 -48.501s34.167 -22.167 61.5 -25.5
c6 -1.33301 29.667 -2 71 -2h57v-61h-57c-40 0 -67.333 -1 -82 -3c-25.333 -2 -45.833 -10 -61.5 -24s-23.5 -32 -23.5 -54c0 -28 9.83301 -49.667 29.5 -65s51.5 -23 95.5 -23c27.333 0 53.833 3.5 79.5 10.5s49.167 15.5 70.5 25.5l9 -61
c-19.333 -10.667 -44.5 -19.167 -75.5 -25.5s-60.833 -9.5 -89.5 -9.5zM258.001 535l-47 21l93 193l68 -27z" />
    <glyph glyph-name="etatonos" unicode="&#x3ae;" horiz-adv-x="528" 
d="M393 -189l0.000976562 485c0 25.333 -1 43.666 -3 54.999c-10.667 49.333 -46.334 74 -107.001 74c-28 0 -53.5 -6.5 -76.5 -19.5s-38.167 -29.167 -45.5 -48.5c-4.66699 -12.667 -7 -33 -7 -61v-296h-73v375c0 15.333 -2.33301 26.833 -7 34.5s-12.667 11.5 -24 11.5
c-8 0 -16 -1.66699 -24 -5l-16 58c5.33301 2.66699 12.833 5.16699 22.5 7.5s19.834 3.5 30.501 3.5c19.333 0 35.833 -4 49.5 -12s24.5 -24.333 32.5 -49c19.333 22.667 41.666 39.167 66.999 49.5s53.333 15.5 84 15.5c52.667 0 93.167 -12.167 121.5 -36.5
s43.833 -56.166 46.5 -95.499c1.33301 -11.333 2 -32.333 2 -63v-483h-73zM296.001 535l-47 21l93 193l68 -27z" />
    <glyph glyph-name="iotatonos" unicode="&#x3af;" horiz-adv-x="251" 
d="M177 -11c-34 0 -60.167 9.33301 -78.5 28s-27.5 49 -27.5 91v369h72v-359c0 -22.667 2.83301 -39.5 8.5 -50.5s17.167 -16.5 34.5 -16.5c10 0 26.333 3.33301 49 10l11 -56c-24 -10.667 -47 -16 -69 -16zM104 535l-47 21l93 193l68 -27z" />
    <glyph glyph-name="upsilondieresistonos" unicode="&#x3b0;" horiz-adv-x="521" 
d="M257 -11c-114.667 0 -172.002 67.3359 -172.002 202.003v149c0 20.667 -2 38.5 -6 53.5s-15.333 22.5 -34 22.5c-6 0 -13.667 -1 -23 -3l-12 62c13.333 6.66699 29.333 10 48 10c30 0 51.833 -7.83301 65.5 -23.5s23.167 -34.834 28.5 -57.501
c4 -17.333 6 -40.666 6 -69.999v-145c0 -40.667 8 -72.834 24 -96.501s42 -35.5 78 -35.5c35.333 0 61.833 10 79.5 30s30.167 49.667 37.5 89c4 18 6 53.667 6 107c0 41.333 -6.33301 105 -19 191l72 10c12 -76.667 18 -143.334 18 -200.001c0 -40.667 -2 -77 -6 -109
c-7.33301 -56.667 -26.666 -101.834 -57.999 -135.501s-75.666 -50.5 -132.999 -50.5zM251.998 561.003l-47 21l93 193l68 -27zM132.998 590.003c-14 0 -25.833 5.5 -35.5 16.5s-14.5 24.167 -14.5 39.5s4.83301 28.333 14.5 39s21.5 16 35.5 16
c13.333 0 24.833 -5.33301 34.5 -16s14.5 -23.667 14.5 -39s-4.83301 -28.5 -14.5 -39.5s-21.167 -16.5 -34.5 -16.5zM409.998 590.003c-13.333 0 -24.833 5.5 -34.5 16.5s-14.5 24.167 -14.5 39.5s4.83301 28.333 14.5 39s21.167 16 34.5 16c14 0 25.833 -5.33301 35.5 -16
s14.5 -23.667 14.5 -39s-4.83301 -28.5 -14.5 -39.5s-21.5 -16.5 -35.5 -16.5z" />
    <glyph glyph-name="alpha" unicode="&#x3b1;" horiz-adv-x="544" 
d="M229 -11c-38.667 0 -73.166 11.4971 -103.499 34.4971s-51.166 52.833 -62.499 89.5s-17 74.667 -17 114c0 54.667 9.5 103 28.5 145s43.833 72 74.5 90s62.667 27 96 27c28 0 52.5 -6 73.5 -18s36.667 -25.5 47 -40.5s17.833 -28.5 22.5 -40.5
c1.33301 15.333 4.66602 32.333 9.99902 51s11.666 35.334 18.999 50.001l72 -16c-16 -38.667 -28.667 -79.667 -38 -123s-14 -92.666 -14 -147.999c0 -40.667 2.33301 -71.667 7 -93c4 -22.667 11.167 -37.667 21.5 -45s22.5 -11 36.5 -11c6.66699 0 14 0.666992 22 2
l6 -63c-16 -3.33301 -29.667 -5 -41 -5c-32 0 -56.833 7.83301 -74.5 23.5s-29.167 36.834 -34.5 63.501c-8 -12.667 -14 -21 -18 -25c-24 -25.333 -46.333 -42 -67 -50s-42.667 -12 -66 -12zM239.001 51.9971c21.333 0 40.833 4.66699 58.5 14s31.667 22.5 42 39.5
s17.5 36.5 21.5 58.5c5.33301 25.333 8 53.333 8 84c0 35.333 -4.83301 66.5 -14.5 93.5s-24 47.667 -43 62s-41.5 21.5 -67.5 21.5s-49 -9.5 -69 -28.5s-34 -43.5 -42 -73.5s-12 -62 -12 -96c0 -59.333 11.167 -103.333 33.5 -132s50.5 -43 84.5 -43z" />
    <glyph glyph-name="beta" unicode="&#x3b2;" horiz-adv-x="550" 
d="M76 -190l-0.000976562 646.001c0 14 1.66699 33.667 5 59c4.66699 30.667 15.834 58.667 33.501 84s40.5 44.5 68.5 57.5s58 19.5 90 19.5c54 0 97 -14.333 129 -43s48 -67.334 48 -116.001c0 -28 -7.16699 -54 -21.5 -78s-29.5 -41 -45.5 -51s-30 -17 -42 -21
c31.333 -3.33301 60.333 -13.5 87 -30.5s46.5 -39.333 59.5 -67s19.5 -56.5 19.5 -86.5c0 -41.333 -10.5 -78.166 -31.5 -110.499s-46.667 -54.333 -77 -66s-59.5 -17.5 -87.5 -17.5c-37.333 0 -69.833 5.66699 -97.5 17s-50.167 24.666 -67.5 39.999v-236h-70z
M309.999 51.001c36 0 65.665 10.668 88.998 32.001s35 55.333 35 102c0 47.333 -16.667 83.666 -50 108.999s-80 38 -140 38v62c30 0 55.5 4.66699 76.5 14s36.333 22.833 46 40.5s14.5 37.5 14.5 59.5c0 34 -10 60.167 -30 78.5s-46 27.5 -78 27.5
c-21.333 0 -39.166 -3.16699 -53.499 -9.5s-26.166 -15 -35.499 -26s-16.5 -23.5 -21.5 -37.5s-8.5 -28.333 -10.5 -43c-2 -12 -3 -29 -3 -51v-329c12.667 -13.333 28.667 -25.5 48 -36.5s38.5 -18.833 57.5 -23.5s37.5 -7 55.5 -7z" />
    <glyph glyph-name="gamma" unicode="&#x3b3;" horiz-adv-x="477" 
d="M190 -189c0 84 -2.66699 146 -8 186c-9.33301 68 -25.166 138.333 -47.499 211s-44.833 132 -67.5 178c-6.66699 13.333 -13.5 22 -20.5 26s-14.5 6 -22.5 6c-7.33301 0 -16.666 -1.66699 -27.999 -5l-18 59c7.33301 3.33301 16.666 6.16602 27.999 8.49902
s21.666 3.5 30.999 3.5c18.667 0 35.667 -4.16699 51 -12.5s29 -23.166 41 -44.499c12.667 -22.667 30.667 -70.334 54 -143.001s40.333 -146.667 51 -222c22.667 94.667 48.5 177 77.5 247s54.5 128 76.5 174l60 -24c-27.333 -59.333 -58.5 -133.666 -93.5 -222.999
s-59.5 -160.333 -73.5 -213c-12 -48 -18 -100.333 -18 -157v-55h-73z" />
    <glyph glyph-name="delta" unicode="&#x3b4;" horiz-adv-x="516" 
d="M257 -11c-49.333 0 -91.1689 14.001 -125.502 42.001s-56.833 60.5 -67.5 97.5s-16 71.167 -16 102.5c0 48 10.167 91.333 30.5 130s47 66.667 80 84s67.5 27.666 103.5 30.999c-38.667 34 -87.334 72.667 -146.001 116l22 75h317v-63h-247
c28.667 -21.333 58.834 -45 90.501 -71s60.167 -52.667 85.5 -80c31.333 -33.333 54 -67.166 68 -101.499s21 -73.833 21 -118.5c0 -28 -4.16699 -56.5 -12.5 -85.5s-21.166 -55.333 -38.499 -79s-39.666 -42.834 -66.999 -57.501s-60 -22 -98 -22zM259.997 53.001
c33.333 0 61.167 9.66602 83.5 28.999s37.5 43.166 45.5 71.499s12 54.833 12 79.5c0 46.667 -8.83301 85.167 -26.5 115.5s-38.5 57.166 -62.5 80.499c-67.333 -4 -116 -23.167 -146 -57.5s-45 -79.833 -45 -136.5c0 -25.333 3 -49.166 9 -71.499
s14.833 -41.666 26.5 -57.999s26.167 -29.166 43.5 -38.499s37.333 -14 60 -14z" />
    <glyph glyph-name="epsilon" unicode="&#x3b5;" horiz-adv-x="459" 
d="M249 -11c-60.667 0 -107.833 11.5 -141.5 34.5s-50.5 58.167 -50.5 105.5c0 30.667 9.16699 56.334 27.5 77.001s42.5 35.334 72.5 44.001c-26 9.33301 -46.833 23.5 -62.5 42.5s-23.5 41.167 -23.5 66.5c0 40.667 15.167 72.5 45.5 95.5s70.833 34.5 121.5 34.5
c40 0 73 -4.33301 99 -13s48.333 -18.334 67 -29.001l-19 -61c-25.333 15.333 -49.833 25.833 -73.5 31.5s-47.167 8.5 -70.5 8.5c-30 0 -53.667 -5.5 -71 -16.5s-26 -29.167 -26 -54.5c0 -18.667 6.83301 -34.834 20.5 -48.501s34.167 -22.167 61.5 -25.5
c6 -1.33301 29.667 -2 71 -2h57v-61h-57c-40 0 -67.333 -1 -82 -3c-25.333 -2 -45.833 -10 -61.5 -24s-23.5 -32 -23.5 -54c0 -28 9.83301 -49.667 29.5 -65s51.5 -23 95.5 -23c27.333 0 53.833 3.5 79.5 10.5s49.167 15.5 70.5 25.5l9 -61
c-19.333 -10.667 -44.5 -19.167 -75.5 -25.5s-60.833 -9.5 -89.5 -9.5z" />
    <glyph glyph-name="zeta" unicode="&#x3b6;" horiz-adv-x="425" 
d="M358 -176l-57.999 17.001c20.667 61.333 33.334 110.333 38.001 147h-25c-40.667 0 -77.334 3.16699 -110.001 9.5s-60.5 17.166 -83.5 32.499s-40.667 35.5 -53 60.5s-18.5 56.167 -18.5 93.5c0 50 11.667 102.167 35 156.5s50 99.333 80 135s59 66.167 87 91.5
c23.333 20 40.666 33.667 51.999 41c-23.333 -2 -45.333 -3 -66 -3c-42.667 0 -76.667 1.16699 -102 3.5s-42 4.83301 -50 7.5l12 59c56.667 -7.33301 116.667 -11 180 -11c43.333 0 87.333 2.33301 132 7v-53c-27.333 -18 -48.666 -33 -63.999 -45
c-49.333 -39.333 -92 -83.5 -128 -132.5s-60.833 -94.667 -74.5 -137s-20.5 -79.833 -20.5 -112.5c0 -43.333 11.833 -75.5 35.5 -96.5s55.167 -33.5 94.5 -37.5s80.333 -6 123 -6c13.333 0 22.666 -3 27.999 -9s8 -16.667 8 -32c0 -23.333 -5.66699 -52.833 -17 -88.5
s-23 -68.167 -35 -97.5z" />
    <glyph glyph-name="eta" unicode="&#x3b7;" horiz-adv-x="528" 
d="M393 -189l0.000976562 485c0 25.333 -1 43.666 -3 54.999c-10.667 49.333 -46.334 74 -107.001 74c-28 0 -53.5 -6.5 -76.5 -19.5s-38.167 -29.167 -45.5 -48.5c-4.66699 -12.667 -7 -33 -7 -61v-296h-73v375c0 15.333 -2.33301 26.833 -7 34.5s-12.667 11.5 -24 11.5
c-8 0 -16 -1.66699 -24 -5l-16 58c5.33301 2.66699 12.833 5.16699 22.5 7.5s19.834 3.5 30.501 3.5c19.333 0 35.833 -4 49.5 -12s24.5 -24.333 32.5 -49c19.333 22.667 41.666 39.167 66.999 49.5s53.333 15.5 84 15.5c52.667 0 93.167 -12.167 121.5 -36.5
s43.833 -56.166 46.5 -95.499c1.33301 -11.333 2 -32.333 2 -63v-483h-73z" />
    <glyph glyph-name="theta" unicode="&#x3b8;" horiz-adv-x="504" 
d="M252 -11c-41.333 0 -75.333 9.83203 -102 29.499s-47.5 45.5 -62.5 77.5s-25.333 68.333 -31 109s-8.5 82.334 -8.5 125.001c0 40.667 3.16699 81.667 9.5 123s17.5 78.5 33.5 111.5s37.5 59.833 64.5 80.5s60.833 31 101.5 31c57.333 0 101.333 -20 132 -60
s49.5 -86.167 56.5 -138.5s10.5 -99.833 10.5 -142.5c0 -76.667 -7.83301 -141.667 -23.5 -195s-39.667 -91.833 -72 -115.5s-68.5 -35.5 -108.5 -35.5zM254 52.999c36 0 64.334 13.999 85.001 41.999s33.667 61.833 39 101.5s8 75.167 8 106.5h-265
c0 -31.333 2.16699 -62 6.5 -92s11.666 -56.667 21.999 -80s24 -42.166 41 -56.499s38.167 -21.5 63.5 -21.5zM121.001 362.998l264.999 -0.00195312c-1.33301 54 -6.83301 100 -16.5 138s-24.667 66.167 -45 84.5s-43.166 27.5 -68.499 27.5
c-36 0 -64.833 -14.667 -86.5 -44s-35 -63.166 -40 -101.499s-7.83301 -73.166 -8.5 -104.499z" />
    <glyph glyph-name="iota" unicode="&#x3b9;" horiz-adv-x="251" 
d="M177 -11c-34 0 -60.167 9.33301 -78.5 28s-27.5 49 -27.5 91v369h72v-359c0 -22.667 2.83301 -39.5 8.5 -50.5s17.167 -16.5 34.5 -16.5c10 0 26.333 3.33301 49 10l11 -56c-24 -10.667 -47 -16 -69 -16z" />
    <glyph glyph-name="kappa" unicode="&#x3ba;" horiz-adv-x="520" 
d="M71 0l-0.000976562 477h72v-241c82.667 103.333 139.667 170.666 171 201.999c18 17.333 34.333 28.833 49 34.5s29.667 8.5 45 8.5c10.667 0 21.834 -1.66699 33.501 -5s21.167 -7.66602 28.5 -12.999l-21 -60c-16 8.66699 -29.667 13 -41 13
c-18 0 -37.667 -10.667 -59 -32c-26 -28 -49 -54.667 -69 -80l205 -304h-86l-167 246l-89 -104v-142h-72z" />
    <glyph glyph-name="lambda" unicode="&#x3bb;" horiz-adv-x="486" 
d="M447 -11c-30 0 -54.167 7.50098 -72.5 22.501s-31.666 33.667 -39.999 56s-15.833 44.166 -22.5 65.499l-76 240l-136 -373h-76l179 467l-24 69c-7.33301 19.333 -14.833 33.833 -22.5 43.5s-19.834 14.5 -36.501 14.5c-14.667 0 -35.334 -5.66699 -62.001 -17l-15 58
c10 5.33301 23.5 10.5 40.5 15.5s32.833 7.5 47.5 7.5c29.333 0 52.833 -7.66699 70.5 -23s31.834 -38.333 42.501 -69l152 -452c6.66699 -20 14.167 -35.333 22.5 -46s20.5 -16 36.5 -16c6 0 17 2 33 6l9 -59c-7.33301 -3.33301 -16 -5.83301 -26 -7.5s-18 -2.5 -24 -2.5z
" />
    <glyph glyph-name="uni03BC" unicode="&#x3bc;" horiz-adv-x="545" 
d="M77 -189l-0.00195312 666.002h73v-304c0 -44 9.5 -75.333 28.5 -94s46.5 -28 82.5 -28c29.333 0 53.833 6.16699 73.5 18.5s33.5 27.166 41.5 44.499c6 12 9 35 9 69v294h73v-359c0 -22.667 2 -39.334 6 -50.001s13.667 -16 29 -16c8.66699 0 18 1.66699 28 5l9 -58
c-7.33301 -3.33301 -15.833 -5.83301 -25.5 -7.5s-17.5 -2.5 -23.5 -2.5c-21.333 0 -39.166 4.16699 -53.499 12.5s-25.166 23.833 -32.499 46.5c-19.333 -20.667 -39.333 -35.667 -60 -45s-47 -14 -79 -14c-23.333 0 -44.5 3.83301 -63.5 11.5s-34.5 19.167 -46.5 34.5
v-224h-69z" />
    <glyph glyph-name="nu" unicode="&#x3bd;" horiz-adv-x="484" 
d="M191 0c-14.667 59.333 -34.332 129 -58.999 209s-45.334 139.333 -62.001 178c-5.33301 13.333 -11.166 22.333 -17.499 27s-13.5 7 -21.5 7c-8.66699 0 -18.667 -1.66699 -30 -5l-15 58c16 7.33301 35 11 57 11c20 0 37.167 -4.16699 51.5 -12.5
s26.166 -22.5 35.499 -42.5c14 -32 32 -84.167 54 -156.5s40.333 -139.5 55 -201.5l82.5 250.5l54.5 162.5l65 -23l-79.5 -228l-81.5 -234h-89z" />
    </font>
</defs>
</svg>
