<?xml version="1.0" encoding="utf-8"?>
<!-- Generator: Adobe Illustrator 22.1.0, SVG Export Plug-In . SVG Version: 6.00 Build 0)  -->
<svg version="1.1" id="ic_x5F_close_1_" xmlns="http://www.w3.org/2000/svg" xmlns:xlink="http://www.w3.org/1999/xlink" x="0px"
	 y="0px" viewBox="0 0 9.5 9.5" style="enable-background:new 0 0 9.5 9.5;" xml:space="preserve">
<style type="text/css">
	.st0{fill:#FFFFFF;}
</style>
<g id="fb">
	<g>
		<path class="st0" d="M8.9,0.2H0.6c-0.3,0-0.5,0.2-0.5,0.5V9c0,0.3,0.2,0.5,0.5,0.5h4.5V5.8H3.9V4.4h1.2v-1c0-1.2,0.7-1.9,1.8-1.9
			c0.5,0,1,0,1.1,0.1v1.3H7.3c-0.6,0-0.7,0.3-0.7,0.7v0.9H8L7.8,5.8H6.6v3.6H9c0.3,0,0.5-0.2,0.5-0.5V0.7C9.5,0.4,9.2,0.2,8.9,0.2z"
			/>
	</g>
</g>
</svg>
