<?xml version="1.0" encoding="utf-8"?>
<!-- Generator: Adobe Illustrator 22.1.0, SVG Export Plug-In . SVG Version: 6.00 Build 0)  -->
<svg version="1.1" id="Layer_1" xmlns="http://www.w3.org/2000/svg" xmlns:xlink="http://www.w3.org/1999/xlink" x="0px" y="0px"
	 viewBox="0 0 15 10" style="enable-background:new 0 0 15 10;" xml:space="preserve">
<style type="text/css">
	.st0{fill-rule:evenodd;clip-rule:evenodd;fill:#8C8C8C;}
</style>
<g id="Forma_1_1_">
	<g>
		<path class="st0" d="M4.4,5c0.1-0.1,0.3-0.2,0.4-0.3C4.6,4.4,4.5,4.1,4.3,3.7C4.2,3.4,4.2,3,4.2,2.6c0-0.5,0.1-0.9,0.3-1.4
			C4.3,1.2,4.2,1.1,4,1C3.9,1,3.7,1,3.5,1C3.3,1,3,1,2.8,1.1C2.6,1.2,2.4,1.4,2.2,1.6C2,1.8,1.9,2,1.8,2.3C1.7,2.5,1.6,2.8,1.6,3.1
			c0,0.4,0.1,0.8,0.3,1.1C2.1,4.6,2.4,4.8,2.7,5L0.1,6.2c-0.2,0.1-0.3,0.2-0.3,0.4v2c0,0.1,0,0.3,0.1,0.3C0,9,0.1,9,0.2,9H2V7
			C2,6.7,2,6.5,2.2,6.2C2.3,6,2.5,5.9,2.7,5.8L4.4,5z M11.6,6.4l-2.2-1L8.4,5c0.4-0.2,0.7-0.6,1-1.1c0.2-0.4,0.3-0.8,0.3-1.2
			c0-0.2,0-0.5-0.1-0.7c-0.1-0.6-0.4-1-0.8-1.4C8.3,0.2,7.9,0,7.3,0c-0.5,0-1,0.2-1.4,0.5C5.5,0.9,5.2,1.3,5.1,1.9C5,2,5,2.1,5,2.2
			c0,0.1,0,0.3,0,0.4c0,0.5,0.1,0.9,0.3,1.3c0.2,0.5,0.5,0.8,1,1.1L5.3,5.4l-2.3,1C2.8,6.5,2.7,6.7,2.7,7v2.4c0,0.2,0,0.3,0.1,0.4
			C3,9.9,3.1,10,3.2,10h8.1c0.2,0,0.3-0.1,0.4-0.2c0.1-0.1,0.1-0.3,0.1-0.4V7C11.9,6.7,11.8,6.5,11.6,6.4z M14.6,6.2L12,5
			c0.3-0.2,0.5-0.4,0.7-0.8C12.9,3.9,13,3.5,13,3.1c0-0.3,0-0.6-0.1-0.8c-0.1-0.3-0.2-0.5-0.4-0.7c-0.2-0.2-0.4-0.3-0.6-0.5
			C11.6,1,11.4,1,11.1,1c-0.2,0-0.3,0-0.5,0.1c-0.2,0.1-0.3,0.1-0.5,0.2c0.1,0.2,0.2,0.4,0.2,0.7c0,0.2,0.1,0.5,0.1,0.7
			c0,0.4-0.1,0.7-0.2,1.1C10.2,4,10,4.4,9.8,4.6C10,4.8,10.1,4.9,10.3,5l1.6,0.8c0.2,0.1,0.4,0.3,0.6,0.5c0.1,0.2,0.2,0.5,0.2,0.7V9
			h1.8c0.1,0,0.2,0,0.3-0.1c0.1-0.1,0.1-0.2,0.1-0.3v-2C14.8,6.4,14.7,6.2,14.6,6.2z"/>
	</g>
</g>
</svg>
