<svg xmlns="http://www.w3.org/2000/svg" width="50" height="47" viewBox="0 0 50 47">
  <metadata><?xpacket begin="﻿" id="W5M0MpCehiHzreSzNTczkc9d"?>
<x:xmpmeta xmlns:x="adobe:ns:meta/" x:xmptk="Adobe XMP Core 5.6-c142 79.160924, 2017/07/13-01:06:39        ">
   <rdf:RDF xmlns:rdf="http://www.w3.org/1999/02/22-rdf-syntax-ns#">
      <rdf:Description rdf:about=""/>
   </rdf:RDF>
</x:xmpmeta>
                                                                                                    
                                                                                                    
                                                                                                    
                                                                                                    
                                                                                                    
                                                                                                    
                                                                                                    
                                                                                                    
                                                                                                    
                                                                                                    
                                                                                                    
                                                                                                    
                                                                                                    
                                                                                                    
                                                                                                    
                                                                                                    
                                                                                                    
                                                                                                    
                                                                                                    
                                                                                                    
                           
<?xpacket end="w"?></metadata>
<defs>
    <style>
      .cls-1 {
        fill: #f37920;
        fill-rule: evenodd;
      }
    </style>
  </defs>
  <path id="ic_like_active" class="cls-1" d="M6.178,45.428h0A5.355,5.355,0,0,1,.853,40.057v-16.6a5.325,5.325,0,1,1,10.649,0v16.6A5.353,5.353,0,0,1,6.178,45.428Zm31.6,0H19.47A5.561,5.561,0,0,1,13.94,39.85V19.3a4.767,4.767,0,0,1,1.573-3.766c0.039-.033.082-0.069,0.108-0.093L28.968,1.979a1.4,1.4,0,0,1,1.952-.046l2.1,1.923a1.415,1.415,0,0,1,.229.27,5.42,5.42,0,0,1,1.009,2.934v0.6a1.482,1.482,0,0,1-.033.305l-1.639,7.605a0.371,0.371,0,0,0,.072.3,0.354,0.354,0,0,0,.279.133H43.949a5.353,5.353,0,0,1,5.324,5.372v0.061l-0.205,4.12a4.538,4.538,0,0,1-.313,1.927L42.6,42.192A5.251,5.251,0,0,1,37.779,45.428ZM31.861,7.446s0,0,0,0Z"/>
</svg>
