<svg id="Capa_1" data-name="Capa 1" xmlns="http://www.w3.org/2000/svg" viewBox="0 0 87.2 87.2"><defs><style>.cls-1{fill:#f7f8fc;}.cls-2{fill:#fcefe6;}.cls-3{fill:#fff;}.cls-3,.cls-4{stroke:#4a4a4a;stroke-linecap:round;stroke-miterlimit:10;stroke-width:2px;}.cls-4{fill:none;}.cls-5{fill:#cecdc8;}.cls-6{fill:#f4ba92;}.cls-7{fill:#f37920;}</style></defs><title>ic_no_data</title><path class="cls-1" d="M44.6,1.3A43.6,43.6,0,1,1,1,44.9,43.57,43.57,0,0,1,44.6,1.3Z" transform="translate(-1 -1.3)"/><polygon class="cls-2" points="66.1 38.8 51.1 23.8 28.1 23.8 28.1 73.8 66.1 73.8 66.1 38.8"/><circle class="cls-3" cx="48.6" cy="56.3" r="10.8"/><line class="cls-4" x1="56.4" y1="64.1" x2="67.1" y2="74.8"/><path class="cls-5" d="M46.6,55.5h-2c-.6,0-1-.3-1-.7s.4-.7,1-.7h2c.6,0,1,.3,1,.7S47.2,55.5,46.6,55.5Z" transform="translate(-1 -1.3)"/><path class="cls-5" d="M54.1,55.5h-2c-.6,0-1-.3-1-.7s.4-.7,1-.7h2c.6,0,1,.3,1,.7S54.7,55.5,54.1,55.5Z" transform="translate(-1 -1.3)"/><polygon class="cls-6" points="28.1 23.8 51.1 23.8 61.1 33.8 61.1 18.8 23.1 18.8 23.1 68.8 28.1 68.8 28.1 23.8"/><path class="cls-7" d="M66.8,40.1H52.1V25.4c0-.1.1-.2.2-.1L66.9,39.9C67,40,66.9,40.1,66.8,40.1Z" transform="translate(-1 -1.3)"/><path class="cls-5" d="M51.9,58.5h0a.45.45,0,0,0-.5,0l-1.8,1.8-1.9-1.8a.45.45,0,0,0-.5,0h0a.45.45,0,0,0,0,.5L49,60.8l-1.8,1.8a.45.45,0,0,0,0,.5h0a.45.45,0,0,0,.5,0l1.8-1.8,1.8,1.8a.45.45,0,0,0,.5,0h0a.45.45,0,0,0,0-.5L50,60.8,51.8,59C52.1,58.9,52.1,58.6,51.9,58.5Z" transform="translate(-1 -1.3)"/></svg>