<svg xmlns="http://www.w3.org/2000/svg" width="150" height="150" viewBox="0 0 150 150">
  <metadata><?xpacket begin="﻿" id="W5M0MpCehiHzreSzNTczkc9d"?>
<x:xmpmeta xmlns:x="adobe:ns:meta/" x:xmptk="Adobe XMP Core 5.6-c142 79.160924, 2017/07/13-01:06:39        ">
   <rdf:RDF xmlns:rdf="http://www.w3.org/1999/02/22-rdf-syntax-ns#">
      <rdf:Description rdf:about=""/>
   </rdf:RDF>
</x:xmpmeta>
                                                                                                    
                                                                                                    
                                                                                                    
                                                                                                    
                                                                                                    
                                                                                                    
                                                                                                    
                                                                                                    
                                                                                                    
                                                                                                    
                                                                                                    
                                                                                                    
                                                                                                    
                                                                                                    
                                                                                                    
                                                                                                    
                                                                                                    
                                                                                                    
                                                                                                    
                                                                                                    
                           
<?xpacket end="w"?></metadata>
<defs>
    <style>
      .cls-1 {
        fill: #fff;
        fill-rule: evenodd;
      }
    </style>
  </defs>
  <path id="ic_play" class="cls-1" d="M74.994,0a75,75,0,1,0,75,75A75,75,0,0,0,74.994,0Zm0,140a65,65,0,1,1,65-65A65.08,65.08,0,0,1,74.994,140Zm33.162-68.272L69.592,41.179a6.7,6.7,0,0,0-7.861,0l-0.052.048a3.951,3.951,0,0,0-1.687,3.122v61.1a3.94,3.94,0,0,0,1.757,3.145l-0.017.019a6.667,6.667,0,0,0,7.861,0L108.364,78a3.73,3.73,0,0,0,0-6.167Z"/>
</svg>
