<?xml version="1.0" encoding="utf-8"?>
<!-- Generator: Adobe Illustrator 22.1.0, SVG Export Plug-In . SVG Version: 6.00 Build 0)  -->
<svg version="1.1" id="Layer_1" xmlns="http://www.w3.org/2000/svg" xmlns:xlink="http://www.w3.org/1999/xlink" x="0px" y="0px"
	 viewBox="0 0 10 10" style="enable-background:new 0 0 10 10;" xml:space="preserve">
<style type="text/css">
	.st0{fill-rule:evenodd;clip-rule:evenodd;fill:#8C8C8C;}
</style>
<g id="Shape_12">
	<g>
		<path class="st0" d="M8.6,2.9l0.7-0.7c0.2-0.2,0.2-0.4,0-0.6c-0.2-0.2-0.4-0.2-0.6,0L8,2.3c-0.7-0.5-1.5-0.9-2.4-1V0.9h0.9
			c0.2,0,0.4-0.2,0.4-0.4C6.8,0.2,6.6,0,6.4,0H3.8C3.6,0,3.4,0.2,3.4,0.5c0,0.2,0.2,0.4,0.4,0.4h0.9v0.4C2.4,1.5,0.6,3.4,0.6,5.7
			c0,2.4,2,4.4,4.5,4.4c2.5,0,4.5-2,4.5-4.4C9.6,4.6,9.2,3.6,8.6,2.9z M5.5,5.7c0,0.2-0.2,0.4-0.4,0.4c-0.2,0-0.4-0.2-0.4-0.4V3.4
			C4.7,3.1,4.9,3,5.1,3c0.2,0,0.4,0.2,0.4,0.4V5.7z"/>
	</g>
</g>
</svg>
