<?xml version="1.0" encoding="utf-8"?>
<!-- Generator: Adobe Illustrator 22.1.0, SVG Export Plug-In . SVG Version: 6.00 Build 0)  -->
<svg version="1.1" xmlns="http://www.w3.org/2000/svg" xmlns:xlink="http://www.w3.org/1999/xlink" x="0px" y="0px"
	 viewBox="0 0 24 24" style="enable-background:new 0 0 24 24;" xml:space="preserve">
<style type="text/css">
	.st0{enable-background:new    ;}
	.st1{fill:none;}
	.st2{fill:#FBBC05;}
	.st3{fill:#EA4335;}
	.st4{fill:#34A853;}
	.st5{fill:#4285F4;}
</style>
<g id="ic_x5F_fb_1_" class="st0">
</g>
<g id="_x2D_e-ic_x5F_google_xA0_Image_1_">
</g>
<g id="ic_x5F_unactive_x5F_eye_1_" class="st0">
</g>
<g id="ic_x5F_active_x5F_eye_1_" class="st0">
</g>
<g id="ic_x5F_info_1_" class="st0">
	<g id="_x31__stroke">
		<g id="Google">
			<rect x="0" y="0" class="st1" width="24" height="24"/>
			<path class="st2" d="M5.2,12c0-0.8,0.1-1.5,0.4-2.2l-4-3.1C0.7,8.3,0.3,10.1,0.3,12c0,1.9,0.4,3.7,1.2,5.3l4-3.1
				C5.3,13.5,5.2,12.8,5.2,12"/>
			<path class="st3" d="M12.3,4.9c1.7,0,3.2,0.6,4.4,1.6L20.2,3c-2.1-1.9-4.9-3-7.9-3C7.5,0,3.4,2.7,1.5,6.7l4,3.1
				C6.5,6.9,9.1,4.9,12.3,4.9"/>
			<path class="st4" d="M12.3,19.1c-3.2,0-5.8-2-6.7-4.9l-4,3.1c2,4,6,6.7,10.8,6.7c2.9,0,5.7-1,7.8-3l-3.8-3
				C15.2,18.7,13.8,19.1,12.3,19.1"/>
			<path class="st5" d="M23.7,12c0-0.7-0.1-1.5-0.3-2.2H12.3v4.6h6.4c-0.3,1.6-1.2,2.8-2.5,3.6l3.8,3C22.3,19,23.7,15.9,23.7,12"/>
		</g>
	</g>
</g>
</svg>
