<svg id="gurushala_logo" xmlns="http://www.w3.org/2000/svg" xmlns:xlink="http://www.w3.org/1999/xlink" width="558" height="190" viewBox="0 0 558 190">
  <metadata><?xpacket begin="﻿" id="W5M0MpCehiHzreSzNTczkc9d"?>
<x:xmpmeta xmlns:x="adobe:ns:meta/" x:xmptk="Adobe XMP Core 5.6-c142 79.160924, 2017/07/13-01:06:39        ">
   <rdf:RDF xmlns:rdf="http://www.w3.org/1999/02/22-rdf-syntax-ns#">
      <rdf:Description rdf:about=""/>
   </rdf:RDF>
</x:xmpmeta>
                                                                                                    
                                                                                                    
                                                                                                    
                                                                                                    
                                                                                                    
                                                                                                    
                                                                                                    
                                                                                                    
                                                                                                    
                                                                                                    
                                                                                                    
                                                                                                    
                                                                                                    
                                                                                                    
                                                                                                    
                                                                                                    
                                                                                                    
                                                                                                    
                                                                                                    
                                                                                                    
                           
<?xpacket end="w"?></metadata>
<defs>
    <style>
      .cls-1 {
        fill: #f47920;
      }

      .cls-10, .cls-2, .cls-9 {
        fill: #4e4d49;
      }

      .cls-3 {
        fill: #fff;
      }

      .cls-3, .cls-4, .cls-5, .cls-6, .cls-8, .cls-9 {
        fill-rule: evenodd;
      }

      .cls-4 {
        fill: url(#linear-gradient);
      }

      .cls-5 {
        fill: #fff125;
      }

      .cls-6 {
        fill: url(#linear-gradient-2);
      }

      .cls-7 {
        fill: #ffa300;
      }

      .cls-8 {
        fill: #fefdc7;
      }

      .cls-10 {
        font-size: 40px;
        font-family: "Vodafone Rg";
        font-weight: 700;
      }
    </style>
    <linearGradient id="linear-gradient" x1="445.5" y1="50" x2="445.5" y2="44" gradientUnits="userSpaceOnUse">
      <stop offset="0" stop-color="#ffd902"/>
      <stop offset="1" stop-color="#fff42a"/>
    </linearGradient>
    <linearGradient id="linear-gradient-2" y1="58" y2="52" xlink:href="#linear-gradient"/>
  </defs>
  <g id="Group_4_copy" data-name="Group 4 copy">
    <rect class="cls-1" x="0.25" y="0.75" width="557.094" height="139.5"/>
    <rect id="Rectangle_3_copy_2" data-name="Rectangle 3 copy 2" class="cls-2" y="163" width="198" height="4"/>
    <rect id="Rectangle_3_copy_3" data-name="Rectangle 3 copy 3" class="cls-1" y="177" width="198" height="4"/>
    <path id="Ellipse_2_copy_2" data-name="Ellipse 2 copy 2" class="cls-3" d="M528,58v66H514V58H496v66H483V78c-1.384-.23-6.432-0.006-7.8.7a7.633,7.633,0,0,0-2.633,2.194,7.8,7.8,0,0,0-1.548,3.1A12.427,12.427,0,0,0,471,87c0,0.8-.025,2.826,0,3H458c-0.207-1.582.362-2.689,0.034-4.255a19.238,19.238,0,0,0-1.343-4.181,8.645,8.645,0,0,0-2.168-2.968A4.769,4.769,0,0,0,451.3,77.46a4.638,4.638,0,0,0-2.658.749,5.947,5.947,0,0,0-1.859,2.09,10.283,10.283,0,0,0-1.084,3.175,21.819,21.819,0,0,0-.336,3.949,22.655,22.655,0,0,0,1.988,9.652,28,28,0,0,0,5.266,7.691,39.476,39.476,0,0,0,7.511,6.064,79.7,79.7,0,0,0,8.775,4.775l-5.987,10.169a50.858,50.858,0,0,1-5.111-2.4,56.112,56.112,0,0,1-6.556-4.1,69.565,69.565,0,0,1-6.97-5.755,45.262,45.262,0,0,1-6.323-7.329,38.571,38.571,0,0,1-4.57-8.878,30.076,30.076,0,0,1-1.755-10.349,28.211,28.211,0,0,1,1.342-8.775,22.071,22.071,0,0,1,3.847-7.2,18.369,18.369,0,0,1,6.04-4.852,17.361,17.361,0,0,1,7.923-1.781,16.085,16.085,0,0,1,5.241.774,14.605,14.605,0,0,1,3.871,1.961,14.808,14.808,0,0,1,2.763,2.581,31.133,31.133,0,0,1,1.909,2.581l0.259-.052a13.4,13.4,0,0,1,2.477-3.3,14.143,14.143,0,0,1,3.124-2.3,13.84,13.84,0,0,1,3.484-1.316,16.206,16.206,0,0,1,3.615-.413,18.407,18.407,0,0,1,1.909.1c0.653,0.07,2.879.894,3.567,1.031V58H415v66H400V58H382v66H367V58"/>
    <path id="Ellipse_2_copy_3" data-name="Ellipse 2 copy 3" class="cls-3" d="M333,46c-18.014,0-20.622,14.953-20.622,19.589a16,16,0,0,0,1.5,6.865,16.773,16.773,0,0,0,4.26,5.6,20.432,20.432,0,0,0,6.736,3.794,26.877,26.877,0,0,0,8.931,1.394h0.335a5.8,5.8,0,0,0,.7-0.051V71.524q-4.337,0-6.634-1.729a5.855,5.855,0,0,1-2.3-4.981,7.937,7.937,0,0,1,.336-2.271,5.513,5.513,0,0,1,1.135-2.065,5.73,5.73,0,0,1,2.117-1.5,8.289,8.289,0,0,1,3.277-.568,9.774,9.774,0,0,1,4.7,1.11,10.748,10.748,0,0,1,3.485,2.968,13.194,13.194,0,0,1,2.142,4.284,17.616,17.616,0,0,1,.723,5.058,16.275,16.275,0,0,1-.852,5.42,17.629,17.629,0,0,1-2.194,4.336,19.091,19.091,0,0,1-2.943,3.329,25.7,25.7,0,0,1-3.123,2.4,20.949,20.949,0,0,1-2.736,1.523,13.866,13.866,0,0,1-1.781.7,24.462,24.462,0,0,0-6.014-2.632,22.792,22.792,0,0,0-6.324-.929,14.356,14.356,0,0,0-4.7.7,10.106,10.106,0,0,0-3.331,1.832,7.564,7.564,0,0,0-1.987,2.607,7.31,7.31,0,0,0-.671,3.071,8.417,8.417,0,0,0,.851,3.613,9.817,9.817,0,0,0,2.531,3.252A13.211,13.211,0,0,0,314.7,103.4a16.7,16.7,0,0,0,5.73.9,23.649,23.649,0,0,0,8.364-1.549,68.765,68.765,0,0,1,6.53,5.24q3.226,2.916,6.143,6.013t5.446,6.142q2.529,3.046,4.441,5.575l9.5-7.588q-2.014-2.734-4.49-5.755t-5.164-5.833q-2.685-2.812-5.421-5.239a41.867,41.867,0,0,0-5.161-3.974V97.075a38.505,38.505,0,0,0,6.761-4.981,33.69,33.69,0,0,0,5.215-6.065,28.335,28.335,0,0,0,3.355-6.839,23.25,23.25,0,0,0,1.189-7.356,24.884,24.884,0,0,0-1.112-7.3C355.187,61.206,351.752,46,333,46Z"/>
    <path id="Guru" class="cls-3" d="M80.011,123.955C86.175,122.442,90.294,120.731,93,119V67H57V86H74v20c-3.488.92-8.936,1.25-15.25,1.25a47.632,47.632,0,0,1-5.1-.731,22.065,22.065,0,0,1-6.326-1.947,24.367,24.367,0,0,1-6.488-4.541,26.841,26.841,0,0,1-5.6-8.192,49.879,49.879,0,0,1-4.38-21.574,51.186,51.186,0,0,1,.244-7.542,60.436,60.436,0,0,1,1.54-8.516,31.912,31.912,0,0,1,8.273-15.248,18.635,18.635,0,0,1,14.6-6.326,23.39,23.39,0,0,1,13.139,3.731,26.981,26.981,0,0,1,8.759,9.084L91.69,32.307a35.894,35.894,0,0,0-13.3-13.545q-8.759-5.27-23.034-5.272A44.523,44.523,0,0,0,38.08,16.9,40,40,0,0,0,23.562,27.36,51.88,51.88,0,0,0,13.5,45.041Q9.772,55.666,9.774,70.264a74.171,74.171,0,0,0,3.487,23.683,50.919,50.919,0,0,0,9.813,17.6A41.2,41.2,0,0,0,38.242,122.5a49.35,49.35,0,0,0,19.384,3.732A95.2,95.2,0,0,0,80.011,123.955Zm58.315,0A31.116,31.116,0,0,0,150,118v6h18V46H149v55a49.534,49.534,0,0,1-7.022,5.031,19.418,19.418,0,0,1-9.9,2.352q-7.14,0-10.057-5.028C120.077,100,119,96.408,119,91V46H99l0.249,46.25c0,11.139,2.119,19.541,6.88,25.056s11.732,8.272,20.924,8.272A41.541,41.541,0,0,0,138.326,123.955ZM194,124V71a40.88,40.88,0,0,1,7.43-5.845A19.409,19.409,0,0,1,212,62a21.374,21.374,0,0,1,6.461.8l2.92-17.519C219.757,44.529,217.216,44,213,44a21.444,21.444,0,0,0-6.7,1.446,38.492,38.492,0,0,0-6.894,3.325,25.282,25.282,0,0,0-6.084,5.272L192,46H174v78h20Zm71.286-.045A31.27,31.27,0,0,0,277,118v6h18V46H276v55a50.294,50.294,0,0,1-7.066,5.031,19.409,19.409,0,0,1-9.894,2.352q-7.142,0-10.057-5.028t-2.921-13.139L246,46H226V92c0,11.139,2.327,19.79,7.087,25.305s11.732,8.272,20.925,8.272A41.541,41.541,0,0,0,265.284,123.955Z"/>
  </g>
  <g>
    <path id="Forma_1_copy_3" data-name="Forma 1 copy 3" class="cls-4" d="M528,49.989V50H358V44H529.5a7.688,7.688,0,0,1,3.5,6Z"/>
    <path id="Rounded_Rectangle_1" data-name="Rounded Rectangle 1" class="cls-5" d="M357,58a7,7,0,1,1,0-14"/>
    <path id="Forma_1_copy_4" data-name="Forma 1 copy 4" class="cls-6" d="M528,52.01l5-.01a6.6,6.6,0,0,1-3.5,6H358V52H528v0.01Z"/>
    <path class="cls-7" d="M358,49H531a2,2,0,0,1,2,2v0a2,2,0,0,1-2,2H358a0,0,0,0,1,0,0V49a0,0,0,0,1,0,0Z"/>
    <path id="Forma_1_copy_5" data-name="Forma 1 copy 5" class="cls-8" d="M533,58c2.313-3.575,3.474-8.243,0-14l15,6.957Z"/>
    <path class="cls-9" d="M538,45h13V55l-12,1s3-2.759,3-5C542,48.286,538,45,538,45Z"/>
  </g>
  <text id="Inspiring_To_Teach" data-name="Inspiring To Teach" class="cls-10" x="211.885" y="181.61">Inspiring To Teach</text>
</svg>
