<svg xmlns="http://www.w3.org/2000/svg" width="63" height="63" viewBox="0 0 63 63">
  <metadata><?xpacket begin="﻿" id="W5M0MpCehiHzreSzNTczkc9d"?>
<x:xmpmeta xmlns:x="adobe:ns:meta/" x:xmptk="Adobe XMP Core 5.6-c142 79.160924, 2017/07/13-01:06:39        ">
   <rdf:RDF xmlns:rdf="http://www.w3.org/1999/02/22-rdf-syntax-ns#">
      <rdf:Description rdf:about=""/>
   </rdf:RDF>
</x:xmpmeta>
                                                                                                    
                                                                                                    
                                                                                                    
                                                                                                    
                                                                                                    
                                                                                                    
                                                                                                    
                                                                                                    
                                                                                                    
                                                                                                    
                                                                                                    
                                                                                                    
                                                                                                    
                                                                                                    
                                                                                                    
                                                                                                    
                                                                                                    
                                                                                                    
                                                                                                    
                                                                                                    
                           
<?xpacket end="w"?></metadata>
<defs>
    <style>
      .cls-1 {
        fill: #fff;
        fill-rule: evenodd;
      }
    </style>
  </defs>
  <path id="pause" class="cls-1" d="M31.5,0A31.5,31.5,0,1,0,63,31.5,31.5,31.5,0,0,0,31.5,0Zm0,58.8A27.3,27.3,0,1,1,58.8,31.5,27.333,27.333,0,0,1,31.5,58.8ZM39.234,21A2.766,2.766,0,0,1,42,23.766V41.234a2.766,2.766,0,0,1-5.531,0V23.766A2.766,2.766,0,0,1,39.234,21ZM23.766,21a2.766,2.766,0,0,1,2.766,2.766V41.234a2.766,2.766,0,0,1-5.531,0V23.766A2.766,2.766,0,0,1,23.766,21Z"/>
</svg>
