<?xml version="1.0" encoding="utf-8"?>
<!-- Generator: Adobe Illustrator 22.1.0, SVG Export Plug-In . SVG Version: 6.00 Build 0)  -->
<svg version="1.1" xmlns="http://www.w3.org/2000/svg" xmlns:xlink="http://www.w3.org/1999/xlink" x="0px" y="0px"
	 viewBox="0 0 24 24" style="enable-background:new 0 0 24 24;" xml:space="preserve">
<style type="text/css">
	.st0{enable-background:new    ;}
	.st1{fill-rule:evenodd;clip-rule:evenodd;fill:#D6D8DD;}
</style>
<g id="ic_x5F_fb_1_" class="st0">
</g>
<g id="_x2D_e-ic_x5F_google_xA0_Image_1_">
</g>
<g id="ic_x5F_unactive_x5F_eye_1_" class="st0">
</g>
<g id="ic_x5F_active_x5F_eye_1_" class="st0">
</g>
<g id="ic_x5F_info_1_" class="st0">
	<g id="ic_x5F_unactive_x5F_eye">
		<g>
			<path class="st1" d="M20.7,11.6C20.4,11,16.6,5.9,12,5.9c-4.7,0-8.4,5.1-8.8,5.7L3,11.9l0.3,0.4c0,0.1,3.7,5.6,8.7,5.6
				c4.8,0,8.7-5.5,8.8-5.7l0.2-0.3L20.7,11.6z M19.3,12.1c-3.1,3.8-5.7,4.6-7.3,4.6c-1.6,0-4.2-0.8-7.3-4.6l-0.1-0.2l0.1-0.2
				C7.8,8,10.4,7.2,12,7.2c1.6,0,4.2,0.8,7.3,4.6l0.1,0.2L19.3,12.1z M12,9.5c-1.4,0-2.5,1.1-2.5,2.4c0,1.4,1.1,2.4,2.5,2.4
				c1.4,0,2.5-1,2.5-2.4C14.5,10.5,13.4,9.5,12,9.5z M12,13.1c-0.6,0-1.2-0.4-1.2-1.2c0-0.7,0.5-1.2,1.2-1.2c0.7,0,1.2,0.5,1.2,1.2
				C13.2,12.6,12.7,13.1,12,13.1z"/>
		</g>
	</g>
</g>
</svg>
