<?xml version="1.0" encoding="utf-8"?>
<!-- Generator: Adobe Illustrator 22.1.0, SVG Export Plug-In . SVG Version: 6.00 Build 0)  -->
<svg version="1.1" id="ic_x5F_close_1_" xmlns="http://www.w3.org/2000/svg" xmlns:xlink="http://www.w3.org/1999/xlink" x="0px"
	 y="0px" viewBox="0 0 9.5 9.5" style="enable-background:new 0 0 9.5 9.5;" xml:space="preserve">
<style type="text/css">
	.st0{fill:#FFFFFF;}
</style>
<g>
	<path class="st0" d="M6.7,0H2.9C1.3,0,0.1,1.3,0.1,2.8v3.9c0,1.6,1.3,2.8,2.8,2.8h3.8c1.6,0,2.8-1.3,2.8-2.8V2.9
		C9.5,1.3,8.3,0,6.7,0z M8.6,6.7c0,1-0.8,1.9-1.9,1.9H2.9C1.9,8.6,1,7.8,1,6.7V2.9C1,1.9,1.8,1,2.9,1h3.8c1,0,1.9,0.8,1.9,1.9
		L8.6,6.7L8.6,6.7z"/>
	<path class="st0" d="M4.8,2.3c-1.4,0-2.5,1.1-2.5,2.5s1.1,2.5,2.5,2.5s2.5-1.1,2.5-2.5S6.2,2.3,4.8,2.3z M4.8,6.3
		C4,6.3,3.3,5.6,3.3,4.8S4,3.3,4.8,3.3S6.3,4,6.3,4.8C6.3,5.6,5.6,6.3,4.8,6.3z"/>
	<circle class="st0" cx="7.3" cy="2.3" r="0.6"/>
</g>
</svg>
