<?xml version="1.0" encoding="utf-8"?>
<!-- Generator: Adobe Illustrator 22.1.0, SVG Export Plug-In . SVG Version: 6.00 Build 0)  -->
<svg version="1.1" id="ic_x5F_close_1_" xmlns="http://www.w3.org/2000/svg" xmlns:xlink="http://www.w3.org/1999/xlink" x="0px"
	 y="0px" viewBox="0 0 9.5 9.5" style="enable-background:new 0 0 9.5 9.5;" xml:space="preserve">
<style type="text/css">
	.st0{fill:#FFFFFF;}
</style>
<g id="pintrest">
	<g>
		<path class="st0" d="M4.7,0.1c-2.6,0-4.6,2.1-4.6,4.8c0,1.9,1.1,3.6,2.8,4.4c0-0.4,0-0.8,0.1-1.1c0-0.5,0.5-2.6,0.5-2.6
			S3.4,5.1,3.4,4.7c0-0.8,0.4-1.3,0.9-1.3c0.4,0,0.6,0.4,0.6,0.8S4.6,5.4,4.5,5.9C4.4,6.4,4.7,6.8,5.2,6.8c0.9,0,1.5-1.1,1.5-2.5
			c0-1-0.8-1.8-2-1.8c-1.4,0-2.3,1.1-2.3,2.3c0,0.4,0.1,0.8,0.3,0.9c0.1,0.1,0.1,0.1,0.1,0.3c0,0.1-0.1,0.4-0.1,0.4
			c0,0.1-0.1,0.1-0.3,0.1c-0.6-0.3-0.9-1-0.9-1.8c0-1.4,1.1-3,3.4-3c1.8,0,3,1.3,3,2.8c0,1.9-1,3.3-2.5,3.3C5,7.6,4.5,7.4,4.4,7
			c0,0-0.3,1.1-0.4,1.3C3.9,8.6,3.7,9,3.5,9.3c0.4,0.1,0.9,0.3,1.4,0.3c2.6,0,4.6-2.1,4.6-4.8C9.4,2.2,7.2,0.1,4.7,0.1z"/>
	</g>
</g>
</svg>
