<?xml version="1.0" encoding="utf-8"?>
<!-- Generator: Adobe Illustrator 22.1.0, SVG Export Plug-In . SVG Version: 6.00 Build 0)  -->
<svg version="1.1" id="ic_x5F_close_1_" xmlns="http://www.w3.org/2000/svg" xmlns:xlink="http://www.w3.org/1999/xlink" x="0px"
	 y="0px" viewBox="0 0 9.5 9.5" style="enable-background:new 0 0 9.5 9.5;" xml:space="preserve">
<style type="text/css">
	.st0{fill:#FFFFFF;}
</style>
<g id="twitter">
	<g>
		<path class="st0" d="M9.5,1.9C9.2,2.1,8.8,2.2,8.4,2.3c0.4-0.3,0.7-0.6,0.9-1.1C8.9,1.4,8.5,1.6,8,1.6C7.6,1.2,7.2,1,6.6,1
			C5.5,1,4.7,1.9,4.7,2.9c0,0.2,0,0.3,0.1,0.4c-1.6,0-3.1-0.8-4-1.9C0.6,1.6,0.5,1.9,0.5,2.3c0,0.6,0.3,1.2,0.9,1.6
			C1,3.9,0.7,3.8,0.5,3.7l0,0c0,0.9,0.7,1.6,1.6,1.9C1.9,5.6,1.7,5.6,1.5,5.6c-0.2,0-0.2,0-0.4,0C1.3,6.4,2,6.9,2.9,6.9
			C2.2,7.4,1.4,7.7,0.5,7.7c-0.2,0-0.3,0-0.5,0c0.9,0.5,1.9,0.9,3,0.9c3.6,0,5.5-2.9,5.5-5.4c0-0.1,0-0.2,0-0.2
			C9,2.6,9.3,2.3,9.5,1.9z"/>
	</g>
</g>
</svg>
