<?xml version="1.0" encoding="utf-8"?>
<!-- Generator: Adobe Illustrator 22.1.0, SVG Export Plug-In . SVG Version: 6.00 Build 0)  -->
<svg version="1.1" id="ic_x5F_close_1_" xmlns="http://www.w3.org/2000/svg" xmlns:xlink="http://www.w3.org/1999/xlink" x="0px"
	 y="0px" viewBox="0 0 9.5 9.5" style="enable-background:new 0 0 9.5 9.5;" xml:space="preserve">
<style type="text/css">
	.st0{fill:#FFFFFF;}
</style>
<g id="youtube">
	<g>
		<path class="st0" d="M9.5,2.8c0,0-0.1-0.7-0.4-1C8.7,1.4,8.4,1.4,8.2,1.3C6.9,1.2,4.8,1.2,4.8,1.2l0,0c0,0-2,0-3.3,0.1
			c-0.2,0-0.6,0-0.9,0.5c-0.4,0.4-0.5,1-0.5,1S0,3.6,0,4.4v0.7C0,6,0.1,6.9,0.1,6.9s0.1,0.7,0.4,1c0.4,0.4,0.8,0.4,1,0.5
			c0.7,0.1,3.3,0.1,3.3,0.1s2,0,3.3-0.1c0.2,0,0.6,0,0.9-0.5c0.3-0.3,0.4-1,0.4-1S9.5,6,9.5,5.2V4.4C9.6,3.6,9.5,2.8,9.5,2.8z
			 M3.8,6.1V3.2l2.6,1.4L3.8,6.1z"/>
	</g>
</g>
</svg>
